<svg width="704" height="704" viewBox="0 0 704 704" fill="none" xmlns="http://www.w3.org/2000/svg">
<g clip-path="url(#clip0_4046_1932)">
<rect width="704" height="704" rx="16" fill="#28005B"/>
<g filter="url(#filter0_d_4046_1932)">
<path d="M86.0444 238.239C69.9813 201.664 0 186 0 186V705.954H704V465.781C704 465.781 666.358 448.994 627.244 479.343C579.702 516.231 460.981 658.977 400.889 581.309C362.175 531.272 445.796 461.785 400.889 417.56C347 364.49 259.873 536.012 217.556 472.813C198.08 443.727 202.4 383.623 202.4 364.011C202.4 329.157 176.489 312.579 151.556 312.579C120.804 312.579 99.5445 349.441 74.8 330.662C46.3432 309.066 100.603 271.389 86.0444 238.239Z" fill="url(#paint0_linear_4046_1932)" shape-rendering="crispEdges"/>
</g>
<g filter="url(#filter1_d_4046_1932)">
<path d="M35.0697 368.91C1.58221 340.591 0 258.412 0 258.412V706.234H704V537.1C704 537.1 633.899 524.387 590.086 556.168C517.854 608.561 383.714 661.441 364.189 573.769C356.889 540.989 355.25 505.015 342.913 491.63C293.333 437.834 223.738 599.814 162.854 556.168C103.872 513.885 216.218 407.971 155.109 368.91C115.465 343.569 71.0557 399.341 35.0697 368.91Z" fill="url(#paint1_linear_4046_1932)" shape-rendering="crispEdges"/>
</g>
<g filter="url(#filter2_d_4046_1932)">
<path d="M94.2247 423.461C65.1636 400.026 0 407.327 0 407.327V706.429H704V609.239C704 609.239 665.076 594.863 639.068 590.172C556.674 575.311 489.729 639.233 407.244 624.883C349.098 614.767 346.888 577.337 289.021 565.727C204.939 548.858 98.2667 645.318 70.7906 590.172C41.4714 531.327 145.403 464.73 94.2247 423.461Z" fill="url(#paint2_linear_4046_1932)" shape-rendering="crispEdges"/>
</g>
<g filter="url(#filter3_d_4046_1932)">
<path d="M57.2 193.905C0 168.634 0 103.108 0 103.108V0H704V463.503C704 463.503 687.296 380.27 645.252 362.28C582.611 335.476 567.797 511.555 511.11 473.772C471.694 447.501 502.572 398.434 480.757 356.412C460.618 317.62 425.761 310.532 409.769 269.858C395.242 232.91 423.691 200.844 400.467 168.634C354.858 105.378 319.989 324.934 247.232 296.753C173.386 268.151 304.732 90.2398 225.691 95.284C185.208 97.8675 180.572 153.058 140.017 153.964C91.1725 155.056 111.425 217.861 57.2 193.905Z" fill="url(#paint3_linear_4046_1932)" shape-rendering="crispEdges"/>
</g>
<g filter="url(#filter4_d_4046_1932)">
<path d="M53.4634 143.59C22.1829 138.706 3.32369 104.526 0.188729 70.4702C-0.235911 65.8573 0.188729 0 0.188729 0H704V223.687C704 223.687 670.256 214.835 639.484 223.687C581.219 240.447 584.612 339.928 540.266 350.673C491.271 362.544 474.284 292.233 474.284 240.782C474.284 177.945 474.284 94.1941 415.536 94.1941C361.433 94.1941 334.028 195.868 293.609 159.929C269.492 138.485 285.537 98.1867 256.787 83.5168C227.578 68.6135 178.493 84.9267 142.417 110.867C116.513 129.494 84.7439 148.474 53.4634 143.59Z" fill="url(#paint4_linear_4046_1932)" shape-rendering="crispEdges"/>
</g>
<g filter="url(#filter5_d_4046_1932)">
<path d="M33.0471 82.7678C-17.7601 64.1938 5.15293 0 5.15293 0H704L704 82.7678C704 82.7678 665.854 78.3134 643.187 87.7539C604.876 103.709 598.615 176.398 545.985 182.488C479.939 190.13 488.473 72.388 422.364 65.3168C376.336 60.3935 356.418 106.44 310.208 103.709C270.734 101.376 255.442 72.1709 216.496 65.3168C139.065 51.6898 76.3826 98.6104 33.0471 82.7678Z" fill="url(#paint5_linear_4046_1932)" shape-rendering="crispEdges"/>
</g>
<g opacity="0.8" clip-path="url(#clip1_4046_1932)">
<path d="M53 64L55.1607 69.8393L61 72L55.1607 74.1607L53 80L50.8393 74.1607L45 72L50.8393 69.8393L53 64Z" fill="#EBA029"/>
<path d="M152 88L155.241 96.7589L164 100L155.241 103.241L152 112L148.759 103.241L140 100L148.759 96.7589L152 88Z" fill="#EBA029"/>
<path d="M278 45L280.161 50.8393L286 53L280.161 55.1607L278 61L275.839 55.1607L270 53L275.839 50.8393L278 45Z" fill="#EBA029"/>
<path d="M448 84L450.161 89.8393L456 92L450.161 94.1607L448 100L445.839 94.1607L440 92L445.839 89.8393L448 84Z" fill="#EBA029"/>
<path d="M635 53L637.161 58.8393L643 61L637.161 63.1607L635 69L632.839 63.1607L627 61L632.839 58.8393L635 53Z" fill="#EBA029"/>
<path d="M518 96L521.241 104.759L530 108L521.241 111.241L518 120L514.759 111.241L506 108L514.759 104.759L518 96Z" fill="#EBA029"/>
<path d="M490 254L493.241 262.759L502 266L493.241 269.241L490 278L486.759 269.241L478 266L486.759 262.759L490 254Z" fill="#EBA029"/>
<path d="M599 217L601.161 222.839L607 225L601.161 227.161L599 233L596.839 227.161L591 225L596.839 222.839L599 217Z" fill="#EBA029"/>
</g>
<g opacity="0.8" clip-path="url(#clip2_4046_1932)">
<path d="M654 108L648.161 110.161L646 116L643.839 110.161L638 108L643.839 105.839L646 100L648.161 105.839L654 108Z" fill="#EBA029"/>
<path d="M630 207L621.241 210.241L618 219L614.759 210.241L606 207L614.759 203.759L618 195L621.241 203.759L630 207Z" fill="#EBA029"/>
<path d="M673 333L667.161 335.161L665 341L662.839 335.161L657 333L662.839 330.839L665 325L667.161 330.839L673 333Z" fill="#EBA029"/>
<path d="M634 503L628.161 505.161L626 511L623.839 505.161L618 503L623.839 500.839L626 495L628.161 500.839L634 503Z" fill="#EBA029"/>
<path d="M665 690L659.161 692.161L657 698L654.839 692.161L649 690L654.839 687.839L657 682L659.161 687.839L665 690Z" fill="#EBA029"/>
<path d="M622 573L613.241 576.241L610 585L606.759 576.241L598 573L606.759 569.759L610 561L613.241 569.759L622 573Z" fill="#EBA029"/>
<path d="M464 545L455.241 548.241L452 557L448.759 548.241L440 545L448.759 541.759L452 533L455.241 541.759L464 545Z" fill="#EBA029"/>
<path d="M501 654L495.161 656.161L493 662L490.839 656.161L485 654L490.839 651.839L493 646L495.161 651.839L501 654Z" fill="#EBA029"/>
</g>
<g opacity="0.8" clip-path="url(#clip3_4046_1932)">
<path d="M88 72L93.8393 74.1607L96 80L98.1607 74.1607L104 72L98.1607 69.8393L96 64L93.8393 69.8393L88 72Z" fill="#EBA029"/>
<path d="M112 171L120.759 174.241L124 183L127.241 174.241L136 171L127.241 167.759L124 159L120.759 167.759L112 171Z" fill="#EBA029"/>
<path d="M69 297L74.8393 299.161L77 305L79.1607 299.161L85 297L79.1607 294.839L77 289L74.8393 294.839L69 297Z" fill="#EBA029"/>
<path d="M108 467L113.839 469.161L116 475L118.161 469.161L124 467L118.161 464.839L116 459L113.839 464.839L108 467Z" fill="#EBA029"/>
<path d="M77 654L82.8393 656.161L85 662L87.1607 656.161L93 654L87.1607 651.839L85 646L82.8393 651.839L77 654Z" fill="#EBA029"/>
<path d="M120 537L128.759 540.241L132 549L135.241 540.241L144 537L135.241 533.759L132 525L128.759 533.759L120 537Z" fill="#EBA029"/>
<path d="M278 509L286.759 512.241L290 521L293.241 512.241L302 509L293.241 505.759L290 497L286.759 505.759L278 509Z" fill="#EBA029"/>
<path d="M241 618L246.839 620.161L249 626L251.161 620.161L257 618L251.161 615.839L249 610L246.839 615.839L241 618Z" fill="#EBA029"/>
</g>
<g filter="url(#filter6_i_4046_1932)">
<rect width="704" height="704" rx="16" fill="black" fill-opacity="0.1"/>
</g>
<path d="M307.391 672.797L302.086 683.602C302.003 683.768 301.878 683.901 301.711 684C301.549 684.104 301.37 684.156 301.172 684.156C300.979 684.156 300.799 684.104 300.633 684C300.471 683.901 300.346 683.768 300.258 683.602L294.961 672.797H297.234L301.172 680.867L305.125 672.797H307.391ZM320.062 679.469C320.062 680.151 319.945 680.779 319.711 681.352C319.477 681.924 319.151 682.419 318.734 682.836C318.318 683.253 317.823 683.578 317.25 683.812C316.682 684.042 316.062 684.156 315.391 684.156H312.641C311.969 684.156 311.346 684.042 310.773 683.812C310.201 683.578 309.706 683.253 309.289 682.836C308.872 682.419 308.544 681.924 308.305 681.352C308.07 680.779 307.953 680.151 307.953 679.469V677.328C307.953 676.651 308.07 676.026 308.305 675.453C308.544 674.875 308.872 674.38 309.289 673.969C309.706 673.552 310.201 673.227 310.773 672.992C311.346 672.758 311.969 672.641 312.641 672.641H315.391C316.062 672.641 316.682 672.758 317.25 672.992C317.823 673.227 318.318 673.552 318.734 673.969C319.151 674.38 319.477 674.875 319.711 675.453C319.945 676.026 320.062 676.651 320.062 677.328V679.469ZM318.031 677.328C318.031 676.927 317.966 676.565 317.836 676.242C317.711 675.914 317.531 675.635 317.297 675.406C317.068 675.172 316.789 674.992 316.461 674.867C316.138 674.737 315.781 674.672 315.391 674.672H312.641C312.245 674.672 311.883 674.737 311.555 674.867C311.232 674.992 310.953 675.172 310.719 675.406C310.484 675.635 310.302 675.914 310.172 676.242C310.047 676.565 309.984 676.927 309.984 677.328V679.469C309.984 679.87 310.047 680.234 310.172 680.562C310.302 680.885 310.484 681.164 310.719 681.398C310.953 681.628 311.232 681.807 311.555 681.938C311.883 682.062 312.245 682.125 312.641 682.125H315.375C315.771 682.125 316.13 682.062 316.453 681.938C316.781 681.807 317.062 681.628 317.297 681.398C317.531 681.164 317.711 680.885 317.836 680.562C317.966 680.234 318.031 679.87 318.031 679.469V677.328ZM332.102 684H324.773C324.586 684 324.383 683.979 324.164 683.938C323.951 683.891 323.737 683.82 323.523 683.727C323.315 683.633 323.115 683.513 322.922 683.367C322.729 683.216 322.557 683.036 322.406 682.828C322.26 682.615 322.143 682.37 322.055 682.094C321.966 681.812 321.922 681.497 321.922 681.148V675.648C321.922 675.461 321.943 675.26 321.984 675.047C322.031 674.828 322.102 674.615 322.195 674.406C322.289 674.193 322.411 673.99 322.562 673.797C322.714 673.604 322.893 673.435 323.102 673.289C323.315 673.138 323.56 673.018 323.836 672.93C324.112 672.841 324.424 672.797 324.773 672.797H332.102V674.828H324.773C324.508 674.828 324.305 674.898 324.164 675.039C324.023 675.18 323.953 675.388 323.953 675.664V681.148C323.953 681.409 324.023 681.612 324.164 681.758C324.31 681.898 324.513 681.969 324.773 681.969H332.102V684ZM345.016 684H342.984V681.25H335.844V684H333.812V678.398C333.812 677.581 333.953 676.828 334.234 676.141C334.516 675.453 334.906 674.862 335.406 674.367C335.906 673.872 336.497 673.487 337.18 673.211C337.862 672.935 338.607 672.797 339.414 672.797H343.992C344.133 672.797 344.266 672.823 344.391 672.875C344.516 672.927 344.625 673 344.719 673.094C344.812 673.188 344.885 673.297 344.938 673.422C344.99 673.547 345.016 673.68 345.016 673.82V684ZM335.844 679.219H342.984V674.828H339.414C339.352 674.828 339.219 674.839 339.016 674.859C338.818 674.875 338.586 674.919 338.32 674.992C338.06 675.065 337.784 675.177 337.492 675.328C337.201 675.479 336.932 675.688 336.688 675.953C336.443 676.219 336.24 676.552 336.078 676.953C335.922 677.349 335.844 677.831 335.844 678.398V679.219ZM358.594 672.797L353.289 683.602C353.206 683.768 353.081 683.901 352.914 684C352.753 684.104 352.573 684.156 352.375 684.156C352.182 684.156 352.003 684.104 351.836 684C351.674 683.901 351.549 683.768 351.461 683.602L346.164 672.797H348.438L352.375 680.867L356.328 672.797H358.594ZM368.953 679.422H362.539V677.375H368.953V679.422ZM369.867 684H362.539C362.258 684 361.951 683.951 361.617 683.852C361.284 683.753 360.974 683.591 360.688 683.367C360.406 683.138 360.169 682.844 359.977 682.484C359.789 682.12 359.695 681.674 359.695 681.148V673.82C359.695 673.68 359.721 673.547 359.773 673.422C359.826 673.297 359.896 673.188 359.984 673.094C360.078 673 360.188 672.927 360.312 672.875C360.438 672.823 360.573 672.797 360.719 672.797H369.867V674.828H361.727V681.148C361.727 681.414 361.797 681.617 361.938 681.758C362.078 681.898 362.284 681.969 362.555 681.969H369.867V684ZM383.031 676.562C383.031 677.026 382.974 677.44 382.859 677.805C382.745 678.169 382.589 678.492 382.391 678.773C382.198 679.049 381.974 679.286 381.719 679.484C381.464 679.682 381.195 679.846 380.914 679.977C380.638 680.102 380.357 680.193 380.07 680.25C379.789 680.307 379.523 680.336 379.273 680.336L383.516 684H380.375L376.141 680.336H374.68V678.305H379.273C379.529 678.284 379.76 678.232 379.969 678.148C380.182 678.06 380.365 677.943 380.516 677.797C380.672 677.651 380.792 677.477 380.875 677.273C380.958 677.065 381 676.828 381 676.562V675.281C381 675.167 380.984 675.081 380.953 675.023C380.927 674.961 380.891 674.917 380.844 674.891C380.802 674.859 380.755 674.841 380.703 674.836C380.656 674.831 380.612 674.828 380.57 674.828H373.867V684H371.836V673.82C371.836 673.68 371.862 673.547 371.914 673.422C371.966 673.297 372.036 673.188 372.125 673.094C372.219 673 372.328 672.927 372.453 672.875C372.578 672.823 372.714 672.797 372.859 672.797H380.57C381.023 672.797 381.406 672.88 381.719 673.047C382.031 673.208 382.284 673.414 382.477 673.664C382.674 673.909 382.815 674.174 382.898 674.461C382.987 674.747 383.031 675.016 383.031 675.266V676.562ZM395.836 680.703C395.836 681.104 395.784 681.466 395.68 681.789C395.581 682.107 395.448 682.388 395.281 682.633C395.115 682.878 394.919 683.086 394.695 683.258C394.471 683.43 394.24 683.57 394 683.68C393.76 683.789 393.516 683.87 393.266 683.922C393.021 683.974 392.789 684 392.57 684H384.734V681.969H392.57C392.961 681.969 393.263 681.854 393.477 681.625C393.695 681.396 393.805 681.089 393.805 680.703C393.805 680.516 393.776 680.344 393.719 680.188C393.661 680.031 393.578 679.896 393.469 679.781C393.365 679.667 393.234 679.578 393.078 679.516C392.927 679.453 392.758 679.422 392.57 679.422H387.898C387.57 679.422 387.216 679.365 386.836 679.25C386.456 679.13 386.102 678.94 385.773 678.68C385.451 678.419 385.18 678.078 384.961 677.656C384.747 677.234 384.641 676.719 384.641 676.109C384.641 675.5 384.747 674.987 384.961 674.57C385.18 674.148 385.451 673.807 385.773 673.547C386.102 673.281 386.456 673.091 386.836 672.977C387.216 672.857 387.57 672.797 387.898 672.797H394.812V674.828H387.898C387.513 674.828 387.211 674.945 386.992 675.18C386.779 675.414 386.672 675.724 386.672 676.109C386.672 676.5 386.779 676.81 386.992 677.039C387.211 677.263 387.513 677.375 387.898 677.375H392.57H392.586C392.805 677.38 393.036 677.411 393.281 677.469C393.526 677.521 393.768 677.604 394.008 677.719C394.253 677.833 394.484 677.979 394.703 678.156C394.922 678.328 395.115 678.536 395.281 678.781C395.453 679.026 395.589 679.307 395.688 679.625C395.786 679.943 395.836 680.302 395.836 680.703ZM406.734 679.422H400.32V677.375H406.734V679.422ZM407.648 684H400.32C400.039 684 399.732 683.951 399.398 683.852C399.065 683.753 398.755 683.591 398.469 683.367C398.188 683.138 397.951 682.844 397.758 682.484C397.57 682.12 397.477 681.674 397.477 681.148V673.82C397.477 673.68 397.503 673.547 397.555 673.422C397.607 673.297 397.677 673.188 397.766 673.094C397.859 673 397.969 672.927 398.094 672.875C398.219 672.823 398.354 672.797 398.5 672.797H407.648V674.828H399.508V681.148C399.508 681.414 399.578 681.617 399.719 681.758C399.859 681.898 400.065 681.969 400.336 681.969H407.648V684Z" fill="white"/>
<g filter="url(#filter7_d_4046_1932)">
<path fill-rule="evenodd" clip-rule="evenodd" d="M413.331 390.437C428.838 399.39 477.732 405.75 477.732 405.75C477.732 405.75 447.777 366.586 432.271 357.634C418.538 349.705 396.078 358.607 396.078 358.607C396.078 358.607 399.599 382.509 413.331 390.437Z" fill="#FAA433"/>
<path fill-rule="evenodd" clip-rule="evenodd" d="M459.917 395.464L400.532 361.178C400.532 361.178 403.093 378.561 413.08 384.328C424.357 390.839 459.917 395.464 459.917 395.464ZM426.854 360.471C438.131 366.982 459.917 395.464 459.917 395.464L400.532 361.178C400.532 361.178 416.866 354.704 426.854 360.471Z" fill="#FED44A"/>
<path fill-rule="evenodd" clip-rule="evenodd" d="M411.428 379.398C419.886 384.281 446.555 387.75 446.555 387.75C446.555 387.75 430.216 366.388 421.758 361.505C414.268 357.18 402.017 362.036 402.017 362.036C402.017 362.036 403.937 375.073 411.428 379.398Z" fill="#FDF1BF"/>
<path d="M386.799 353.25L317.765 313.393C317.765 313.393 340.765 393.983 386.744 409.06C395.518 411.938 403.033 409.989 403.033 409.989L386.799 353.25Z" fill="#E83D23"/>
<path d="M386.799 353.25L317.765 313.393C317.765 313.393 399.058 293.017 435.105 325.296C441.984 331.456 444.054 338.939 444.054 338.939L386.799 353.25Z" fill="#E83D23"/>
<path fill-rule="evenodd" clip-rule="evenodd" d="M401.504 404.644C398.539 404.761 394.516 404.516 390.187 403.096C354.143 391.276 332.219 339.193 324.429 317.24L317.765 313.393C317.765 313.393 340.765 393.983 386.744 409.06C395.518 411.938 403.033 409.989 403.033 409.989L401.504 404.644Z" fill="#CF371F"/>
<path fill-rule="evenodd" clip-rule="evenodd" d="M438.661 340.287C437.279 337.661 435.055 334.3 431.661 331.261C403.402 305.955 347.336 313.01 324.429 317.24L317.765 313.393C317.765 313.393 399.058 293.017 435.105 325.296C441.984 331.456 444.054 338.939 444.054 338.939L438.661 340.287Z" fill="#CF371F"/>
<path fill-rule="evenodd" clip-rule="evenodd" d="M293.269 299.25L413.337 368.571L422.806 352.17C422.806 352.17 423.882 350.306 423.942 349.346C424.001 348.386 423.474 347.585 422.761 346.676C421.478 345.041 404.768 327.839 376.314 311.411C335.302 287.732 304.619 292.996 297.922 295.475C294.775 296.64 293.269 299.25 293.269 299.25ZM293.269 299.25L413.337 368.571L403.867 384.973C403.867 384.973 402.791 386.837 401.99 387.368C401.188 387.899 400.231 387.844 399.088 387.681C397.03 387.387 373.777 381.517 345.323 365.089C304.31 341.411 293.528 312.207 292.327 305.167C291.762 301.859 293.269 299.25 293.269 299.25Z" fill="#E83D23"/>
<path fill-rule="evenodd" clip-rule="evenodd" d="M292.705 306.876C292.705 306.876 292.705 306.876 292.705 306.877L409.894 374.536L413.337 368.571L413.337 368.571L409.894 374.535L292.705 306.876ZM296.148 300.912C295.486 301.094 294.928 301.273 294.479 301.44C293.615 301.759 292.875 302.188 292.256 302.641C292.476 300.624 293.269 299.25 293.269 299.25L296.148 300.912ZM419.363 358.134L422.807 352.169C422.807 352.169 423.883 350.306 423.942 349.346C424.001 348.386 423.474 347.585 422.761 346.676C421.479 345.041 404.768 327.839 376.314 311.411C335.302 287.732 304.62 292.996 297.922 295.475C294.775 296.64 293.269 299.25 293.269 299.25L296.148 300.912C305.343 298.384 334.612 295.286 372.871 317.375C401.325 333.803 418.035 351.005 419.318 352.64C420.031 353.549 420.558 354.35 420.498 355.31C420.439 356.27 419.363 358.134 419.363 358.134Z" fill="#CF371F"/>
<g filter="url(#filter8_d_4046_1932)">
<path fill-rule="evenodd" clip-rule="evenodd" d="M309.97 308.893L300.877 324.643C300.877 324.643 315.46 353.812 343.482 369.991C377.257 389.491 395.382 388.955 395.382 388.955L408.697 365.893L422.012 342.831C422.012 342.831 413.414 326.866 379.639 307.366C351.617 291.188 319.064 293.143 319.064 293.143L309.97 308.893Z" fill="#F7F7F7"/>
</g>
<path fill-rule="evenodd" clip-rule="evenodd" d="M418.515 348.888L421.958 342.924C421.958 342.924 413.36 326.959 379.585 307.46C351.563 291.281 319.009 293.237 319.009 293.237L315.566 299.201C315.566 299.201 348.119 297.246 376.141 313.424C409.917 332.924 418.515 348.888 418.515 348.888Z" fill="#DEDEDE"/>
<path fill-rule="evenodd" clip-rule="evenodd" d="M371.568 344.488L423.53 374.488C423.53 374.488 422.669 375.979 420.733 375.928C416.985 375.829 376.677 355.213 372.736 351.827C369.042 348.653 371.568 344.488 371.568 344.488ZM378.508 341.83C373.912 340.218 371.568 344.488 371.568 344.488L423.53 374.488C423.53 374.488 424.39 372.997 423.378 371.346C421.418 368.15 383.411 343.55 378.508 341.83Z" fill="#E83D23"/>
<path fill-rule="evenodd" clip-rule="evenodd" d="M417.022 374.707C417.022 374.707 417.022 374.707 417.022 374.707L370.734 347.983C370.734 347.983 370.734 347.983 370.734 347.983L417.022 374.707ZM370.928 346.107C371.328 345.716 371.837 345.312 372.456 345.001L371.568 344.488C371.568 344.488 371.178 345.132 370.928 346.107ZM418.744 371.725C409.377 364.483 380.979 346.283 376.786 344.812C375.001 344.186 373.556 344.447 372.456 345.001L371.568 344.488C371.568 344.488 373.912 340.218 378.508 341.83C383.411 343.55 421.418 368.15 423.378 371.346C424.39 372.997 423.529 374.488 423.529 374.488L418.744 371.725ZM418.744 371.725C420.331 372.952 421.372 373.865 421.656 374.328C421.944 374.798 422.081 375.254 422.128 375.667C423.089 375.252 423.529 374.488 423.529 374.488L418.744 371.725Z" fill="#CF371F"/>
<ellipse cx="345.445" cy="328.877" rx="20.6609" ry="20.5714" transform="rotate(-60 345.445 328.877)" fill="#DEDEDE"/>
<ellipse cx="343.686" cy="329.353" rx="20.6609" ry="20.5714" transform="rotate(-60 343.686 329.353)" fill="#E83D23"/>
<ellipse cx="343.686" cy="329.353" rx="17.2174" ry="17.1429" transform="rotate(-60 343.686 329.353)" fill="#CF371F"/>
<ellipse cx="343.686" cy="329.353" rx="15.4957" ry="15.4286" transform="rotate(-60 343.686 329.353)" fill="#5FD0F8"/>
<path fill-rule="evenodd" clip-rule="evenodd" d="M352.44 338.312C356.719 330.901 354.206 321.439 346.826 317.178C343.894 315.486 340.635 314.869 337.503 315.205C341.87 313.25 347.07 313.343 351.517 315.91C358.897 320.171 361.41 329.633 357.131 337.044C354.552 341.511 350.095 344.214 345.344 344.723C348.223 343.435 350.74 341.257 352.44 338.312Z" fill="#56BBE0"/>
<path fill-rule="evenodd" clip-rule="evenodd" d="M334.209 345.728C325.608 340.245 322.631 329.037 327.362 319.95C327.212 320.186 327.066 320.425 326.925 320.669C321.933 329.316 324.865 340.355 333.474 345.326C333.717 345.466 333.962 345.6 334.209 345.728Z" fill="white" fill-opacity="0.25"/>
<path fill-rule="evenodd" clip-rule="evenodd" d="M353.136 312.984C361.737 318.468 364.714 329.675 359.983 338.762C360.134 338.527 360.28 338.287 360.42 338.043C365.413 329.396 362.48 318.357 353.871 313.387C353.628 313.246 353.383 313.112 353.136 312.984Z" fill="black" fill-opacity="0.1"/>
<path d="M336.04 338.319C332.893 339.484 330.108 333.84 330.398 330.091C330.745 325.616 334.493 318.712 338.221 321.685C340.932 323.846 338.449 327.781 338.01 329.764C337.572 331.747 339.739 336.949 336.04 338.319Z" fill="white" fill-opacity="0.25"/>
<ellipse cx="333.658" cy="333.007" rx="1.2913" ry="0.857143" transform="rotate(-60 333.658 333.007)" fill="white"/>
<ellipse cx="2.58217" cy="1.71458" rx="2.58217" ry="1.71458" transform="matrix(0.320019 -0.947411 0.947947 0.318428 331.101 330.039)" fill="white"/>
</g>
</g>
<defs>
<filter id="filter0_d_4046_1932" x="-16" y="166" width="736" height="551.954" filterUnits="userSpaceOnUse" color-interpolation-filters="sRGB">
<feFlood flood-opacity="0" result="BackgroundImageFix"/>
<feColorMatrix in="SourceAlpha" type="matrix" values="0 0 0 0 0 0 0 0 0 0 0 0 0 0 0 0 0 0 127 0" result="hardAlpha"/>
<feOffset dy="-4"/>
<feGaussianBlur stdDeviation="8"/>
<feComposite in2="hardAlpha" operator="out"/>
<feColorMatrix type="matrix" values="0 0 0 0 0 0 0 0 0 0 0 0 0 0 0 0 0 0 0.25 0"/>
<feBlend mode="normal" in2="BackgroundImageFix" result="effect1_dropShadow_4046_1932"/>
<feBlend mode="normal" in="SourceGraphic" in2="effect1_dropShadow_4046_1932" result="shape"/>
</filter>
<filter id="filter1_d_4046_1932" x="-16" y="238.412" width="736" height="479.822" filterUnits="userSpaceOnUse" color-interpolation-filters="sRGB">
<feFlood flood-opacity="0" result="BackgroundImageFix"/>
<feColorMatrix in="SourceAlpha" type="matrix" values="0 0 0 0 0 0 0 0 0 0 0 0 0 0 0 0 0 0 127 0" result="hardAlpha"/>
<feOffset dy="-4"/>
<feGaussianBlur stdDeviation="8"/>
<feComposite in2="hardAlpha" operator="out"/>
<feColorMatrix type="matrix" values="0 0 0 0 0 0 0 0 0 0 0 0 0 0 0 0 0 0 0.25 0"/>
<feBlend mode="normal" in2="BackgroundImageFix" result="effect1_dropShadow_4046_1932"/>
<feBlend mode="normal" in="SourceGraphic" in2="effect1_dropShadow_4046_1932" result="shape"/>
</filter>
<filter id="filter2_d_4046_1932" x="-16" y="386.251" width="736" height="332.178" filterUnits="userSpaceOnUse" color-interpolation-filters="sRGB">
<feFlood flood-opacity="0" result="BackgroundImageFix"/>
<feColorMatrix in="SourceAlpha" type="matrix" values="0 0 0 0 0 0 0 0 0 0 0 0 0 0 0 0 0 0 127 0" result="hardAlpha"/>
<feOffset dy="-4"/>
<feGaussianBlur stdDeviation="8"/>
<feComposite in2="hardAlpha" operator="out"/>
<feColorMatrix type="matrix" values="0 0 0 0 0 0 0 0 0 0 0 0 0 0 0 0 0 0 0.25 0"/>
<feBlend mode="normal" in2="BackgroundImageFix" result="effect1_dropShadow_4046_1932"/>
<feBlend mode="normal" in="SourceGraphic" in2="effect1_dropShadow_4046_1932" result="shape"/>
</filter>
<filter id="filter3_d_4046_1932" x="-16" y="-12" width="736" height="511.111" filterUnits="userSpaceOnUse" color-interpolation-filters="sRGB">
<feFlood flood-opacity="0" result="BackgroundImageFix"/>
<feColorMatrix in="SourceAlpha" type="matrix" values="0 0 0 0 0 0 0 0 0 0 0 0 0 0 0 0 0 0 127 0" result="hardAlpha"/>
<feOffset dy="4"/>
<feGaussianBlur stdDeviation="8"/>
<feComposite in2="hardAlpha" operator="out"/>
<feColorMatrix type="matrix" values="0 0 0 0 0 0 0 0 0 0 0 0 0 0 0 0 0 0 0.25 0"/>
<feBlend mode="normal" in2="BackgroundImageFix" result="effect1_dropShadow_4046_1932"/>
<feBlend mode="normal" in="SourceGraphic" in2="effect1_dropShadow_4046_1932" result="shape"/>
</filter>
<filter id="filter4_d_4046_1932" x="-16" y="-12" width="736" height="384" filterUnits="userSpaceOnUse" color-interpolation-filters="sRGB">
<feFlood flood-opacity="0" result="BackgroundImageFix"/>
<feColorMatrix in="SourceAlpha" type="matrix" values="0 0 0 0 0 0 0 0 0 0 0 0 0 0 0 0 0 0 127 0" result="hardAlpha"/>
<feOffset dy="4"/>
<feGaussianBlur stdDeviation="8"/>
<feComposite in2="hardAlpha" operator="out"/>
<feColorMatrix type="matrix" values="0 0 0 0 0 0 0 0 0 0 0 0 0 0 0 0 0 0 0.25 0"/>
<feBlend mode="normal" in2="BackgroundImageFix" result="effect1_dropShadow_4046_1932"/>
<feBlend mode="normal" in="SourceGraphic" in2="effect1_dropShadow_4046_1932" result="shape"/>
</filter>
<filter id="filter5_d_4046_1932" x="-16" y="-12" width="736" height="214.844" filterUnits="userSpaceOnUse" color-interpolation-filters="sRGB">
<feFlood flood-opacity="0" result="BackgroundImageFix"/>
<feColorMatrix in="SourceAlpha" type="matrix" values="0 0 0 0 0 0 0 0 0 0 0 0 0 0 0 0 0 0 127 0" result="hardAlpha"/>
<feOffset dy="4"/>
<feGaussianBlur stdDeviation="8"/>
<feComposite in2="hardAlpha" operator="out"/>
<feColorMatrix type="matrix" values="0 0 0 0 0 0 0 0 0 0 0 0 0 0 0 0 0 0 0.25 0"/>
<feBlend mode="normal" in2="BackgroundImageFix" result="effect1_dropShadow_4046_1932"/>
<feBlend mode="normal" in="SourceGraphic" in2="effect1_dropShadow_4046_1932" result="shape"/>
</filter>
<filter id="filter6_i_4046_1932" x="0" y="0" width="704" height="704" filterUnits="userSpaceOnUse" color-interpolation-filters="sRGB">
<feFlood flood-opacity="0" result="BackgroundImageFix"/>
<feBlend mode="normal" in="SourceGraphic" in2="BackgroundImageFix" result="shape"/>
<feColorMatrix in="SourceAlpha" type="matrix" values="0 0 0 0 0 0 0 0 0 0 0 0 0 0 0 0 0 0 127 0" result="hardAlpha"/>
<feOffset/>
<feGaussianBlur stdDeviation="8"/>
<feComposite in2="hardAlpha" operator="arithmetic" k2="-1" k3="1"/>
<feColorMatrix type="matrix" values="0 0 0 0 0 0 0 0 0 0 0 0 0 0 0 0 0 0 0.25 0"/>
<feBlend mode="normal" in2="shape" result="effect1_innerShadow_4046_1932"/>
</filter>
<filter id="filter7_d_4046_1932" x="252.519" y="244.382" width="265.963" height="224.237" filterUnits="userSpaceOnUse" color-interpolation-filters="sRGB">
<feFlood flood-opacity="0" result="BackgroundImageFix"/>
<feColorMatrix in="SourceAlpha" type="matrix" values="0 0 0 0 0 0 0 0 0 0 0 0 0 0 0 0 0 0 127 0" result="hardAlpha"/>
<feOffset dy="4"/>
<feGaussianBlur stdDeviation="8"/>
<feComposite in2="hardAlpha" operator="out"/>
<feColorMatrix type="matrix" values="0 0 0 0 0 0 0 0 0 0 0 0 0 0 0 0 0 0 0.25 0"/>
<feBlend mode="normal" in2="BackgroundImageFix" result="effect1_dropShadow_4046_1932"/>
<feBlend mode="normal" in="SourceGraphic" in2="effect1_dropShadow_4046_1932" result="shape"/>
</filter>
<filter id="filter8_d_4046_1932" x="296.877" y="293.069" width="129.135" height="103.888" filterUnits="userSpaceOnUse" color-interpolation-filters="sRGB">
<feFlood flood-opacity="0" result="BackgroundImageFix"/>
<feColorMatrix in="SourceAlpha" type="matrix" values="0 0 0 0 0 0 0 0 0 0 0 0 0 0 0 0 0 0 127 0" result="hardAlpha"/>
<feOffset dy="4"/>
<feGaussianBlur stdDeviation="2"/>
<feComposite in2="hardAlpha" operator="out"/>
<feColorMatrix type="matrix" values="0 0 0 0 0 0 0 0 0 0 0 0 0 0 0 0 0 0 0.25 0"/>
<feBlend mode="normal" in2="BackgroundImageFix" result="effect1_dropShadow_4046_1932"/>
<feBlend mode="normal" in="SourceGraphic" in2="effect1_dropShadow_4046_1932" result="shape"/>
</filter>
<linearGradient id="paint0_linear_4046_1932" x1="352" y1="186" x2="352" y2="705.954" gradientUnits="userSpaceOnUse">
<stop stop-color="#1D0063" stop-opacity="0"/>
<stop offset="1" stop-color="#1D0063"/>
</linearGradient>
<linearGradient id="paint1_linear_4046_1932" x1="352" y1="258.412" x2="352" y2="706.234" gradientUnits="userSpaceOnUse">
<stop stop-color="#3100D4" stop-opacity="0"/>
<stop offset="1" stop-color="#3100D4"/>
</linearGradient>
<linearGradient id="paint2_linear_4046_1932" x1="352" y1="406.251" x2="352" y2="706.429" gradientUnits="userSpaceOnUse">
<stop stop-color="#5B56F7" stop-opacity="0"/>
<stop offset="1" stop-color="#5B56F7"/>
</linearGradient>
<linearGradient id="paint3_linear_4046_1932" x1="352" y1="0" x2="352" y2="479.111" gradientUnits="userSpaceOnUse">
<stop stop-color="#1D0063"/>
<stop offset="1" stop-color="#1D0063" stop-opacity="0"/>
</linearGradient>
<linearGradient id="paint4_linear_4046_1932" x1="352" y1="0" x2="352" y2="352" gradientUnits="userSpaceOnUse">
<stop stop-color="#3100D4"/>
<stop offset="1" stop-color="#3100D4" stop-opacity="0"/>
</linearGradient>
<linearGradient id="paint5_linear_4046_1932" x1="352" y1="0" x2="352" y2="182.844" gradientUnits="userSpaceOnUse">
<stop stop-color="#5B56F7"/>
<stop offset="1" stop-color="#5B56F7" stop-opacity="0"/>
</linearGradient>
<clipPath id="clip0_4046_1932">
<rect width="704" height="704" rx="16" fill="white"/>
</clipPath>
<clipPath id="clip1_4046_1932">
<rect width="598" height="249" fill="white" transform="translate(45 29)"/>
</clipPath>
<clipPath id="clip2_4046_1932">
<rect width="598" height="249" fill="white" transform="matrix(0 1 -1 0 689 100)"/>
</clipPath>
<clipPath id="clip3_4046_1932">
<rect width="598" height="249" fill="white" transform="matrix(0 1 1 0 53 64)"/>
</clipPath>
</defs>
</svg>
