<svg width="240" height="240" viewBox="0 0 240 240" fill="none" xmlns="http://www.w3.org/2000/svg">
<g clip-path="url(#clip0_3939_1455)">
<path d="M203.161 120.492C203.161 125.992 198.565 127.185 198.161 129.992C193.392 163.116 168.51 188.182 136.161 195.182C132.661 195.939 131.161 201.992 125.661 203.492C121.161 204.719 108.295 204.756 103.161 201.992C96.6609 198.492 95.4917 193.492 92.6609 192.498C82.5868 188.963 73.4345 183.468 65.6609 176.472C63.3983 174.435 55.2289 176.436 53.1609 173.992C47.6609 167.492 44.7859 161.492 42.1609 154.492C39.9109 148.492 43.831 144.992 42.6609 140.992C40.5731 133.854 38.6609 123.992 39.6609 107.992C39.9728 103.002 35.6609 103.492 35.6609 93.4918C35.6609 88.4918 39.2817 80.6983 43.1608 74.4918C45.6608 70.4918 54.0932 70.4918 55.6608 68.4918C62.8366 59.3368 71.1955 50.6911 82.1609 45.9917C85.6609 44.4917 85.1609 40.9011 90.1609 37.9917C95.4625 34.9068 101.386 33.9917 107.661 33.9917C113.936 33.9917 117.454 36.9917 120.661 36.9917C125.121 36.9917 129.46 37.3566 133.661 38.0583C137.862 38.76 144.96 37.0915 150.161 38.4917C163.161 41.9917 170.836 46.9917 177.661 57.4917C179.383 60.1407 180.956 65.2883 182.661 67.4917C184.631 70.0379 186.469 73.2091 188.161 75.9917C190.289 79.4917 194.661 78.9918 199.661 91.9918C202.877 100.355 203.161 111.017 203.161 120.492Z" fill="#2FADA9"/>
<path fill-rule="evenodd" clip-rule="evenodd" d="M86.2874 41.4993C86.5274 42.3355 86.8206 43.0231 87.161 43.491C88.9791 45.991 95.661 48.491 101.661 48.491C107.94 48.491 112.472 46.7436 115.544 45.5587C117.121 44.9508 118.313 44.491 119.161 44.491C121.661 44.491 123.661 45.991 124.161 47.991C124.661 49.991 123.161 51.8092 120.661 52.491C119.352 52.848 118.439 52.3242 117.516 51.7942C116.675 51.312 115.826 50.8246 114.661 50.991C112.528 51.2957 111.496 53.2585 110.431 55.2841C109.566 56.9303 108.679 58.6181 107.161 59.491C105.661 60.3538 101.661 60.241 100.661 59.991C99.7982 59.7753 99.1215 58.536 98.39 57.1964C97.4259 55.4308 96.3667 53.491 94.661 53.491C92.6939 53.491 91.936 55.6329 91.1386 57.8866C90.3144 60.2158 89.448 62.6643 87.161 62.991C83.6961 63.486 79.161 64.991 75.661 66.991C69.3846 70.5775 65.5398 76.3757 63.6181 79.274C62.7841 80.5316 62.3123 81.2432 62.161 80.991C61.7972 80.3847 57.6609 77.9913 56.161 79.491C53.9271 81.7246 55.3835 84.5763 56.406 86.5784C56.8188 87.3866 57.1609 88.0565 57.1609 88.4913C57.1609 90.9915 56.7453 92.3858 54.6609 94.9913C54.0725 95.7266 52.9458 95.7313 51.6125 95.7369C49.5464 95.7455 46.9842 95.7562 45.1609 98.4913C44.3136 99.7621 45.4286 101.348 46.433 102.777C47.0092 103.596 47.5491 104.364 47.661 104.991C52.6609 132.991 57.7324 143.987 67.1609 156.991C72.4599 164.3 79.6609 169.9 88.1609 172.991C93.6609 174.991 102.55 174.491 105.661 170.991C108.571 167.717 107.839 163.025 107.298 159.553C106.929 157.193 106.649 155.396 107.661 154.991C111.161 153.591 115.661 165.658 111.661 170.991C107.536 176.491 98.6609 176.991 96.6609 176.991C95.5429 176.991 112.17 183.009 126.661 182.491C137.528 182.103 145.383 175.689 148.588 173.073C149.512 172.318 150.049 171.879 150.161 171.991C150.284 172.115 150.237 172.703 150.169 173.562C149.96 176.183 149.551 181.325 153.161 183.491C154.828 184.491 161.015 183.994 166.161 179.991C175.161 172.991 174.161 166.991 172.661 165.991C171.727 165.368 169.435 166.058 167.718 166.574C166.678 166.886 165.849 167.135 165.661 166.991C164.351 165.991 163.173 158.444 163.661 156.491C164.286 153.991 175.921 149.581 180.161 147.991C180.502 147.863 180.85 147.733 181.204 147.601C185.778 145.89 191.264 143.839 195.637 141.417C187.387 168.806 164.674 189.011 136.161 195.181C134.583 195.523 133.411 196.941 132.096 198.533C130.495 200.472 128.681 202.668 125.661 203.491C121.161 204.719 108.295 204.756 103.161 201.991C99.4247 199.979 97.4498 197.472 95.9081 195.515C94.7678 194.067 93.8645 192.92 92.6609 192.498C82.5868 188.962 73.4345 183.468 65.6609 176.471C64.5829 175.501 62.1639 175.447 59.7028 175.392C56.9986 175.332 54.2436 175.271 53.1609 173.991C47.6609 167.491 44.7859 161.491 42.1609 154.491C40.8845 151.088 41.5937 148.488 42.2329 146.146C42.7204 144.359 43.1672 142.722 42.6609 140.991C40.5731 133.854 38.6609 123.991 39.6609 107.991C39.7936 105.867 39.0888 104.736 38.2353 103.367C37.0834 101.518 35.6609 99.2352 35.6609 93.4913C35.6609 88.4913 39.2817 80.6978 43.1608 74.4913C44.6414 72.1224 48.2027 71.1564 51.1865 70.3471C53.2409 69.7898 55.0216 69.3069 55.6608 68.4913C62.8366 59.3363 71.1955 50.6907 82.1609 45.9912C83.8191 45.2806 84.5795 44.1006 85.4523 42.7462C85.7118 42.3434 85.9813 41.9252 86.2874 41.4993Z" fill="url(#paint0_linear_3939_1455)"/>
<path d="M81.1607 151.492C76.5344 153.342 77.9831 159.992 77.6607 159.992C77.1606 159.992 74.7486 157.288 75.1608 153.992C75.5729 150.695 78.1608 147.992 82.1607 146.992C84.1607 146.491 88.1607 146.991 89.6607 146.491C91.1607 145.991 92.6607 142.992 94.6607 142.992C96.1607 142.992 97.3114 145.071 97.6607 146.992C98.1294 149.569 96.1607 152.842 94.6607 152.991C92.9836 153.159 85.7869 149.641 81.1607 151.492Z" fill="#0E5C70"/>
<path fill-rule="evenodd" clip-rule="evenodd" d="M132.169 42.342C133.247 43.3559 134.52 44.5524 135.661 46.4919C138.181 50.772 138.344 51.1862 139.259 53.5174C139.585 54.3465 140.006 55.4179 140.661 56.9919C142.921 62.4142 152.161 68.4919 156.661 64.9919C158.401 63.639 156.003 59.834 154.161 57.9919C147.161 50.9914 144.439 42.9919 146.661 38.9919C146.947 38.4765 147.838 38.2412 149.155 38.262C146.39 37.7344 143.21 37.9157 140.252 38.0844C137.775 38.2256 135.454 38.358 133.661 38.0584C132.345 37.8386 131.015 37.6519 129.673 37.499C129.665 37.6601 129.661 37.8244 129.661 37.992C129.661 39.9833 130.746 41.0036 132.169 42.342ZM186.654 73.4997C185.393 71.4239 184.06 69.3003 182.661 67.4918C181.768 66.3378 180.911 64.3763 180.05 62.3891C179.035 68.4229 171.227 67.9251 165.161 66.9919C164.611 66.9073 163.999 66.6736 163.376 66.4361C162.23 65.9985 161.049 65.5478 160.161 65.9919C158.791 66.677 160.161 70.6586 163.661 72.9916C168.909 76.4898 181.648 78.4896 186.654 73.4997Z" fill="#328C95"/>
<path d="M152.661 100.492C151.892 88.9606 159.327 80.9364 153.161 82.9915C150.161 83.9914 145.661 89.4917 145.661 96.9917C145.661 105.506 149.661 112.992 153.161 115.992C154.661 117.278 161.877 115.235 163.161 115.992C164.008 116.491 163.364 118.026 166.161 118.492C168.957 118.958 172.661 117.492 173.161 114.992C173.661 112.492 172.908 109.112 170.161 107.492C168.661 106.607 168.161 111.991 161.661 111.991C156.142 111.991 153.094 106.992 152.661 100.492Z" fill="#368A94"/>
<path d="M125.661 71.4919C123.006 70.4965 118.66 72.9917 117.661 73.9919C117.161 74.492 122.792 82.492 115.161 87.4919C100.661 96.9922 85.1608 91.9922 81.1608 88.9922C74.8645 84.27 74.1608 74.492 70.1608 75.9922C67.9158 76.8342 66.8044 80.0923 67.1607 81.9922C68.6608 89.9919 73.0963 92.9367 80.6607 97.4919C89.3733 102.739 97.408 103.214 106.661 98.9919C111.71 96.6877 113.166 92.4125 118.161 89.9917C120.939 88.6452 121.399 88.8728 124.161 87.4919C127.161 85.9917 128.862 83.4917 129.161 81.4917C129.46 79.4917 129.661 72.9917 125.661 71.4919Z" fill="#0C6575"/>
<path d="M166.129 179.4C161.169 182.887 155.538 183.45 154.161 181.492C152.783 179.533 156.181 175.794 161.141 172.307C166.101 168.819 170.783 167.033 172.161 168.992C173.538 170.95 171.089 175.912 166.129 179.4Z" fill="#004463"/>
<path d="M200.661 103.992C201.68 113.281 201.161 121.717 198.661 121.992C196.661 122.211 195.541 114.894 193.661 105.492C192.161 97.9917 192.161 87.9917 196.161 88.4917C197.047 88.6025 197.661 89.9917 198.161 92.4917C198.713 95.2544 200.129 99.1393 200.661 103.992Z" fill="#004463"/>
<path d="M176.161 62.9918C173.904 66.0019 164.661 60.4915 159.161 55.9912C152.357 50.4241 150.161 42.9915 152.161 41.9916C154.161 40.9918 162.132 43.3877 167.662 48.492C174.161 54.4917 177.661 60.9913 176.161 62.9918Z" fill="#004463"/>
<path d="M114.161 77.9919C114.619 83.5212 108.161 85.6222 97.6608 86.9918C85.1609 88.6222 81.361 84.9919 80.1609 80.9919C79.2874 78.0807 80.853 74.6001 84.1608 74.1305C88.6608 73.4918 92.676 70.9048 97.6607 70.4917C107.661 69.663 113.841 74.1305 114.161 77.9919Z" fill="#004463"/>
<path d="M52.6608 159.492C55.5701 165.466 56.6608 170.492 55.6608 170.992C54.0484 171.798 51.1608 168.992 47.1608 161.492C44.0339 155.629 42.6609 150.492 44.6608 149.492C47.1608 148.242 49.7515 153.518 52.6608 159.492Z" fill="#004463"/>
<path d="M85.6608 153.492C82.7018 152.752 79.8118 154.991 79.1608 156.491C77.1608 161.1 83.1877 166.676 88.1609 169.991C91.1608 171.991 100.049 173.571 102.661 168.991C104.634 165.532 100.956 160.588 97.6608 158.492C92.1608 154.992 89.6608 154.492 85.6608 153.492Z" fill="#004463"/>
<path d="M110.161 37.4917C102.196 37.4917 95.6155 38.2831 92.6609 39.4917C80.1609 44.6048 110.161 46.4917 116.161 42.4917C119.41 40.3255 117.544 37.4917 110.161 37.4917Z" fill="#004463"/>
<path d="M169.161 101.492C169.161 105.358 166.396 108.211 163.161 107.492C158.661 106.492 156.661 99.4917 156.661 94.9915C156.661 89.2534 160.926 87.2729 164.161 87.9918C168.661 88.9919 169.161 97.6258 169.161 101.492Z" fill="#004463"/>
<path d="M60.2897 120.529C62.7781 124.504 62.9538 128.869 61.1608 129.992C59.1608 131.244 56.2852 128.569 53.7968 124.595C51.3085 120.62 50.6608 116.431 52.1608 115.492C53.9538 114.369 57.4487 115.992 60.2897 120.529Z" fill="#004463"/>
<path d="M179.661 100.992C173.661 109.491 178.827 115.992 177.161 120.992C176.161 123.992 173.161 124.992 168.661 127.492C163.684 130.256 156.777 135.969 158.161 141.492C159.661 147.479 169.848 145.583 177.161 143.992C184.624 142.368 192.661 137.992 193.661 132.992C195.161 125.492 190.161 122.991 188.661 114.991C187.873 110.788 188.161 108.491 188.161 105.492C188.161 96.9915 182.544 96.9068 179.661 100.992Z" fill="#4DC1BC"/>
<path d="M136.661 93.9917C134.661 93.9917 133.876 91.1153 133.161 88.4914C130.161 77.4912 126.661 64.5816 126.661 58.9917C126.661 55.4917 130.45 52.3864 133.661 53.9918C141.661 57.9918 139.161 64.9918 149.161 71.4916C154.302 74.8331 158.113 72.4834 164.161 73.4918C167.161 73.9921 169.003 79.3679 166.161 80.9918C160.036 84.4918 156.161 75.9129 147.661 79.4918C137.661 83.7023 142.187 93.9917 136.661 93.9917Z" fill="#4DC1BC"/>
<g filter="url(#filter0_d_3939_1455)">
<path fill-rule="evenodd" clip-rule="evenodd" d="M165.534 182.58C185.716 194.988 200.648 200.279 205.024 195.333C213.18 186.115 181.571 144.823 134.422 103.105C87.2727 61.3875 42.4387 35.0416 34.2822 44.2601C30.6562 48.3581 34.889 58.7947 44.8522 72.7894C45.957 72.047 47.4227 71.4616 49.1846 70.9034C43.5856 62.0273 41.4934 55.5487 43.9292 52.7958C50.7555 45.0807 89.8397 68.9879 131.661 105.991C173.482 142.995 201.661 179.695 195.377 186.797C192.291 190.285 182.617 187.492 169.078 179.967C167.855 180.913 166.649 181.803 165.534 182.58Z" fill="#FBF76D"/>
</g>
<g filter="url(#filter1_d_3939_1455)">
<path fill-rule="evenodd" clip-rule="evenodd" d="M136.31 233.025C148.442 231.243 150.849 179.212 141.685 116.81C132.521 54.4078 115.257 5.26529 103.124 7.04695C97.6358 7.85297 94.1377 18.943 92.8008 36.6249C94.5603 35.8618 96.3153 35.355 97.8459 34.99C99.2536 26.0051 101.656 20.6131 105.044 20.1157C115.309 18.6083 129.057 61.3073 137.161 116.492C145.265 171.676 144.54 218.992 134.39 219.956C130.49 220.327 126.024 214.498 121.539 204.128C119.556 204.278 118.084 204.324 116.662 204.3C123.415 222.901 130.459 233.884 136.31 233.025Z" fill="#FBF76D"/>
</g>
</g>
<defs>
<filter id="filter0_d_3939_1455" x="29" y="42.4214" width="181.306" height="162.75" filterUnits="userSpaceOnUse" color-interpolation-filters="sRGB">
<feFlood flood-opacity="0" result="BackgroundImageFix"/>
<feColorMatrix in="SourceAlpha" type="matrix" values="0 0 0 0 0 0 0 0 0 0 0 0 0 0 0 0 0 0 127 0" result="hardAlpha"/>
<feOffset dy="4"/>
<feGaussianBlur stdDeviation="2"/>
<feComposite in2="hardAlpha" operator="out"/>
<feColorMatrix type="matrix" values="0 0 0 0 0 0 0 0 0 0 0 0 0 0 0 0 0 0 0.25 0"/>
<feBlend mode="normal" in2="BackgroundImageFix" result="effect1_dropShadow_3939_1455"/>
<feBlend mode="normal" in="SourceGraphic" in2="effect1_dropShadow_3939_1455" result="shape"/>
</filter>
<filter id="filter1_d_3939_1455" x="88.8008" y="7" width="62.4477" height="234.072" filterUnits="userSpaceOnUse" color-interpolation-filters="sRGB">
<feFlood flood-opacity="0" result="BackgroundImageFix"/>
<feColorMatrix in="SourceAlpha" type="matrix" values="0 0 0 0 0 0 0 0 0 0 0 0 0 0 0 0 0 0 127 0" result="hardAlpha"/>
<feOffset dy="4"/>
<feGaussianBlur stdDeviation="2"/>
<feComposite in2="hardAlpha" operator="out"/>
<feColorMatrix type="matrix" values="0 0 0 0 0 0 0 0 0 0 0 0 0 0 0 0 0 0 0.25 0"/>
<feBlend mode="normal" in2="BackgroundImageFix" result="effect1_dropShadow_3939_1455"/>
<feBlend mode="normal" in="SourceGraphic" in2="effect1_dropShadow_3939_1455" result="shape"/>
</filter>
<linearGradient id="paint0_linear_3939_1455" x1="47.6609" y1="166.991" x2="184.661" y2="69.9915" gradientUnits="userSpaceOnUse">
<stop stop-color="#0E5C70"/>
<stop offset="1" stop-color="#378995"/>
</linearGradient>
<clipPath id="clip0_3939_1455">
<rect width="240" height="240" fill="white"/>
</clipPath>
</defs>
</svg>
