<svg width="199" height="392" viewBox="0 0 199 392" fill="none" xmlns="http://www.w3.org/2000/svg">
<g filter="url(#filter0_d_3690_310)">
<path fill-rule="evenodd" clip-rule="evenodd" d="M67.4286 264.797C67.4286 295.059 99.2998 372 99.2998 372C99.2998 372 131.171 295.059 131.171 264.797C131.171 237.996 99.2998 212.644 99.2998 212.644C99.2998 212.644 67.4286 237.996 67.4286 264.797Z" fill="#FAA433"/>
<path fill-rule="evenodd" clip-rule="evenodd" d="M99.2998 337.231V221.336C99.2998 221.336 76.1207 239.774 76.1207 259.265C76.1207 281.274 99.2998 337.231 99.2998 337.231ZM122.479 259.265C122.479 281.274 99.2998 337.231 99.2998 337.231V221.336C99.2998 221.336 122.479 239.774 122.479 259.265Z" fill="#FED44A"/>
<path fill-rule="evenodd" clip-rule="evenodd" d="M81.9155 252.68C81.9155 269.187 99.2998 311.155 99.2998 311.155C99.2998 311.155 116.684 269.187 116.684 252.68C116.684 238.062 99.2998 224.233 99.2998 224.233C99.2998 224.233 81.9155 238.062 81.9155 252.68Z" fill="#FDF1BF"/>
<path d="M99.2998 194.535V59.8068C99.2998 59.8068 1.2037 161.577 17.9164 241.618C21.1057 256.892 30.2692 266.245 30.2692 266.245L99.2998 194.535Z" fill="#E83D23"/>
<path d="M99.2998 194.535V59.8068C99.2998 59.8068 197.396 161.577 180.683 241.618C177.494 256.892 168.33 266.245 168.33 266.245L99.2998 194.535Z" fill="#E83D23"/>
<path fill-rule="evenodd" clip-rule="evenodd" d="M36.7718 259.49C34.1076 255.249 31.0796 249.154 29.5059 241.618C16.404 178.87 73.8611 102.767 99.2998 72.8125V59.8068C99.2998 59.8068 1.2037 161.577 17.9164 241.618C21.1057 256.892 30.2692 266.245 30.2692 266.245L36.7718 259.49Z" fill="#CF371F"/>
<path fill-rule="evenodd" clip-rule="evenodd" d="M161.828 259.49C164.492 255.249 167.52 249.154 169.094 241.618C182.196 178.87 124.739 102.767 99.2998 72.8125V59.8068C99.2998 59.8068 197.396 161.577 180.683 241.618C177.494 256.892 168.33 266.245 168.33 266.245L161.828 259.49Z" fill="#CF371F"/>
<path fill-rule="evenodd" clip-rule="evenodd" d="M99.2999 12V246.326H131.171C131.171 246.326 134.793 246.326 136.241 245.602C137.69 244.877 138.414 243.429 139.139 241.618C140.442 238.358 151.452 199.362 151.453 143.831C151.453 63.7908 117.965 23.3294 108.716 15.6218C104.37 12 99.2999 12 99.2999 12ZM99.2996 12.0001V246.326H67.4286C67.4286 246.326 63.8068 246.326 62.3581 245.602C60.9095 244.877 60.1851 243.429 59.4608 241.618C58.1569 238.358 47.1471 199.362 47.1469 143.831C47.1466 63.7909 80.6346 23.3293 89.8834 15.6218C94.2294 12.0001 99.2996 12.0001 99.2996 12.0001Z" fill="#E83D23"/>
<path fill-rule="evenodd" clip-rule="evenodd" d="M87.7105 17.6191C87.7104 17.6192 87.7104 17.6193 87.7103 17.6194V246.326H99.2998L87.7105 246.326V17.6191ZM99.2998 17.6191C98.4778 16.8043 97.7477 16.1392 97.1268 15.6218C95.9342 14.6279 94.6872 13.9068 93.5053 13.3836C96.6305 12.0001 99.2998 12.0001 99.2998 12.0001V17.6191ZM119.582 246.326H131.171C131.171 246.326 134.793 246.326 136.242 245.602C137.69 244.877 138.415 243.429 139.139 241.618C140.443 238.358 151.453 199.362 151.453 143.831C151.453 63.7908 117.965 23.3294 108.716 15.6218C104.37 12 99.3001 12 99.3001 12V17.6194C110.721 28.9413 139.863 69.1651 139.863 143.831C139.863 199.362 128.853 238.358 127.549 241.618C126.825 243.429 126.101 244.877 124.652 245.602C123.203 246.326 119.582 246.326 119.582 246.326Z" fill="#CF371F"/>
<g filter="url(#filter1_d_3690_310)">
<path fill-rule="evenodd" clip-rule="evenodd" d="M99.2998 44.5956H68.6953C68.6953 44.5956 38.4552 90.5916 38.4547 145.28C38.4542 211.195 54.4861 237.272 54.4861 237.272H99.2998H144.114C144.114 237.272 160.145 211.195 160.145 145.28C160.144 90.5916 129.904 44.5956 129.904 44.5956H99.2998Z" fill="#F7F7F7"/>
</g>
<path fill-rule="evenodd" clip-rule="evenodd" d="M132.342 237.272H143.932C143.932 237.272 159.963 211.195 159.963 145.28C159.962 90.5916 129.722 44.5956 129.722 44.5956H118.133C118.133 44.5956 148.373 90.5916 148.373 145.28C148.374 211.195 132.342 237.272 132.342 237.272Z" fill="#DEDEDE"/>
<path fill-rule="evenodd" clip-rule="evenodd" d="M89.5405 172.749C91.0577 164.66 99.2532 164.837 99.2532 164.837C99.2532 164.837 107.449 164.66 108.966 172.749C110.585 181.379 106.714 257.799 103.705 263.369C102.151 266.245 99.2532 266.245 99.2532 266.245C99.2532 266.245 96.3559 266.245 94.8016 263.369C91.7922 257.799 87.9217 181.379 89.5405 172.749Z" fill="#E83D23"/>
<path fill-rule="evenodd" clip-rule="evenodd" d="M96.3559 265.191C97.7694 266.245 99.2532 266.245 99.2532 266.245C99.2532 266.245 102.151 266.245 103.705 263.369C106.714 257.799 110.585 181.379 108.966 172.749C107.449 164.66 99.2532 164.837 99.2532 164.837C99.2532 164.837 97.986 164.81 96.3559 165.268C98.8712 165.976 102.251 167.841 103.171 172.749C104.79 181.379 100.92 257.799 97.9101 263.369C97.4681 264.187 96.9176 264.772 96.3559 265.191Z" fill="#CF371F"/>
<circle cx="100.024" cy="113.408" r="34.7686" fill="#DEDEDE"/>
<ellipse cx="97.8511" cy="111.235" rx="34.7686" ry="34.7686" fill="#E83D23"/>
<ellipse cx="97.8511" cy="111.235" rx="28.9738" ry="28.9738" fill="#CF371F"/>
<ellipse cx="97.8511" cy="111.235" rx="26.0765" ry="26.0765" fill="#5FD0F8"/>
<path fill-rule="evenodd" clip-rule="evenodd" d="M92.1588 131.62C106.56 131.62 118.235 119.945 118.235 105.543C118.235 99.821 116.392 94.5293 113.267 90.2294C119.79 94.9693 124.03 102.658 124.03 111.338C124.03 125.739 112.355 137.414 97.9536 137.414C89.2741 137.414 81.585 133.174 76.8451 126.652C81.145 129.776 86.4367 131.62 92.1588 131.62Z" fill="#56BBE0"/>
<path fill-rule="evenodd" clip-rule="evenodd" d="M66.0122 111.202C66.7659 93.9791 80.5948 80.1502 97.8181 79.3966C97.3489 79.3751 96.8769 79.3642 96.4024 79.3642C79.6005 79.3642 65.9799 92.9848 65.9799 109.787C65.9799 110.261 65.9907 110.733 66.0122 111.202Z" fill="white" fill-opacity="0.25"/>
<path fill-rule="evenodd" clip-rule="evenodd" d="M129.657 111.235C128.903 128.459 115.074 142.288 97.8511 143.041C98.3203 143.063 98.7923 143.074 99.2668 143.074C116.069 143.074 129.689 129.453 129.689 112.651C129.689 112.177 129.678 111.705 129.657 111.235Z" fill="black" fill-opacity="0.1"/>
<path d="M78.3508 107.621C74.0049 103.999 79.886 95.1527 85.5943 92.4096C92.4083 89.1351 105.622 88.7879 104.427 96.7557C103.558 102.55 95.7352 102.241 92.4756 103.275C89.2161 104.309 83.4584 111.877 78.3508 107.621Z" fill="white" fill-opacity="0.25"/>
<ellipse cx="84.0885" cy="99.6459" rx="2.17304" ry="1.44869" fill="white"/>
<ellipse cx="91.094" cy="95.3763" rx="4.34608" ry="2.89738" transform="rotate(-11.3839 91.094 95.3763)" fill="white"/>
</g>
<defs>
<filter id="filter0_d_3690_310" x="0" y="0" width="198.6" height="392" filterUnits="userSpaceOnUse" color-interpolation-filters="sRGB">
<feFlood flood-opacity="0" result="BackgroundImageFix"/>
<feColorMatrix in="SourceAlpha" type="matrix" values="0 0 0 0 0 0 0 0 0 0 0 0 0 0 0 0 0 0 127 0" result="hardAlpha"/>
<feOffset dy="4"/>
<feGaussianBlur stdDeviation="8"/>
<feComposite in2="hardAlpha" operator="out"/>
<feColorMatrix type="matrix" values="0 0 0 0 0 0 0 0 0 0 0 0 0 0 0 0 0 0 0.25 0"/>
<feBlend mode="normal" in2="BackgroundImageFix" result="effect1_dropShadow_3690_310"/>
<feBlend mode="normal" in="SourceGraphic" in2="effect1_dropShadow_3690_310" result="shape"/>
</filter>
<filter id="filter1_d_3690_310" x="34.4547" y="44.5956" width="129.69" height="200.676" filterUnits="userSpaceOnUse" color-interpolation-filters="sRGB">
<feFlood flood-opacity="0" result="BackgroundImageFix"/>
<feColorMatrix in="SourceAlpha" type="matrix" values="0 0 0 0 0 0 0 0 0 0 0 0 0 0 0 0 0 0 127 0" result="hardAlpha"/>
<feOffset dy="4"/>
<feGaussianBlur stdDeviation="2"/>
<feComposite in2="hardAlpha" operator="out"/>
<feColorMatrix type="matrix" values="0 0 0 0 0 0 0 0 0 0 0 0 0 0 0 0 0 0 0.25 0"/>
<feBlend mode="normal" in2="BackgroundImageFix" result="effect1_dropShadow_3690_310"/>
<feBlend mode="normal" in="SourceGraphic" in2="effect1_dropShadow_3690_310" result="shape"/>
</filter>
</defs>
</svg>
