<svg width="56" height="56" viewBox="0 0 56 56" fill="none" xmlns="http://www.w3.org/2000/svg">
<path d="M10 17.2C10 13.8052 10 12.1096 11.0548 11.0548C12.1096 10 13.8052 10 17.2 10C20.5948 10 22.2904 10 23.3452 11.0548C24.4 12.1096 24.4 13.8052 24.4 17.2V38.8C24.4 42.1948 24.4 43.8904 23.3452 44.9452C22.2904 46 20.5948 46 17.2 46C13.8052 46 12.1096 46 11.0548 44.9452C10 43.8904 10 42.1948 10 38.8V17.2ZM31.6 17.2C31.6 13.8052 31.6 12.1096 32.6548 11.0548C33.7096 10 35.4052 10 38.8 10C42.1948 10 43.8904 10 44.9452 11.0548C46 12.1096 46 13.8052 46 17.2V38.8C46 42.1948 46 43.8904 44.9452 44.9452C43.8904 46 42.1948 46 38.8 46C35.4052 46 33.7096 46 32.6548 44.9452C31.6 43.8904 31.6 42.1948 31.6 38.8V17.2Z" fill="white"/>
</svg>
