<svg width="56" height="56" viewBox="0 0 56 56" fill="none" xmlns="http://www.w3.org/2000/svg">
<path d="M28.6735 10C27.9197 10 27.1968 10.2994 26.6638 10.8324C26.1308 11.3654 25.8314 12.0883 25.8314 12.8421C25.8314 13.5959 26.1308 14.3188 26.6638 14.8518C27.1968 15.3848 27.9197 15.6842 28.6735 15.6842H38.1472C38.3984 15.6842 38.6394 15.784 38.8171 15.9617C38.9947 16.1394 39.0945 16.3803 39.0945 16.6316V39.3684C39.0945 39.6197 38.9947 39.8606 38.8171 40.0383C38.6394 40.216 38.3984 40.3158 38.1472 40.3158H29.6209C28.8671 40.3158 28.1442 40.6152 27.6112 41.1482C27.0782 41.6812 26.7787 42.4041 26.7787 43.1579C26.7787 43.9117 27.0782 44.6346 27.6112 45.1676C28.1442 45.7006 28.8671 46 29.6209 46H38.1472C39.906 46 41.5927 45.3013 42.8364 44.0577C44.0801 42.814 44.7787 41.1272 44.7787 39.3684V16.6316C44.7787 14.8728 44.0801 13.186 42.8364 11.9423C41.5927 10.6987 39.906 10 38.1472 10H28.6735ZM17.1914 20.6295L11.8312 25.9916C11.2989 26.5245 11 27.2468 11 28C11 28.7532 11.2989 29.4755 11.8312 30.0084L17.1895 35.3705C17.7227 35.9037 18.4458 36.2032 19.1998 36.2032C19.9538 36.2032 20.6769 35.9037 21.2101 35.3705C21.7433 34.8374 22.0428 34.1142 22.0428 33.3602C22.0428 32.6062 21.7433 31.8831 21.2101 31.3499L20.7023 30.8421H28.6735C29.4273 30.8421 30.1502 30.5427 30.6832 30.0097C31.2162 29.4767 31.5156 28.7538 31.5156 28C31.5156 27.2462 31.2162 26.5233 30.6832 25.9903C30.1502 25.4573 29.4273 25.1579 28.6735 25.1579H20.7023L21.2101 24.6501C21.474 24.3861 21.6833 24.0727 21.826 23.7278C21.9688 23.383 22.0422 23.0133 22.0421 22.6401C22.0421 22.2668 21.9685 21.8972 21.8255 21.5524C21.6826 21.2076 21.4732 20.8943 21.2092 20.6304C20.9452 20.3665 20.6318 20.1573 20.2869 20.0145C19.942 19.8717 19.5724 19.7983 19.1991 19.7984C18.8259 19.7985 18.4563 19.8721 18.1115 20.015C17.7666 20.1579 17.4534 20.3674 17.1895 20.6314L17.1914 20.6295Z" fill="white"/>
</svg>
