<svg width="48" height="51" viewBox="0 0 48 51" fill="none" xmlns="http://www.w3.org/2000/svg">
<path fill-rule="evenodd" clip-rule="evenodd" d="M28.4943 0.383989C27.5596 -1.12932e-07 26.3723 0 24.0001 0C21.628 0 20.4407 -1.12932e-07 19.5059 0.383989C18.2617 0.894824 17.2712 1.87893 16.7523 3.11991C16.5149 3.68327 16.4239 4.34262 16.386 5.30007C16.3692 5.99378 16.1757 6.67174 15.8238 7.26983C15.4719 7.86792 14.9733 8.36638 14.3751 8.71808C13.7657 9.05686 13.0806 9.23632 12.3833 9.23986C11.686 9.24339 10.9991 9.07087 10.3862 8.73829C9.53233 8.28862 8.91339 8.04104 8.30204 7.9602C6.96453 7.78459 5.61177 8.14411 4.53794 8.9606C3.73459 9.57195 3.14092 10.5926 1.95611 12.6312C0.768776 14.6699 0.177634 15.688 0.0437433 16.6859C-0.133094 18.0147 0.230686 19.3586 1.05424 20.4222C1.42813 20.9072 1.95611 21.3139 2.77209 21.8242C3.97711 22.5745 4.75014 23.8528 4.75014 25.2625C4.75014 26.6721 3.97711 27.9504 2.77462 28.6982C1.95611 29.211 1.42813 29.6177 1.05172 30.1028C0.645199 30.6281 0.346815 31.2287 0.173805 31.87C0.000795493 32.5113 -0.0434103 33.1806 0.0437433 33.8391C0.177634 34.8344 0.768776 35.855 1.95611 37.8937C3.14345 39.9324 3.73459 40.9505 4.53794 41.5643C5.60906 42.3803 6.96313 42.739 8.30204 42.5647C8.91339 42.4839 9.53233 42.2363 10.3862 41.7866C10.9994 41.4536 11.6867 41.2808 12.3845 41.2844C13.0823 41.2879 13.7679 41.4676 14.3777 41.8069C15.6054 42.5142 16.333 43.8152 16.386 45.2249C16.4239 46.1848 16.5149 46.8417 16.7523 47.405C17.2677 48.6429 18.258 49.6281 19.5059 50.1409C20.4407 50.5249 21.628 50.5249 24.0001 50.5249C26.3723 50.5249 27.5596 50.5249 28.4943 50.1409C29.7386 49.6301 30.7291 48.646 31.2479 47.405C31.4854 46.8417 31.5764 46.1848 31.6142 45.2249C31.6648 43.8152 32.3949 42.5117 33.6251 41.8069C34.2346 41.4681 34.9197 41.2886 35.617 41.2851C36.3143 41.2815 37.0012 41.4541 37.6141 41.7866C38.468 42.2363 39.0869 42.4839 39.6982 42.5647C41.0371 42.7416 42.3912 42.3803 43.4623 41.5643C44.2657 40.953 44.8594 39.9324 46.0442 37.8937C47.2315 35.855 47.8226 34.8369 47.9565 33.8391C48.0433 33.1804 47.9987 32.5111 47.8253 31.8698C47.6518 31.2285 47.353 30.6279 46.946 30.1028C46.5722 29.6177 46.0442 29.211 45.2282 28.7007C44.0232 27.9504 43.2501 26.6721 43.2501 25.2625C43.2501 23.8528 44.0232 22.5745 45.2257 21.8268C46.0442 21.3139 46.5721 20.9072 46.9486 20.4222C47.3551 19.8969 47.6535 19.2962 47.8265 18.6549C47.9995 18.0136 48.0437 17.3443 47.9565 16.6859C47.8226 15.6905 47.2315 14.6699 46.0442 12.6312C44.8568 10.5926 44.2657 9.57447 43.4623 8.9606C42.3885 8.14411 41.0357 7.78459 39.6982 7.9602C39.0869 8.04104 38.468 8.28862 37.6141 8.73829C37.0009 9.07132 36.3135 9.24408 35.6158 9.24055C34.918 9.23702 34.2324 9.0573 33.6226 8.71808C33.0249 8.36607 32.5268 7.86748 32.1754 7.2694C31.824 6.67133 31.6308 5.99354 31.6142 5.30007C31.5764 4.34009 31.4854 3.68327 31.2479 3.11991C30.9912 2.50537 30.6158 1.94744 30.1433 1.478C29.6709 1.00856 29.1105 0.636811 28.4943 0.383989ZM24.0001 32.8412C28.219 32.8412 31.637 29.4485 31.637 25.2625C31.637 21.0765 28.2164 17.6837 24.0001 17.6837C19.7813 17.6837 16.3633 21.0765 16.3633 25.2625C16.3633 29.4485 19.7838 32.8412 24.0001 32.8412Z" fill="white"/>
</svg>
