<svg width="1920" height="1013" viewBox="0 0 1920 1013" fill="none" xmlns="http://www.w3.org/2000/svg">
<g filter="url(#filter0_d_3106_770)">
<path d="M270 46.6636C203 46.6636 0 53.6636 0 53.6636V1013H1920V48.6636C1920 48.6636 1804.5 32.582 1790.5 36.6635C1769.88 42.6761 1768.15 46.0879 1749.5 55.6636C1731 65.1636 1539.5 43.6636 1512.5 51.6636C1489.74 58.407 1492.36 57.8169 1469 63.1636C1444 68.8865 1346.5 38.5963 1299 43.1636C1247 48.1636 1110 63.1636 981.5 65.1636C915.309 66.1938 823 65.6635 815 58.6636C807.381 51.9968 731.328 62.9955 706 56.6636C666 46.6636 585 53.8903 559 56.6636C506.581 62.255 522.946 66.1068 465.5 67.6636C395.483 69.5611 360 46.6636 270 46.6636Z" fill="url(#paint0_linear_3106_770)"/>
</g>
<path d="M458 87.3441C75.5 167.844 0 142.344 0 142.344V1013H1920V76.3441C1920 76.3441 1880.32 68.6077 1846 67.8441C1756.01 65.842 1710.32 93.3846 1620.5 99.3441C1472.06 109.193 1362.76 66.429 1214 66.3441C1149.29 66.3072 1051.55 75.2927 987 79.8441C909 85.3441 813.5 84.0143 763.5 74.3441C732.905 68.4269 720.579 56.61 689.5 54.344C654.402 51.785 590.875 56.8442 589 62.8441C586.812 69.8441 592.599 69.8937 595.5 75.3443C601 85.6765 505.498 77.3478 458 87.3441Z" fill="url(#paint1_linear_3106_770)"/>
<path fill-rule="evenodd" clip-rule="evenodd" d="M736.405 61.9703C757.271 67.005 778.587 72.1482 809.5 74.254C864.642 78.0104 920.013 73.05 976.766 67.9657C1013.65 64.6611 1051.13 61.3041 1089.5 60.2543C1205.9 57.07 1338.09 74.2477 1423.85 85.3919C1459.3 89.9974 1486.81 93.5724 1502 94.254C1546.17 96.2358 1570.72 89.6569 1594.64 83.2499C1612.96 78.3417 1630.9 73.5343 1657 72.754C1664.69 72.5242 1671.36 72.9935 1677.91 73.4549C1688.34 74.1886 1698.49 74.9027 1712 72.754L1712.55 72.6672C1733.71 69.3004 1796.85 59.254 1837 59.254C1866.76 59.254 1920 76.2543 1920 76.2543V76.3441C1920 76.3441 1880.32 68.6077 1846 67.8441C1795.91 66.7297 1759.55 74.7684 1721.66 83.1438C1691.47 89.8159 1660.33 96.7017 1620.5 99.3441C1539.42 104.724 1470.02 94.4068 1399.49 83.9215C1340.89 75.2102 1281.51 66.3827 1214 66.3441C1163.83 66.3155 1093.79 71.7112 1034.77 76.2583C1017.67 77.5756 1001.5 78.8218 987 79.8441C909 85.3441 813.5 84.0143 763.5 74.3441C750.203 71.7724 740.356 68.0862 730.922 64.554C718.648 59.9593 707.072 55.6252 689.5 54.344C654.402 51.785 590.875 56.8443 589 62.8441C587.605 67.309 589.453 68.9462 591.728 70.9608C593.02 72.1047 594.449 73.3703 595.5 75.3443C598.331 80.6633 574.396 81.0368 544.022 81.5109C515.394 81.9577 481.046 82.4938 458 87.3441C332.643 113.726 240.261 128.723 172.703 136.964C181.56 135.739 190.667 134.343 200 132.755C247.384 124.693 299.253 111.938 352.604 98.819C458.572 72.7612 570.384 45.2663 664.5 50.2544C694.421 51.8402 715.18 56.8491 736.405 61.9703ZM112.086 143.209C43.1626 147.853 0 142.254 0 142.254V142.344C0 142.344 23.7486 150.365 112.086 143.209Z" fill="#FFE7D1"/>
<path d="M645 207.099C645 173.733 690.547 118.548 700.247 104.099C717 79.1438 824 138.832 824 138.832C824 138.832 645 281.914 645 207.099Z" fill="url(#paint2_linear_3106_770)"/>
<path d="M57.5 68.9999C30.1388 62.7295 0 67.4999 0 67.4999V1013H1920V177.678C1920 177.678 1652.56 212.566 1485 147C1439 129 1400 96.4402 1380 94.4999C1313 87.9999 1212 98.2675 1028.5 88.1782C966.514 84.7701 847 90.9999 799.5 90.9999C765.249 90.9999 723.5 90.9999 707 98.9999C682.732 110.766 780.5 114.678 760.5 120.678C721.641 132.336 618.5 101.678 567 107.178C527.065 111.443 486.61 126.128 466.5 132.178C440.5 140 384.5 131.5 359 116.5C336.155 103.062 320.147 95.3505 293.5 90.9999C269 86.9999 229.5 86.9999 164.5 90.9999C151.379 91.8074 108.5 94.9999 86.5 88.4999C70.494 83.7709 81.5 74.5 57.5 68.9999Z" fill="url(#paint3_linear_3106_770)"/>
<path d="M52 125.209C43.8854 123.551 0 125.209 0 125.209V1013H1920V177.709C1920 177.709 1784.5 214.349 1595.5 183C1495.6 166.43 1396.56 98.5785 1392.5 101.5C1380 110.5 1340.97 112.654 1335.5 115C1318 122.5 1350.58 127.79 1362.5 131C1388.5 138 1336.5 143.577 1296 146.5C1247.5 150 1027 148.709 967.5 154.209C951 155.734 920.521 239.907 876.5 250.209C853 255.709 633 249.291 560.5 246C505.298 243.494 374.125 236.346 319 232.5C287.056 230.272 234 224 213.5 216.5C172.017 201.323 259.943 201.507 244 196C216.5 186.5 463 182.709 466 168.209C467.317 161.844 430.749 158.453 398 159.209C255.5 162.5 320 153.5 263.5 153.5C225 153.5 165.58 157.458 141.5 159.209C86.5 163.209 0 155.5 17 145.5C29.5647 138.109 73 129.5 52 125.209Z" fill="url(#paint4_linear_3106_770)"/>
<path d="M235 243.88C148.076 225.581 0 226.881 0 226.881L0.5 1014L1920 1013V532.5V133.5C1920 133.5 1820.26 140.397 1741 141.38C1644.39 142.579 1573.47 107.103 1480.5 133.381C1440.87 144.58 1426.71 159.986 1387 170.88C1330.5 186.38 1225 145.38 1171.5 141.38C1094.35 135.612 946.385 141.389 964 161.38C977.13 176.281 1020.19 174.517 1005.5 187.88C922.5 263.38 747.5 203.38 721.5 218.88C714.739 222.911 715.932 222.38 712 228.38C698.239 249.38 525.305 183.871 409.5 195.38C334.57 202.828 301.5 257.88 235 243.88Z" fill="url(#paint5_linear_3106_770)"/>
<path d="M112 464.933C61.7796 465.826 0 460.933 0 460.933V1013H1920V458.433C1920 458.433 1899.5 504.433 1825 507.433C1668.5 513.735 1598.5 477.933 1569 477.933C1533.44 477.933 1519.5 455.6 1526 454.933C1545.5 452.933 1570.5 433.237 1557.5 434.933C1549.32 436 1535 443.048 1520.5 441.933C1506 440.818 1501 425.218 1488 422.433C1480.1 420.741 1467.92 434.351 1456 422.433C1438.5 404.933 1389.5 390.433 1210.5 404.933C1154.23 409.491 1142.45 447.918 1055 450.933C943.5 454.778 1023 409.933 754.5 420.933C725.025 422.141 721.5 441.919 701.5 439.433C643 432.162 658 407.933 484 407.933C336.476 407.933 226.5 462.897 112 464.933Z" fill="url(#paint6_linear_3106_770)"/>
<path d="M432.5 873.5C417 883.389 367 1013.5 367 1013.5H1521C1521 1013.5 1463.5 884.5 1456 877C1448.5 869.5 1335 804.499 1339 786.5C1342.9 768.928 1317.88 731.499 1315.5 725.999C1313.12 720.499 1251.86 707.894 1249 706.999C1243.5 705.281 1237 676.476 1235 674.5C1231 670.547 1213.94 665.743 1211 662C1205.5 655 1191 604 1180 593C1175.26 588.264 1054 548.804 1036.5 544C1011 537 879.5 525.5 862 556.5C855.929 567.254 732.074 572.492 722 588C711.926 603.507 711.5 607 703 626.5C701.433 630.094 711.5 637 711.5 642.5C711.5 648 698 685.682 694 687.5C682.253 692.839 641.5 710.228 632.5 720C628.816 724 621 739.666 617 742C613 744.333 570.5 751.5 551 774.5C542.332 784.723 537 838.966 529 847.5C521 856.035 438 869.991 432.5 873.5Z" fill="url(#paint7_linear_3106_770)"/>
<path d="M1213.5 243.009C1200.83 262.92 1184.07 265.391 1196.2 266.018C1214.7 266.975 1230.91 249.939 1229.7 257.518C1228.49 265.097 1221.36 273.431 1229.2 269.019C1237.2 264.519 1238.62 255.019 1244.7 255.019C1245.72 255.019 1263.87 255.628 1280.7 255.519C1296.74 255.415 1311.5 253.961 1313 255.519C1325.5 268.501 1335.5 285.5 1345.5 289.5C1351.73 291.992 1346.96 275.019 1352.2 275.019C1365.7 275.019 1372.39 290.019 1387.7 290.019C1393.2 290.019 1386.2 281.518 1381.2 256.018C1379.76 248.658 1399.2 265.98 1413.2 266.519C1426.2 267.019 1411 261.01 1402 242.509C1399.43 237.221 1337.6 234.832 1300 235.009C1264.54 235.176 1217 237.509 1213.5 243.009Z" fill="url(#paint8_linear_3106_770)"/>
<path d="M1306.85 236.007C1269.47 235.852 1208.88 238.177 1214.35 245.007C1216.35 247.507 1228.35 246.632 1230.85 248.507C1232.85 250.007 1229.28 268.832 1234.11 264C1235.61 262.5 1240.35 255.084 1242.85 254.507C1245.81 253.824 1261.16 255.103 1276.11 255C1293.97 254.876 1311.67 253.513 1312.85 254.507C1319.35 260.007 1336.35 283.507 1337.35 276.507C1337.86 272.904 1336.85 259.507 1338.35 254.507C1338.57 253.765 1346.51 254.457 1354.61 254.507C1361.74 254.552 1368.87 253.36 1369.61 254C1373.11 257 1376.35 266.007 1377.85 262.507C1379.43 258.802 1379.85 253.507 1380.35 251.507C1380.95 249.082 1393.82 249.463 1400.85 244.507C1409.35 238.507 1342.08 236.153 1306.85 236.007Z" fill="url(#paint9_linear_3106_770)"/>
<path d="M1731.63 268.851C1726.63 268.851 1707.28 272.477 1711.63 276.351C1716.13 280.351 1742.77 279.729 1743.63 282.351C1744.5 284.972 1742.51 291.224 1745.13 290.351C1748.13 289.351 1755.64 283.634 1758.13 283.851C1769.63 284.851 1840.97 281.685 1847.63 280.351C1850.13 279.851 1851.13 284.351 1854.13 285.351C1855.13 285.684 1854.02 280.845 1855.13 278.851C1855.63 277.957 1858 278.16 1861.63 276.851C1874.13 272.351 1832.63 263.637 1820.63 265.351C1817.52 265.796 1816.63 272.851 1815.63 270.851C1814.06 267.702 1815.02 265.818 1811.63 264.851C1806.13 263.279 1746.63 263.851 1739.63 266.851C1737.1 267.938 1742.13 275.851 1738.63 273.351C1736.99 272.178 1733.13 268.851 1731.63 268.851Z" fill="url(#paint10_linear_3106_770)"/>
<defs>
<filter id="filter0_d_3106_770" x="-32" y="0" width="1984" height="1041" filterUnits="userSpaceOnUse" color-interpolation-filters="sRGB">
<feFlood flood-opacity="0" result="BackgroundImageFix"/>
<feColorMatrix in="SourceAlpha" type="matrix" values="0 0 0 0 0 0 0 0 0 0 0 0 0 0 0 0 0 0 127 0" result="hardAlpha"/>
<feOffset dy="-4"/>
<feGaussianBlur stdDeviation="16"/>
<feComposite in2="hardAlpha" operator="out"/>
<feColorMatrix type="matrix" values="0 0 0 0 1 0 0 0 0 1 0 0 0 0 1 0 0 0 0.5 0"/>
<feBlend mode="normal" in2="BackgroundImageFix" result="effect1_dropShadow_3106_770"/>
<feBlend mode="normal" in="SourceGraphic" in2="effect1_dropShadow_3106_770" result="shape"/>
</filter>
<linearGradient id="paint0_linear_3106_770" x1="960" y1="36" x2="960" y2="1013" gradientUnits="userSpaceOnUse">
<stop stop-color="#E57272"/>
<stop offset="1" stop-color="#A04155"/>
</linearGradient>
<linearGradient id="paint1_linear_3106_770" x1="960" y1="53.6636" x2="960" y2="1013" gradientUnits="userSpaceOnUse">
<stop stop-color="#F59D85"/>
<stop offset="1" stop-color="#701E44"/>
</linearGradient>
<linearGradient id="paint2_linear_3106_770" x1="734.5" y1="104.099" x2="734.5" y2="207.099" gradientUnits="userSpaceOnUse">
<stop stop-color="#A53D58"/>
<stop offset="1" stop-color="#701E44"/>
</linearGradient>
<linearGradient id="paint3_linear_3106_770" x1="960" y1="76.6636" x2="960" y2="358" gradientUnits="userSpaceOnUse">
<stop stop-color="#EA806A"/>
<stop offset="1" stop-color="#B85863"/>
</linearGradient>
<linearGradient id="paint4_linear_3106_770" x1="960" y1="100.664" x2="960" y2="1013" gradientUnits="userSpaceOnUse">
<stop stop-color="#9C3C58"/>
<stop offset="1" stop-color="#581737"/>
</linearGradient>
<linearGradient id="paint5_linear_3106_770" x1="960" y1="123.664" x2="960" y2="1014" gradientUnits="userSpaceOnUse">
<stop stop-color="#BB5C60"/>
<stop offset="1" stop-color="#9C4056"/>
</linearGradient>
<linearGradient id="paint6_linear_3106_770" x1="960" y1="399" x2="960" y2="1077.43" gradientUnits="userSpaceOnUse">
<stop stop-color="#8B3251"/>
<stop offset="1" stop-color="#44122A"/>
</linearGradient>
<linearGradient id="paint7_linear_3106_770" x1="944" y1="535.998" x2="944" y2="1013.5" gradientUnits="userSpaceOnUse">
<stop stop-color="#D36E67"/>
<stop offset="1" stop-color="#9F4058"/>
</linearGradient>
<linearGradient id="paint8_linear_3106_770" x1="1305.12" y1="235" x2="1305.12" y2="290.019" gradientUnits="userSpaceOnUse">
<stop stop-color="#742248"/>
<stop offset="1" stop-color="#B7585F"/>
</linearGradient>
<linearGradient id="paint9_linear_3106_770" x1="1307.79" y1="236" x2="1307.79" y2="277.798" gradientUnits="userSpaceOnUse">
<stop stop-color="#8E3352"/>
<stop offset="1" stop-color="#541134"/>
</linearGradient>
<linearGradient id="paint10_linear_3106_770" x1="1787.48" y1="264" x2="1787.48" y2="290.434" gradientUnits="userSpaceOnUse">
<stop stop-color="#8E3352"/>
<stop offset="1" stop-color="#581839"/>
</linearGradient>
</defs>
</svg>
