<svg width="31" height="24" viewBox="0 0 31 24" fill="none" xmlns="http://www.w3.org/2000/svg">
<path d="M17.0223 0.639533C17.4319 0.23004 17.9874 0 18.5666 0C19.1458 0 19.7012 0.23004 20.1109 0.639533L29.9402 10.4689C30.3497 10.8785 30.5797 11.434 30.5797 12.0132C30.5797 12.5924 30.3497 13.1479 29.9402 13.5575L20.1109 23.3868C19.6989 23.7847 19.1471 24.0049 18.5744 23.9999C18.0017 23.9949 17.4538 23.7652 17.0489 23.3602C16.6439 22.9552 16.4142 22.4074 16.4092 21.8347C16.4042 21.262 16.6244 20.7102 17.0223 20.2982L22.9352 14.1975H2.1843C1.60499 14.1975 1.0494 13.9674 0.639767 13.5577C0.230131 13.1481 0 12.5925 0 12.0132C0 11.4339 0.230131 10.8783 0.639767 10.4687C1.0494 10.059 1.60499 9.82889 2.1843 9.82889H22.9352L17.0223 3.72813C16.6128 3.31852 16.3827 2.76303 16.3827 2.18383C16.3827 1.60464 16.6128 1.04915 17.0223 0.639533Z" fill="white"/>
</svg>
