<svg width="24" height="24" viewBox="0 0 24 24" fill="none" xmlns="http://www.w3.org/2000/svg">
<path d="M18.9732 10.951H7.50389L12.5147 5.80554C12.9151 5.39433 12.9151 4.71951 12.5147 4.30829C12.4197 4.21055 12.3068 4.133 12.1826 4.08009C12.0584 4.02717 11.9252 3.99994 11.7908 3.99994C11.6563 3.99994 11.5231 4.02717 11.3989 4.08009C11.2747 4.133 11.1619 4.21055 11.0669 4.30829L4.30028 11.2568C4.20509 11.3544 4.12957 11.4702 4.07805 11.5978C4.02652 11.7253 4 11.8621 4 12.0002C4 12.1383 4.02652 12.275 4.07805 12.4025C4.12957 12.5301 4.20509 12.646 4.30028 12.7435L11.0669 19.692C11.1619 19.7897 11.2748 19.8671 11.399 19.9199C11.5232 19.9727 11.6563 19.9999 11.7908 19.9999C11.9252 19.9999 12.0583 19.9727 12.1825 19.9199C12.3067 19.8671 12.4196 19.7897 12.5147 19.692C12.6097 19.5944 12.6851 19.4785 12.7366 19.351C12.788 19.2234 12.8145 19.0867 12.8145 18.9487C12.8145 18.8106 12.788 18.6739 12.7366 18.5464C12.6851 18.4188 12.6097 18.3029 12.5147 18.2053L7.50389 13.0598H18.9732C19.5379 13.0598 20 12.5854 20 12.0054C20 11.4255 19.5379 10.951 18.9732 10.951Z" fill="white"/>
</svg>
