<svg width="13" height="8" viewBox="0 0 13 8" fill="none" xmlns="http://www.w3.org/2000/svg">
<path d="M5.93892 7.24959L0.146921 1.45759C0.0768747 1.38772 0.0291319 1.29864 0.0097332 1.20163C-0.00966549 1.10461 0.000153542 1.00402 0.0379467 0.91259C0.0757399 0.821157 0.139809 0.742993 0.222044 0.687988C0.304279 0.632984 0.400987 0.603612 0.499922 0.603591L12.0859 0.603591C12.1849 0.603612 12.2816 0.632984 12.3638 0.687988C12.446 0.742993 12.5101 0.821157 12.5479 0.91259C12.5857 1.00402 12.5955 1.10461 12.5761 1.20163C12.5567 1.29864 12.509 1.38772 12.4389 1.45759L6.64692 7.24959C6.60048 7.29615 6.5453 7.3331 6.48455 7.3583C6.42381 7.38351 6.35869 7.39648 6.29292 7.39648C6.22715 7.39648 6.16203 7.38351 6.10129 7.3583C6.04054 7.3331 5.98537 7.29615 5.93892 7.24959Z" fill="black"/>
</svg>
