<svg width="24" height="24" viewBox="0 0 24 24" fill="none" xmlns="http://www.w3.org/2000/svg">
<path d="M13.6 8.79999H5.6C4.7176 8.79999 4 9.51759 4 10.4V18.4C4 19.2824 4.7176 20 5.6 20H13.6C14.4824 20 15.2 19.2824 15.2 18.4V10.4C15.2 9.51759 14.4824 8.79999 13.6 8.79999Z" fill="white"/>
<path d="M18.4 4H10.4C9.97565 4 9.56869 4.16857 9.26863 4.46863C8.96857 4.76869 8.8 5.17565 8.8 5.6V7.2H15.2C15.6243 7.2 16.0313 7.36857 16.3314 7.66863C16.6314 7.96869 16.8 8.37565 16.8 8.8V15.2H18.4C18.8243 15.2 19.2313 15.0314 19.5314 14.7314C19.8314 14.4313 20 14.0243 20 13.6V5.6C20 5.17565 19.8314 4.76869 19.5314 4.46863C19.2313 4.16857 18.8243 4 18.4 4Z" fill="white"/>
</svg>
