<svg width="32" height="24" viewBox="0 0 32 24" fill="none" xmlns="http://www.w3.org/2000/svg">
<path d="M17.1559 3.96429C17.7666 3.58929 18.1737 2.90893 18.1737 2.14286C18.1737 0.958928 17.2148 0 16.0309 0C14.8469 0 13.888 0.958928 13.888 2.14286C13.888 2.91429 14.2952 3.58929 14.9059 3.96429L11.8362 10.1036C11.3487 11.0786 10.0844 11.3571 9.23265 10.6768L4.45944 6.85714C4.72729 6.49821 4.88801 6.05357 4.88801 5.57143C4.88801 4.3875 3.92908 3.42857 2.74515 3.42857C1.56122 3.42857 0.602295 4.3875 0.602295 5.57143C0.602295 6.75536 1.56122 7.71429 2.74515 7.71429H2.78265L5.23087 21.1821C5.52551 22.8107 6.94515 24 8.60587 24H23.4559C25.1112 24 26.5309 22.8161 26.8309 21.1821L29.2791 7.71429H29.3166C30.5005 7.71429 31.4594 6.75536 31.4594 5.57143C31.4594 4.3875 30.5005 3.42857 29.3166 3.42857C28.1327 3.42857 27.1737 4.3875 27.1737 5.57143C27.1737 6.05357 27.3344 6.49821 27.6023 6.85714L22.8291 10.6768C21.9773 11.3571 20.713 11.0786 20.2255 10.1036L17.1559 3.96429Z" fill="white"/>
</svg>
