<svg width="24" height="24" viewBox="0 0 24 24" fill="none" xmlns="http://www.w3.org/2000/svg">
<path d="M21.4458 19.5791C21.5786 19.4465 21.684 19.289 21.7559 19.1157C21.8278 18.9423 21.8648 18.7565 21.8648 18.5688C21.8648 18.3812 21.8278 18.1953 21.7559 18.022C21.684 17.8486 21.5786 17.6912 21.4458 17.5586L15.9003 11.9988L21.4601 6.43891C21.5928 6.30624 21.698 6.14875 21.7698 5.97541C21.8416 5.80208 21.8786 5.6163 21.8786 5.42868C21.8786 5.24106 21.8416 5.05528 21.7698 4.88195C21.698 4.70861 21.5928 4.55112 21.4601 4.41845C21.3274 4.28579 21.17 4.18055 20.9966 4.10875C20.8233 4.03695 20.6375 4 20.4499 4C20.2623 4 20.0765 4.03695 19.9032 4.10875C19.7298 4.18055 19.5723 4.28579 19.4397 4.41845L12.8624 10.9957C12.7296 11.1283 12.6242 11.2857 12.5523 11.4591C12.4804 11.6324 12.4434 11.8182 12.4434 12.0059C12.4434 12.1936 12.4804 12.3794 12.5523 12.5528C12.6242 12.7261 12.7296 12.8836 12.8624 13.0161L19.4397 19.5934C19.9842 20.1379 20.8869 20.1379 21.4458 19.5791Z" fill="white"/>
<path d="M12.0024 19.5791C12.1353 19.4465 12.2407 19.289 12.3126 19.1157C12.3845 18.9423 12.4215 18.7565 12.4215 18.5688C12.4215 18.3812 12.3845 18.1953 12.3126 18.022C12.2407 17.8486 12.1353 17.6912 12.0024 17.5586L6.45691 11.9988L12.0168 6.43891C12.2847 6.17098 12.4352 5.80759 12.4352 5.42868C12.4352 5.04977 12.2847 4.68638 12.0168 4.41845C11.7488 4.15052 11.3854 4 11.0065 4C10.6276 4 10.2642 4.15052 9.99629 4.41845L3.41906 10.9957C3.28622 11.1283 3.18083 11.2857 3.10892 11.4591C3.03701 11.6324 3 11.8182 3 12.0059C3 12.1936 3.03701 12.3794 3.10892 12.5528C3.18083 12.7261 3.28622 12.8836 3.41906 13.0161L9.99629 19.5934C10.5408 20.1379 11.4436 20.1379 12.0024 19.5791Z" fill="white"/>
</svg>
