<svg width="26" height="36" viewBox="0 0 26 36" fill="none" xmlns="http://www.w3.org/2000/svg">
<path d="M12.6 25.2006C19.5589 25.2006 25.2001 19.5594 25.2001 12.6005C25.2001 5.64172 19.5589 0.000488281 12.6 0.000488281C5.64123 0.000488281 0 5.64172 0 12.6005C0 19.5594 5.64123 25.2006 12.6 25.2006Z" fill="#FEF4D3"/>
<path d="M15.3242 20.0005H11.3163V8.91249H9.58825V6.39249L12.0363 5.09649H15.3242V20.0005Z" fill="#F8D34D"/>
<path d="M4.58333 22.3203L4.23233 23.4003L3.08573 27.5817C1.95533 31.7073 1.39012 33.7702 2.14433 34.8988C2.40893 35.2948 2.76353 35.6116 3.17573 35.8222C4.34933 36.4198 6.16374 35.4748 9.79076 33.5848C10.9968 32.9548 11.6016 32.6416 12.2424 32.5732C12.4818 32.548 12.7194 32.548 12.9588 32.5732C13.5996 32.6416 14.2026 32.9548 15.4104 33.5848C19.0374 35.4748 20.8518 36.4198 22.0254 35.8222C22.4376 35.6116 22.7922 35.2948 23.0568 34.8988C23.8128 33.7702 23.2458 31.7073 22.1154 27.5817L20.9688 23.4003L20.6178 22.3203C18.4398 24.1203 15.6462 25.2003 12.6006 25.2003C9.55495 25.2003 6.76134 24.1203 4.58333 22.3203Z" fill="#F8D34D"/>
</svg>
