<svg width="24" height="24" viewBox="0 0 24 24" fill="none" xmlns="http://www.w3.org/2000/svg">
<path d="M8.29464 12C7.33036 12.0298 6.54167 12.4107 5.92857 13.1429H4.73214C4.24405 13.1429 3.83333 13.0223 3.5 12.7812C3.16667 12.5402 3 12.1875 3 11.7232C3 9.62202 3.36905 8.57143 4.10714 8.57143C4.14286 8.57143 4.27232 8.63393 4.49554 8.75893C4.71875 8.88393 5.00893 9.01042 5.36607 9.13839C5.72321 9.26637 6.07738 9.33036 6.42857 9.33036C6.82738 9.33036 7.22321 9.26191 7.61607 9.125C7.58631 9.34524 7.57143 9.54167 7.57143 9.71429C7.57143 10.5417 7.8125 11.3036 8.29464 12ZM17.8571 17.6875C17.8571 18.4018 17.6399 18.9658 17.2054 19.3795C16.7708 19.7932 16.1935 20 15.4732 20H7.66964C6.9494 20 6.37202 19.7932 5.9375 19.3795C5.50298 18.9658 5.28571 18.4018 5.28571 17.6875C5.28571 17.372 5.29613 17.064 5.31696 16.7634C5.3378 16.4628 5.37946 16.1384 5.44196 15.7902C5.50446 15.442 5.58333 15.119 5.67857 14.8214C5.77381 14.5238 5.90179 14.2336 6.0625 13.9509C6.22321 13.6682 6.40774 13.4271 6.61607 13.2277C6.8244 13.0283 7.07887 12.869 7.37946 12.75C7.68006 12.631 8.0119 12.5714 8.375 12.5714C8.43452 12.5714 8.5625 12.6354 8.75893 12.7634C8.95536 12.8914 9.17262 13.0342 9.41071 13.192C9.64881 13.3497 9.96726 13.4926 10.3661 13.6205C10.7649 13.7485 11.1667 13.8125 11.5714 13.8125C11.9762 13.8125 12.378 13.7485 12.7768 13.6205C13.1756 13.4926 13.494 13.3497 13.7321 13.192C13.9702 13.0342 14.1875 12.8914 14.3839 12.7634C14.5804 12.6354 14.7083 12.5714 14.7679 12.5714C15.131 12.5714 15.4628 12.631 15.7634 12.75C16.064 12.869 16.3185 13.0283 16.5268 13.2277C16.7351 13.4271 16.9196 13.6682 17.0804 13.9509C17.2411 14.2336 17.369 14.5238 17.4643 14.8214C17.5595 15.119 17.6384 15.442 17.7009 15.7902C17.7634 16.1384 17.8051 16.4628 17.8259 16.7634C17.8467 17.064 17.8571 17.372 17.8571 17.6875ZM8.71429 6.28571C8.71429 6.91667 8.49107 7.45536 8.04464 7.90179C7.59821 8.34821 7.05952 8.57143 6.42857 8.57143C5.79762 8.57143 5.25893 8.34821 4.8125 7.90179C4.36607 7.45536 4.14286 6.91667 4.14286 6.28571C4.14286 5.65476 4.36607 5.11607 4.8125 4.66964C5.25893 4.22321 5.79762 4 6.42857 4C7.05952 4 7.59821 4.22321 8.04464 4.66964C8.49107 5.11607 8.71429 5.65476 8.71429 6.28571ZM15 9.71429C15 10.6607 14.6652 11.4688 13.9955 12.1384C13.3259 12.808 12.5179 13.1429 11.5714 13.1429C10.625 13.1429 9.81696 12.808 9.14732 12.1384C8.47768 11.4688 8.14286 10.6607 8.14286 9.71429C8.14286 8.76786 8.47768 7.95982 9.14732 7.29018C9.81696 6.62054 10.625 6.28571 11.5714 6.28571C12.5179 6.28571 13.3259 6.62054 13.9955 7.29018C14.6652 7.95982 15 8.76786 15 9.71429ZM20.1429 11.7232C20.1429 12.1875 19.9762 12.5402 19.6429 12.7812C19.3095 13.0223 18.8988 13.1429 18.4107 13.1429H17.2143C16.6012 12.4107 15.8125 12.0298 14.8482 12C15.3304 11.3036 15.5714 10.5417 15.5714 9.71429C15.5714 9.54167 15.5565 9.34524 15.5268 9.125C15.9196 9.26191 16.3155 9.33036 16.7143 9.33036C17.0655 9.33036 17.4196 9.26637 17.7768 9.13839C18.1339 9.01042 18.4241 8.88393 18.6473 8.75893C18.8705 8.63393 19 8.57143 19.0357 8.57143C19.7738 8.57143 20.1429 9.62202 20.1429 11.7232ZM19 6.28571C19 6.91667 18.7768 7.45536 18.3304 7.90179C17.8839 8.34821 17.3452 8.57143 16.7143 8.57143C16.0833 8.57143 15.5446 8.34821 15.0982 7.90179C14.6518 7.45536 14.4286 6.91667 14.4286 6.28571C14.4286 5.65476 14.6518 5.11607 15.0982 4.66964C15.5446 4.22321 16.0833 4 16.7143 4C17.3452 4 17.8839 4.22321 18.3304 4.66964C18.7768 5.11607 19 5.65476 19 6.28571Z" fill="white"/>
</svg>
