<svg width="56" height="56" viewBox="0 0 56 56" fill="none" xmlns="http://www.w3.org/2000/svg">
<path d="M10.0036 24.7412L10.0036 24.7411C9.88941 19.6593 12.4794 15.3952 16.0189 13.3302C19.2726 11.4363 23.2864 11.4206 26.7383 14.2277L28.0001 15.2539L29.262 14.2277C32.7145 11.4201 36.7282 11.4348 39.9811 13.33C43.52 15.3926 46.1109 19.6584 45.9966 24.7411C45.8786 29.9594 42.1976 34.768 37.7488 38.429C35.5683 40.2234 33.3067 41.6539 31.4301 42.6278C30.4914 43.1149 29.6723 43.4756 29.0279 43.7092C28.7055 43.826 28.4458 43.9041 28.2497 43.9511C28.103 43.9863 28.024 43.9962 28.0001 43.999C27.9763 43.9962 27.8973 43.9863 27.7506 43.9511C27.5544 43.9041 27.2946 43.826 26.9723 43.7092C26.3278 43.4756 25.5086 43.1149 24.5698 42.6277C22.6931 41.6539 20.4313 40.2233 18.2507 38.429C13.8016 34.7679 10.1207 29.9593 10.0036 24.7412Z" fill="#E40714" stroke="white" stroke-width="4"/>
</svg>
