<svg width="60" height="60" viewBox="0 0 60 60" fill="none" xmlns="http://www.w3.org/2000/svg">
<path d="M44.4225 26.3998C44.4225 25.9224 44.2328 25.4645 43.8953 25.127C43.5577 24.7894 43.0998 24.5998 42.6224 24.5998C42.1451 24.5998 41.6872 24.7894 41.3496 25.127C41.0121 25.4645 40.8224 25.9224 40.8224 26.3998H44.4225ZM19.2222 26.3998C19.2222 25.9224 19.0326 25.4645 18.695 25.127C18.3574 24.7894 17.8996 24.5998 17.4222 24.5998C16.9448 24.5998 16.4869 24.7894 16.1494 25.127C15.8118 25.4645 15.6222 25.9224 15.6222 26.3998H19.2222ZM44.9499 31.2724C45.2894 31.6003 45.744 31.7817 46.216 31.7776C46.688 31.7735 47.1394 31.5842 47.4732 31.2505C47.8069 30.9168 47.9962 30.4653 48.0003 29.9933C48.0044 29.5214 47.823 29.0667 47.4951 28.7272L44.9499 31.2724ZM30.0223 13.7996L31.2949 12.527C30.9574 12.1896 30.4996 12 30.0223 12C29.545 12 29.0872 12.1896 28.7497 12.527L30.0223 13.7996ZM12.5495 28.7272C12.3776 28.8932 12.2405 29.0919 12.1461 29.3115C12.0518 29.5311 12.0021 29.7673 12.0001 30.0063C11.998 30.2453 12.0435 30.4823 12.134 30.7035C12.2245 30.9247 12.3582 31.1257 12.5272 31.2947C12.6962 31.4637 12.8972 31.5974 13.1184 31.6879C13.3396 31.7784 13.5767 31.824 13.8157 31.8219C14.0547 31.8198 14.2909 31.7701 14.5105 31.6758C14.7301 31.5815 14.9287 31.4443 15.0948 31.2724L12.5495 28.7272ZM21.0222 48H39.0224V44.4H21.0222V48ZM44.4225 42.5999V26.3998H40.8224V42.5999H44.4225ZM19.2222 42.5999V26.3998H15.6222V42.5999H19.2222ZM47.4951 28.7272L31.2949 12.527L28.7497 15.0722L44.9499 31.2724L47.4951 28.7272ZM28.7497 12.527L12.5495 28.7272L15.0948 31.2724L31.2949 15.0722L28.7497 12.527ZM39.0224 48C40.4546 48 41.8281 47.4311 42.8408 46.4184C43.8535 45.4057 44.4225 44.0321 44.4225 42.5999H40.8224C40.8224 43.0773 40.6328 43.5352 40.2952 43.8727C39.9576 44.2103 39.4998 44.4 39.0224 44.4V48ZM21.0222 44.4C20.5448 44.4 20.087 44.2103 19.7494 43.8727C19.4118 43.5352 19.2222 43.0773 19.2222 42.5999H15.6222C15.6222 44.0321 16.1911 45.4057 17.2038 46.4184C18.2165 47.4311 19.59 48 21.0222 48V44.4Z" fill="black"/>
</svg>
