<svg width="59" height="48" viewBox="0 0 59 48" fill="none" xmlns="http://www.w3.org/2000/svg">
<path d="M6.82966 37.8961C8.6373 37.8961 10.1027 36.4308 10.1027 34.6231C10.1027 32.8155 8.6373 31.3501 6.82966 31.3501C5.02202 31.3501 3.55664 32.8155 3.55664 34.6231C3.55664 36.4308 5.02202 37.8961 6.82966 37.8961Z" fill="url(#paint0_radial_5403_8577)"/>
<path d="M51.6871 37.9215C53.4947 37.9215 54.9601 36.4561 54.9601 34.6485C54.9601 32.8409 53.4947 31.3755 51.6871 31.3755C49.8794 31.3755 48.4141 32.8409 48.4141 34.6485C48.4141 36.4561 49.8794 37.9215 51.6871 37.9215Z" fill="url(#paint1_radial_5403_8577)"/>
<path d="M51.6871 37.9215C53.4947 37.9215 54.9601 36.4561 54.9601 34.6485C54.9601 32.8409 53.4947 31.3755 51.6871 31.3755C49.8794 31.3755 48.4141 32.8409 48.4141 34.6485C48.4141 36.4561 49.8794 37.9215 51.6871 37.9215Z" fill="url(#paint2_radial_5403_8577)"/>
<path d="M14.4894 13.167C13.2233 15.0663 12.3011 17.6513 11.9824 18.6411L16.9289 22.2011L20.7063 17.4192C20.0326 16.3963 19.3289 15.3935 18.596 14.4121C17.9994 13.6659 17.3655 12.9503 16.6967 12.2681L14.4894 13.167Z" fill="url(#paint3_radial_5403_8577)"/>
<path d="M14.4894 13.167C13.2233 15.0663 12.3011 17.6513 11.9824 18.6411L16.9289 22.2011L20.7063 17.4192C20.0326 16.3963 19.3289 15.3935 18.596 14.4121C17.9994 13.6659 17.3655 12.9503 16.6967 12.2681L14.4894 13.167Z" fill="url(#paint4_radial_5403_8577)"/>
<path d="M44.002 13.167C45.2682 15.0663 46.1903 17.6513 46.509 18.6411L41.5625 22.2011L37.7852 17.4192C38.2325 16.7334 39.2898 15.2034 39.8954 14.4121C40.5032 13.6207 41.419 12.6521 41.7947 12.2681L44.002 13.167Z" fill="url(#paint5_radial_5403_8577)"/>
<path d="M44.002 13.167C45.2682 15.0663 46.1903 17.6513 46.509 18.6411L41.5625 22.2011L37.7852 17.4192C38.2325 16.7334 39.2898 15.2034 39.8954 14.4121C40.5032 13.6207 41.419 12.6521 41.7947 12.2681L44.002 13.167Z" fill="url(#paint6_radial_5403_8577)"/>
<path d="M44.002 13.167C45.2682 15.0663 46.1903 17.6513 46.509 18.6411L41.5625 22.2011L37.7852 17.4192C38.2325 16.7334 39.2898 15.2034 39.8954 14.4121C40.5032 13.6207 41.419 12.6521 41.7947 12.2681L44.002 13.167Z" fill="url(#paint7_radial_5403_8577)"/>
<g filter="url(#filter0_ii_5403_8577)">
<path d="M2.07617 13.3134L8.63065 45.3028C8.78725 46.0651 9.20232 46.7498 9.80564 47.2412C10.409 47.7326 11.1635 48.0006 11.9417 47.9998H46.55C47.3283 47.9999 48.0829 47.7311 48.6858 47.2389C49.2888 46.7467 49.7032 46.0613 49.8589 45.2986L56.4133 13.3113L54.32 12.2899C51.1883 14.5647 44.6296 19.2305 42.9372 20.2519C41.5866 21.0665 40.3458 19.7391 40.0883 19.3614C37.7312 15.9005 34.1332 10.8612 32.7868 9.09072C31.4109 7.2759 29.8536 6.38115 29.2437 6.30518C28.6338 6.38115 27.0765 7.2759 25.6985 9.09072C24.3542 10.8612 20.7583 15.9005 18.3991 19.3614C18.1416 19.7391 16.9008 21.0686 15.5502 20.2519C13.8578 19.2305 7.29907 14.5647 4.16744 12.2899L2.07617 13.3134Z" fill="url(#paint8_linear_5403_8577)"/>
<path d="M2.07617 13.3134L8.63065 45.3028C8.78725 46.0651 9.20232 46.7498 9.80564 47.2412C10.409 47.7326 11.1635 48.0006 11.9417 47.9998H46.55C47.3283 47.9999 48.0829 47.7311 48.6858 47.2389C49.2888 46.7467 49.7032 46.0613 49.8589 45.2986L56.4133 13.3113L54.32 12.2899C51.1883 14.5647 44.6296 19.2305 42.9372 20.2519C41.5866 21.0665 40.3458 19.7391 40.0883 19.3614C37.7312 15.9005 34.1332 10.8612 32.7868 9.09072C31.4109 7.2759 29.8536 6.38115 29.2437 6.30518C28.6338 6.38115 27.0765 7.2759 25.6985 9.09072C24.3542 10.8612 20.7583 15.9005 18.3991 19.3614C18.1416 19.7391 16.9008 21.0686 15.5502 20.2519C13.8578 19.2305 7.29907 14.5647 4.16744 12.2899L2.07617 13.3134Z" fill="url(#paint9_radial_5403_8577)"/>
</g>
<path d="M2.07812 13.3138L8.6326 45.3033C8.7892 46.0655 9.20427 46.7503 9.80759 47.2417C10.4109 47.7331 11.1655 48.0011 11.9436 48.0002H46.5519C47.3303 48.0004 48.0848 47.7316 48.6878 47.2394C49.2908 46.7472 49.7051 46.0618 49.8608 45.2991L56.4153 13.3117L54.3219 12.2904C51.1903 14.5652 44.6316 19.231 42.9392 20.2524C41.5886 21.067 40.3478 19.7396 40.0903 19.3619C37.7331 15.901 34.1351 10.8617 32.7888 9.09121C31.4129 7.27639 29.8555 6.38163 29.2457 6.30566C28.6358 6.38163 27.0784 7.27639 25.7004 9.09121C24.3562 10.8617 20.7603 15.901 18.401 19.3619C18.1436 19.7396 16.9027 21.0691 15.5522 20.2524C13.8597 19.231 7.30103 14.5652 4.1694 12.2904L2.07812 13.3138Z" fill="url(#paint10_linear_5403_8577)"/>
<path d="M2.07812 13.3138L8.6326 45.3033C8.7892 46.0655 9.20427 46.7503 9.80759 47.2417C10.4109 47.7331 11.1655 48.0011 11.9436 48.0002H46.5519C47.3303 48.0004 48.0848 47.7316 48.6878 47.2394C49.2908 46.7472 49.7051 46.0618 49.8608 45.2991L56.4153 13.3117L54.3219 12.2904C51.1903 14.5652 44.6316 19.231 42.9392 20.2524C41.5886 21.067 40.3478 19.7396 40.0903 19.3619C37.7331 15.901 34.1351 10.8617 32.7888 9.09121C31.4129 7.27639 29.8555 6.38163 29.2457 6.30566C28.6358 6.38163 27.0784 7.27639 25.7004 9.09121C24.3562 10.8617 20.7603 15.901 18.401 19.3619C18.1436 19.7396 16.9027 21.0691 15.5522 20.2524C13.8597 19.231 7.30103 14.5652 4.1694 12.2904L2.07812 13.3138Z" fill="url(#paint11_linear_5403_8577)"/>
<path d="M2.07812 13.3138L8.6326 45.3033C8.7892 46.0655 9.20427 46.7503 9.80759 47.2417C10.4109 47.7331 11.1655 48.0011 11.9436 48.0002H46.5519C47.3303 48.0004 48.0848 47.7316 48.6878 47.2394C49.2908 46.7472 49.7051 46.0618 49.8608 45.2991L56.4153 13.3117L54.3219 12.2904C51.1903 14.5652 44.6316 19.231 42.9392 20.2524C41.5886 21.067 40.3478 19.7396 40.0903 19.3619C37.7331 15.901 34.1351 10.8617 32.7888 9.09121C31.4129 7.27639 29.8555 6.38163 29.2457 6.30566C28.6358 6.38163 27.0784 7.27639 25.7004 9.09121C24.3562 10.8617 20.7603 15.901 18.401 19.3619C18.1436 19.7396 16.9027 21.0691 15.5522 20.2524C13.8597 19.231 7.30103 14.5652 4.1694 12.2904L2.07812 13.3138Z" fill="url(#paint12_linear_5403_8577)"/>
<path d="M2.07812 13.3138L8.6326 45.3033C8.7892 46.0655 9.20427 46.7503 9.80759 47.2417C10.4109 47.7331 11.1655 48.0011 11.9436 48.0002H46.5519C47.3303 48.0004 48.0848 47.7316 48.6878 47.2394C49.2908 46.7472 49.7051 46.0618 49.8608 45.2991L56.4153 13.3117L54.3219 12.2904C51.1903 14.5652 44.6316 19.231 42.9392 20.2524C41.5886 21.067 40.3478 19.7396 40.0903 19.3619C37.7331 15.901 34.1351 10.8617 32.7888 9.09121C31.4129 7.27639 29.8555 6.38163 29.2457 6.30566C28.6358 6.38163 27.0784 7.27639 25.7004 9.09121C24.3562 10.8617 20.7603 15.901 18.401 19.3619C18.1436 19.7396 16.9027 21.0691 15.5522 20.2524C13.8597 19.231 7.30103 14.5652 4.1694 12.2904L2.07812 13.3138Z" fill="url(#paint13_radial_5403_8577)"/>
<path d="M2.07812 13.3138L8.6326 45.3033C8.7892 46.0655 9.20427 46.7503 9.80759 47.2417C10.4109 47.7331 11.1655 48.0011 11.9436 48.0002H46.5519C47.3303 48.0004 48.0848 47.7316 48.6878 47.2394C49.2908 46.7472 49.7051 46.0618 49.8608 45.2991L56.4153 13.3117L54.3219 12.2904C51.1903 14.5652 44.6316 19.231 42.9392 20.2524C41.5886 21.067 40.3478 19.7396 40.0903 19.3619C37.7331 15.901 34.1351 10.8617 32.7888 9.09121C31.4129 7.27639 29.8555 6.38163 29.2457 6.30566C28.6358 6.38163 27.0784 7.27639 25.7004 9.09121C24.3562 10.8617 20.7603 15.901 18.401 19.3619C18.1436 19.7396 16.9027 21.0691 15.5522 20.2524C13.8597 19.231 7.30103 14.5652 4.1694 12.2904L2.07812 13.3138Z" fill="url(#paint14_radial_5403_8577)"/>
<path d="M2.07812 13.3138L8.6326 45.3033C8.7892 46.0656 9.20427 46.7503 9.80759 47.2417C10.4109 47.7331 11.1655 48.0011 11.9436 48.0002H46.5519C47.3303 48.0004 48.0848 47.7316 48.6878 47.2394C49.2908 46.7472 49.7051 46.0618 49.8608 45.2991L56.4153 13.3117L54.3219 12.2904C51.1903 14.5652 44.6316 19.231 42.9392 20.2524C41.5886 21.067 40.3478 19.7396 40.0903 19.3619C37.7331 15.901 34.1351 10.8617 32.7888 9.09121C31.4129 7.27639 29.8555 6.38163 29.2457 6.30566C28.6358 6.38163 27.0784 7.27639 25.7004 9.09121C24.3562 10.8617 20.7603 15.901 18.401 19.3619C18.1436 19.7396 16.9027 21.0691 15.5522 20.2524C13.8597 19.231 7.30103 14.5652 4.1694 12.2904L2.07812 13.3138Z" fill="url(#paint15_radial_5403_8577)"/>
<g filter="url(#filter1_di_5403_8577)">
<path d="M45.665 35.6625C45.1037 37.3803 43.3057 38.2412 41.588 37.682C40.2923 37.1545 39.733 35.6752 40.2923 33.9574C40.8515 32.2375 42.6136 31.252 43.6814 31.5981C45.3991 32.1573 46.2221 33.9426 45.665 35.6625Z" fill="url(#paint16_radial_5403_8577)"/>
<path d="M45.665 35.6625C45.1037 37.3803 43.3057 38.2412 41.588 37.682C40.2923 37.1545 39.733 35.6752 40.2923 33.9574C40.8515 32.2375 42.6136 31.252 43.6814 31.5981C45.3991 32.1573 46.2221 33.9426 45.665 35.6625Z" fill="url(#paint17_radial_5403_8577)"/>
</g>
<g filter="url(#filter2_di_5403_8577)">
<path d="M12.9923 35.6615C13.5515 37.3793 15.3495 38.2403 17.0693 37.681C18.3629 37.1535 18.9221 35.6742 18.3629 33.9564C17.8037 32.2366 16.0416 31.2511 14.9759 31.5972C13.2561 32.1564 12.4331 33.9417 12.9923 35.6615Z" fill="url(#paint18_radial_5403_8577)"/>
<path d="M12.9923 35.6615C13.5515 37.3793 15.3495 38.2403 17.0693 37.681C18.3629 37.1535 18.9221 35.6742 18.3629 33.9564C17.8037 32.2366 16.0416 31.2511 14.9759 31.5972C13.2561 32.1564 12.4331 33.9417 12.9923 35.6615Z" fill="url(#paint19_radial_5403_8577)"/>
</g>
<path d="M5.86864 12.8317C5.86864 13.6099 5.55949 14.3563 5.0092 14.9066C4.45891 15.4569 3.71255 15.766 2.93432 15.766C2.15609 15.766 1.40973 15.4569 0.859443 14.9066C0.309151 14.3563 0 13.6099 0 12.8317C0 12.0538 0.30904 11.3077 0.859134 10.7576C1.40923 10.2075 2.15532 9.89844 2.93327 9.89844C3.71122 9.89844 4.4573 10.2075 5.0074 10.7576C5.55749 11.3077 5.86864 12.0538 5.86864 12.8317Z" fill="url(#paint20_radial_5403_8577)"/>
<path d="M5.86864 12.8317C5.86864 13.6099 5.55949 14.3563 5.0092 14.9066C4.45891 15.4569 3.71255 15.766 2.93432 15.766C2.15609 15.766 1.40973 15.4569 0.859443 14.9066C0.309151 14.3563 0 13.6099 0 12.8317C0 12.0538 0.30904 11.3077 0.859134 10.7576C1.40923 10.2075 2.15532 9.89844 2.93327 9.89844C3.71122 9.89844 4.4573 10.2075 5.0074 10.7576C5.55749 11.3077 5.86864 12.0538 5.86864 12.8317Z" fill="url(#paint21_radial_5403_8577)"/>
<path d="M5.86864 12.8317C5.86864 13.6099 5.55949 14.3563 5.0092 14.9066C4.45891 15.4569 3.71255 15.766 2.93432 15.766C2.15609 15.766 1.40973 15.4569 0.859443 14.9066C0.309151 14.3563 0 13.6099 0 12.8317C0 12.0538 0.30904 11.3077 0.859134 10.7576C1.40923 10.2075 2.15532 9.89844 2.93327 9.89844C3.71122 9.89844 4.4573 10.2075 5.0074 10.7576C5.55749 11.3077 5.86864 12.0538 5.86864 12.8317Z" fill="url(#paint22_radial_5403_8577)"/>
<path d="M5.86864 12.8317C5.86864 13.6099 5.55949 14.3563 5.0092 14.9066C4.45891 15.4569 3.71255 15.766 2.93432 15.766C2.15609 15.766 1.40973 15.4569 0.859443 14.9066C0.309151 14.3563 0 13.6099 0 12.8317C0 12.0538 0.30904 11.3077 0.859134 10.7576C1.40923 10.2075 2.15532 9.89844 2.93327 9.89844C3.71122 9.89844 4.4573 10.2075 5.0074 10.7576C5.55749 11.3077 5.86864 12.0538 5.86864 12.8317Z" fill="url(#paint23_radial_5403_8577)"/>
<path d="M17.1737 13.37C17.734 13.0418 18.1695 12.537 18.412 11.9347C18.6546 11.3324 18.6904 10.6666 18.5139 10.0417C18.3374 9.41684 17.9586 8.8682 17.4368 8.48177C16.9149 8.09534 16.2797 7.89297 15.6305 7.90639C14.9813 7.9198 14.3549 8.14824 13.8495 8.55589C13.3441 8.96355 12.9883 9.52738 12.8377 10.159C12.6872 10.7906 12.7505 11.4544 13.0177 12.0461C13.2849 12.6379 13.7409 13.1243 14.3143 13.4291C14.5968 13.3203 14.9069 13.3055 15.1985 13.3869C15.6501 13.5177 16.3929 13.6823 17.1758 13.37" fill="url(#paint24_radial_5403_8577)"/>
<path d="M17.1737 13.37C17.734 13.0418 18.1695 12.537 18.412 11.9347C18.6546 11.3324 18.6904 10.6666 18.5139 10.0417C18.3374 9.41684 17.9586 8.8682 17.4368 8.48177C16.9149 8.09534 16.2797 7.89297 15.6305 7.90639C14.9813 7.9198 14.3549 8.14824 13.8495 8.55589C13.3441 8.96355 12.9883 9.52738 12.8377 10.159C12.6872 10.7906 12.7505 11.4544 13.0177 12.0461C13.2849 12.6379 13.7409 13.1243 14.3143 13.4291C14.5968 13.3203 14.9069 13.3055 15.1985 13.3869C15.6501 13.5177 16.3929 13.6823 17.1758 13.37" fill="url(#paint25_radial_5403_8577)"/>
<path d="M17.1737 13.37C17.734 13.0418 18.1695 12.537 18.412 11.9347C18.6546 11.3324 18.6904 10.6666 18.5139 10.0417C18.3374 9.41684 17.9586 8.8682 17.4368 8.48177C16.9149 8.09534 16.2797 7.89297 15.6305 7.90639C14.9813 7.9198 14.3549 8.14824 13.8495 8.55589C13.3441 8.96355 12.9883 9.52738 12.8377 10.159C12.6872 10.7906 12.7505 11.4544 13.0177 12.0461C13.2849 12.6379 13.7409 13.1243 14.3143 13.4291C14.5968 13.3203 14.9069 13.3055 15.1985 13.3869C15.6501 13.5177 16.3929 13.6823 17.1758 13.37" fill="url(#paint26_radial_5403_8577)"/>
<path d="M17.1737 13.37C17.734 13.0418 18.1695 12.537 18.412 11.9347C18.6546 11.3324 18.6904 10.6666 18.5139 10.0417C18.3374 9.41684 17.9586 8.8682 17.4368 8.48177C16.9149 8.09534 16.2797 7.89297 15.6305 7.90639C14.9813 7.9198 14.3549 8.14824 13.8495 8.55589C13.3441 8.96355 12.9883 9.52738 12.8377 10.159C12.6872 10.7906 12.7505 11.4544 13.0177 12.0461C13.2849 12.6379 13.7409 13.1243 14.3143 13.4291C14.5968 13.3203 14.9069 13.3055 15.1985 13.3869C15.6501 13.5177 16.3929 13.6823 17.1758 13.37" fill="url(#paint27_radial_5403_8577)"/>
<g filter="url(#filter3_i_5403_8577)">
<path d="M41.3159 13.371C40.7556 13.0428 40.3201 12.538 40.0775 11.9357C39.835 11.3333 39.7992 10.6676 39.9757 10.0427C40.1522 9.41782 40.531 8.86917 41.0528 8.48274C41.5746 8.09632 42.2099 7.89395 42.8591 7.90736C43.5083 7.92078 44.1347 8.14922 44.6401 8.55687C45.1455 8.96453 45.5013 9.52836 45.6519 10.16C45.8024 10.7916 45.7391 11.4553 45.4719 12.0471C45.2047 12.6389 44.7486 13.1253 44.1753 13.4301C43.8928 13.3213 43.5827 13.3065 43.2911 13.3879C42.8395 13.5187 42.0988 13.6833 41.3159 13.371Z" fill="url(#paint28_radial_5403_8577)"/>
<path d="M41.3159 13.371C40.7556 13.0428 40.3201 12.538 40.0775 11.9357C39.835 11.3333 39.7992 10.6676 39.9757 10.0427C40.1522 9.41782 40.531 8.86917 41.0528 8.48274C41.5746 8.09632 42.2099 7.89395 42.8591 7.90736C43.5083 7.92078 44.1347 8.14922 44.6401 8.55687C45.1455 8.96453 45.5013 9.52836 45.6519 10.16C45.8024 10.7916 45.7391 11.4553 45.4719 12.0471C45.2047 12.6389 44.7486 13.1253 44.1753 13.4301C43.8928 13.3213 43.5827 13.3065 43.2911 13.3879C42.8395 13.5187 42.0988 13.6833 41.3159 13.371Z" fill="url(#paint29_radial_5403_8577)"/>
</g>
<g filter="url(#filter4_di_5403_8577)">
<path d="M29.3273 39.989C32.2036 39.989 34.5354 37.6573 34.5354 34.7809C34.5354 31.9045 32.2036 29.5728 29.3273 29.5728C26.4509 29.5728 24.1191 31.9045 24.1191 34.7809C24.1191 37.6573 26.4509 39.989 29.3273 39.989Z" fill="url(#paint30_radial_5403_8577)"/>
</g>
<g filter="url(#filter5_f_5403_8577)">
<path d="M29.6934 7.40819C30.0584 7.36599 30.987 7.5538 31.8036 8.66169C32.6224 9.76958 37.5984 16.8601 39.983 20.2681C40.4452 20.9814 41.8105 22.1083 43.5768 20.8949C45.3452 19.6815 51.0281 15.5665 53.1722 14.1378" stroke="url(#paint31_linear_5403_8577)" stroke-width="0.15"/>
<path d="M29.6934 7.40819C30.0584 7.36599 30.987 7.5538 31.8036 8.66169C32.6224 9.76958 37.5984 16.8601 39.983 20.2681C40.4452 20.9814 41.8105 22.1083 43.5768 20.8949C45.3452 19.6815 51.0281 15.5665 53.1722 14.1378" stroke="url(#paint32_radial_5403_8577)" stroke-width="0.15"/>
</g>
<path d="M29.2361 7.60117C31.3351 7.60117 33.0367 5.89959 33.0367 3.80058C33.0367 1.70158 31.3351 0 29.2361 0C27.1371 0 25.4355 1.70158 25.4355 3.80058C25.4355 5.89959 27.1371 7.60117 29.2361 7.60117Z" fill="url(#paint33_radial_5403_8577)"/>
<path d="M29.2361 7.60117C31.3351 7.60117 33.0367 5.89959 33.0367 3.80058C33.0367 1.70158 31.3351 0 29.2361 0C27.1371 0 25.4355 1.70158 25.4355 3.80058C25.4355 5.89959 27.1371 7.60117 29.2361 7.60117Z" fill="url(#paint34_radial_5403_8577)"/>
<path d="M29.2361 7.60117C31.3351 7.60117 33.0367 5.89959 33.0367 3.80058C33.0367 1.70158 31.3351 0 29.2361 0C27.1371 0 25.4355 1.70158 25.4355 3.80058C25.4355 5.89959 27.1371 7.60117 29.2361 7.60117Z" fill="url(#paint35_radial_5403_8577)"/>
<path d="M29.2361 7.60117C31.3351 7.60117 33.0367 5.89959 33.0367 3.80058C33.0367 1.70158 31.3351 0 29.2361 0C27.1371 0 25.4355 1.70158 25.4355 3.80058C25.4355 5.89959 27.1371 7.60117 29.2361 7.60117Z" fill="url(#paint36_radial_5403_8577)"/>
<path d="M58.6265 12.8317C58.6265 13.6099 58.3173 14.3563 57.767 14.9066C57.2167 15.4569 56.4704 15.766 55.6921 15.766C54.9139 15.766 54.1675 15.4569 53.6173 14.9066C53.067 14.3563 52.7578 13.6099 52.7578 12.8317C52.7578 12.0538 53.0669 11.3077 53.6169 10.7576C54.167 10.2075 54.9131 9.89844 55.6911 9.89844C56.469 9.89844 57.2151 10.2075 57.7652 10.7576C58.3153 11.3077 58.6243 12.0538 58.6243 12.8317" fill="url(#paint37_radial_5403_8577)"/>
<path d="M58.6265 12.8317C58.6265 13.6099 58.3173 14.3563 57.767 14.9066C57.2167 15.4569 56.4704 15.766 55.6921 15.766C54.9139 15.766 54.1675 15.4569 53.6173 14.9066C53.067 14.3563 52.7578 13.6099 52.7578 12.8317C52.7578 12.0538 53.0669 11.3077 53.6169 10.7576C54.167 10.2075 54.9131 9.89844 55.6911 9.89844C56.469 9.89844 57.2151 10.2075 57.7652 10.7576C58.3153 11.3077 58.6243 12.0538 58.6243 12.8317" fill="url(#paint38_radial_5403_8577)"/>
<path d="M58.6265 12.8317C58.6265 13.6099 58.3173 14.3563 57.767 14.9066C57.2167 15.4569 56.4704 15.766 55.6921 15.766C54.9139 15.766 54.1675 15.4569 53.6173 14.9066C53.067 14.3563 52.7578 13.6099 52.7578 12.8317C52.7578 12.0538 53.0669 11.3077 53.6169 10.7576C54.167 10.2075 54.9131 9.89844 55.6911 9.89844C56.469 9.89844 57.2151 10.2075 57.7652 10.7576C58.3153 11.3077 58.6243 12.0538 58.6243 12.8317" fill="url(#paint39_radial_5403_8577)"/>
<path d="M58.6265 12.8317C58.6265 13.6099 58.3173 14.3563 57.767 14.9066C57.2167 15.4569 56.4704 15.766 55.6921 15.766C54.9139 15.766 54.1675 15.4569 53.6173 14.9066C53.067 14.3563 52.7578 13.6099 52.7578 12.8317C52.7578 12.0538 53.0669 11.3077 53.6169 10.7576C54.167 10.2075 54.9131 9.89844 55.6911 9.89844C56.469 9.89844 57.2151 10.2075 57.7652 10.7576C58.3153 11.3077 58.6243 12.0538 58.6243 12.8317" fill="url(#paint40_radial_5403_8577)"/>
<defs>
<filter id="filter0_ii_5403_8577" x="1.67617" y="6.20518" width="55.1379" height="41.7948" filterUnits="userSpaceOnUse" color-interpolation-filters="sRGB">
<feFlood flood-opacity="0" result="BackgroundImageFix"/>
<feBlend mode="normal" in="SourceGraphic" in2="BackgroundImageFix" result="shape"/>
<feColorMatrix in="SourceAlpha" type="matrix" values="0 0 0 0 0 0 0 0 0 0 0 0 0 0 0 0 0 0 127 0" result="hardAlpha"/>
<feOffset dx="0.4" dy="-0.1"/>
<feGaussianBlur stdDeviation="0.25"/>
<feComposite in2="hardAlpha" operator="arithmetic" k2="-1" k3="1"/>
<feColorMatrix type="matrix" values="0 0 0 0 0.803922 0 0 0 0 0.580392 0 0 0 0 0.262745 0 0 0 1 0"/>
<feBlend mode="normal" in2="shape" result="effect1_innerShadow_5403_8577"/>
<feColorMatrix in="SourceAlpha" type="matrix" values="0 0 0 0 0 0 0 0 0 0 0 0 0 0 0 0 0 0 127 0" result="hardAlpha"/>
<feOffset dx="-0.4" dy="-0.1"/>
<feGaussianBlur stdDeviation="0.25"/>
<feComposite in2="hardAlpha" operator="arithmetic" k2="-1" k3="1"/>
<feColorMatrix type="matrix" values="0 0 0 0 0.894118 0 0 0 0 0.686275 0 0 0 0 0.301961 0 0 0 1 0"/>
<feBlend mode="normal" in2="effect1_innerShadow_5403_8577" result="effect2_innerShadow_5403_8577"/>
</filter>
<filter id="filter1_di_5403_8577" x="39.0762" y="31.0293" width="7.26172" height="7.82227" filterUnits="userSpaceOnUse" color-interpolation-filters="sRGB">
<feFlood flood-opacity="0" result="BackgroundImageFix"/>
<feColorMatrix in="SourceAlpha" type="matrix" values="0 0 0 0 0 0 0 0 0 0 0 0 0 0 0 0 0 0 127 0" result="hardAlpha"/>
<feOffset dx="-0.25" dy="0.25"/>
<feGaussianBlur stdDeviation="0.375"/>
<feComposite in2="hardAlpha" operator="out"/>
<feColorMatrix type="matrix" values="0 0 0 0 1 0 0 0 0 0.54902 0 0 0 0 0.305882 0 0 0 1 0"/>
<feBlend mode="normal" in2="BackgroundImageFix" result="effect1_dropShadow_5403_8577"/>
<feBlend mode="normal" in="SourceGraphic" in2="effect1_dropShadow_5403_8577" result="shape"/>
<feColorMatrix in="SourceAlpha" type="matrix" values="0 0 0 0 0 0 0 0 0 0 0 0 0 0 0 0 0 0 127 0" result="hardAlpha"/>
<feOffset dx="0.15" dy="-0.15"/>
<feGaussianBlur stdDeviation="0.25"/>
<feComposite in2="hardAlpha" operator="arithmetic" k2="-1" k3="1"/>
<feColorMatrix type="matrix" values="0 0 0 0 0.984314 0 0 0 0 0.219608 0 0 0 0 0.254902 0 0 0 1 0"/>
<feBlend mode="normal" in2="shape" result="effect2_innerShadow_5403_8577"/>
</filter>
<filter id="filter2_di_5403_8577" x="11.8184" y="31.0283" width="7.25977" height="7.82227" filterUnits="userSpaceOnUse" color-interpolation-filters="sRGB">
<feFlood flood-opacity="0" result="BackgroundImageFix"/>
<feColorMatrix in="SourceAlpha" type="matrix" values="0 0 0 0 0 0 0 0 0 0 0 0 0 0 0 0 0 0 127 0" result="hardAlpha"/>
<feOffset dx="-0.25" dy="0.25"/>
<feGaussianBlur stdDeviation="0.375"/>
<feComposite in2="hardAlpha" operator="out"/>
<feColorMatrix type="matrix" values="0 0 0 0 0.905882 0 0 0 0 0.439216 0 0 0 0 0.278431 0 0 0 1 0"/>
<feBlend mode="normal" in2="BackgroundImageFix" result="effect1_dropShadow_5403_8577"/>
<feBlend mode="normal" in="SourceGraphic" in2="effect1_dropShadow_5403_8577" result="shape"/>
<feColorMatrix in="SourceAlpha" type="matrix" values="0 0 0 0 0 0 0 0 0 0 0 0 0 0 0 0 0 0 127 0" result="hardAlpha"/>
<feOffset dx="0.3" dy="0.3"/>
<feGaussianBlur stdDeviation="0.3"/>
<feComposite in2="hardAlpha" operator="arithmetic" k2="-1" k3="1"/>
<feColorMatrix type="matrix" values="0 0 0 0 0.796078 0 0 0 0 0.141176 0 0 0 0 0.223529 0 0 0 1 0"/>
<feBlend mode="normal" in2="shape" result="effect2_innerShadow_5403_8577"/>
</filter>
<filter id="filter3_i_5403_8577" x="39.8652" y="7.90674" width="5.86719" height="5.64307" filterUnits="userSpaceOnUse" color-interpolation-filters="sRGB">
<feFlood flood-opacity="0" result="BackgroundImageFix"/>
<feBlend mode="normal" in="SourceGraphic" in2="BackgroundImageFix" result="shape"/>
<feColorMatrix in="SourceAlpha" type="matrix" values="0 0 0 0 0 0 0 0 0 0 0 0 0 0 0 0 0 0 127 0" result="hardAlpha"/>
<feOffset/>
<feGaussianBlur stdDeviation="0.125"/>
<feComposite in2="hardAlpha" operator="arithmetic" k2="-1" k3="1"/>
<feColorMatrix type="matrix" values="0 0 0 0 0.756863 0 0 0 0 0.619608 0 0 0 0 0.321569 0 0 0 1 0"/>
<feBlend mode="normal" in2="shape" result="effect1_innerShadow_5403_8577"/>
</filter>
<filter id="filter4_di_5403_8577" x="22.3691" y="28.8228" width="12.916" height="12.916" filterUnits="userSpaceOnUse" color-interpolation-filters="sRGB">
<feFlood flood-opacity="0" result="BackgroundImageFix"/>
<feColorMatrix in="SourceAlpha" type="matrix" values="0 0 0 0 0 0 0 0 0 0 0 0 0 0 0 0 0 0 127 0" result="hardAlpha"/>
<feOffset dx="-0.5" dy="0.5"/>
<feGaussianBlur stdDeviation="0.625"/>
<feComposite in2="hardAlpha" operator="out"/>
<feColorMatrix type="matrix" values="0 0 0 0 0.937255 0 0 0 0 0.443137 0 0 0 0 0.376471 0 0 0 1 0"/>
<feBlend mode="normal" in2="BackgroundImageFix" result="effect1_dropShadow_5403_8577"/>
<feBlend mode="normal" in="SourceGraphic" in2="effect1_dropShadow_5403_8577" result="shape"/>
<feColorMatrix in="SourceAlpha" type="matrix" values="0 0 0 0 0 0 0 0 0 0 0 0 0 0 0 0 0 0 127 0" result="hardAlpha"/>
<feOffset dx="0.75" dy="-0.75"/>
<feGaussianBlur stdDeviation="0.75"/>
<feComposite in2="hardAlpha" operator="arithmetic" k2="-1" k3="1"/>
<feColorMatrix type="matrix" values="0 0 0 0 0.313726 0 0 0 0 0.384314 0 0 0 0 1 0 0 0 1 0"/>
<feBlend mode="normal" in2="shape" result="effect2_innerShadow_5403_8577"/>
</filter>
<filter id="filter5_f_5403_8577" x="29.5355" y="7.17764" width="23.8273" height="14.4782" filterUnits="userSpaceOnUse" color-interpolation-filters="sRGB">
<feFlood flood-opacity="0" result="BackgroundImageFix"/>
<feBlend mode="normal" in="SourceGraphic" in2="BackgroundImageFix" result="shape"/>
<feGaussianBlur stdDeviation="0.075" result="effect1_foregroundBlur_5403_8577"/>
</filter>
<radialGradient id="paint0_radial_5403_8577" cx="0" cy="0" r="1" gradientUnits="userSpaceOnUse" gradientTransform="translate(6.82884 36.7252) rotate(-103.54) scale(3.6968 4.55121)">
<stop stop-color="#395DE0"/>
<stop offset="1" stop-color="#2C68A3"/>
</radialGradient>
<radialGradient id="paint1_radial_5403_8577" cx="0" cy="0" r="1" gradientUnits="userSpaceOnUse" gradientTransform="translate(53.7141 31.9456) rotate(108.743) scale(6.31099 6.31099)">
<stop offset="0.249" stop-color="#3DB3F3"/>
<stop offset="1" stop-color="#5B73F4"/>
</radialGradient>
<radialGradient id="paint2_radial_5403_8577" cx="0" cy="0" r="1" gradientUnits="userSpaceOnUse" gradientTransform="translate(54.766 33.3634) rotate(161.162) scale(2.96133 1.87753)">
<stop offset="0.258" stop-color="#5FBEFF"/>
<stop offset="1" stop-color="#5FBEFF" stop-opacity="0"/>
</radialGradient>
<radialGradient id="paint3_radial_5403_8577" cx="0" cy="0" r="1" gradientUnits="userSpaceOnUse" gradientTransform="translate(13.7466 16.2839) rotate(15.9454) scale(6.72129 16.7761)">
<stop stop-color="#FBC96E"/>
<stop offset="1" stop-color="#FAC567"/>
</radialGradient>
<radialGradient id="paint4_radial_5403_8577" cx="0" cy="0" r="1" gradientUnits="userSpaceOnUse" gradientTransform="translate(17.7033 17.7336) rotate(-156.753) scale(5.0959 15.3261)">
<stop offset="0.765" stop-color="#D89F3A" stop-opacity="0"/>
<stop offset="0.911" stop-color="#DAA139"/>
</radialGradient>
<radialGradient id="paint5_radial_5403_8577" cx="0" cy="0" r="1" gradientUnits="userSpaceOnUse" gradientTransform="translate(45.8657 20.3702) rotate(-125.455) scale(5.34323 5.48)">
<stop offset="0.254" stop-color="#BF812A"/>
<stop offset="1" stop-color="#CE9333"/>
</radialGradient>
<radialGradient id="paint6_radial_5403_8577" cx="0" cy="0" r="1" gradientUnits="userSpaceOnUse" gradientTransform="translate(41.744 17.7653) rotate(-23.0909) scale(4.62397 12.0462)">
<stop offset="0.734" stop-color="#E9BB61" stop-opacity="0"/>
<stop offset="0.929" stop-color="#E9BB61"/>
</radialGradient>
<radialGradient id="paint7_radial_5403_8577" cx="0" cy="0" r="1" gradientUnits="userSpaceOnUse" gradientTransform="translate(44.4825 19.0837) rotate(-142.922) scale(7.27387 12.2713)">
<stop offset="0.773" stop-color="#C18739" stop-opacity="0"/>
<stop offset="0.948" stop-color="#C18739"/>
</radialGradient>
<linearGradient id="paint8_linear_5403_8577" x1="44.4524" y1="31.0965" x2="7.17246" y2="39.7908" gradientUnits="userSpaceOnUse">
<stop stop-color="#FFBC5D"/>
<stop offset="0.304" stop-color="#FCAD6A"/>
<stop offset="1" stop-color="#CB7547"/>
</linearGradient>
<radialGradient id="paint9_radial_5403_8577" cx="0" cy="0" r="1" gradientUnits="userSpaceOnUse" gradientTransform="translate(21.0854 54.8982) rotate(-69.4212) scale(23.2184 45.1905)">
<stop stop-color="#F67B4E"/>
<stop offset="1" stop-color="#F67B4E" stop-opacity="0"/>
</radialGradient>
<linearGradient id="paint10_linear_5403_8577" x1="6.62785" y1="38.9008" x2="12.3657" y2="37.7148" gradientUnits="userSpaceOnUse">
<stop stop-color="#C2794C"/>
<stop offset="1" stop-color="#E07648" stop-opacity="0"/>
</linearGradient>
<linearGradient id="paint11_linear_5403_8577" x1="51.6693" y1="42.5938" x2="41.9093" y2="40.3527" gradientUnits="userSpaceOnUse">
<stop offset="0.129" stop-color="#FFBB5B"/>
<stop offset="1" stop-color="#FFBB5B" stop-opacity="0"/>
</linearGradient>
<linearGradient id="paint12_linear_5403_8577" x1="32.2823" y1="48.5953" x2="32.2823" y2="46.0883" gradientUnits="userSpaceOnUse">
<stop offset="0.184" stop-color="#FF6F8C"/>
<stop offset="1" stop-color="#FF7A6A" stop-opacity="0"/>
</linearGradient>
<radialGradient id="paint13_radial_5403_8577" cx="0" cy="0" r="1" gradientUnits="userSpaceOnUse" gradientTransform="translate(54.7039 13.8414) rotate(113.385) scale(5.31671 4.40713)">
<stop offset="0.377" stop-color="#DD9049"/>
<stop offset="1" stop-color="#F8BF60" stop-opacity="0"/>
</radialGradient>
<radialGradient id="paint14_radial_5403_8577" cx="0" cy="0" r="1" gradientUnits="userSpaceOnUse" gradientTransform="translate(4.02379 14.139) rotate(64.2172) scale(4.32095 2.36344)">
<stop offset="0.196" stop-color="#D7783D"/>
<stop offset="1" stop-color="#D7783D" stop-opacity="0"/>
</radialGradient>
<radialGradient id="paint15_radial_5403_8577" cx="0" cy="0" r="1" gradientUnits="userSpaceOnUse" gradientTransform="translate(29.2478 6.30777) rotate(76.0566) scale(2.46308 5.39386)">
<stop offset="0.382" stop-color="#D48C33"/>
<stop offset="1" stop-color="#FEB16A" stop-opacity="0"/>
</radialGradient>
<radialGradient id="paint16_radial_5403_8577" cx="0" cy="0" r="1" gradientUnits="userSpaceOnUse" gradientTransform="translate(41.9741 36.3315) rotate(-51.5819) scale(4.88177 3.15)">
<stop stop-color="#FF196C"/>
<stop offset="1" stop-color="#FF1F4A"/>
</radialGradient>
<radialGradient id="paint17_radial_5403_8577" cx="0" cy="0" r="1" gradientUnits="userSpaceOnUse" gradientTransform="translate(45.3379 33.7569) rotate(149.744) scale(3.66461 2.32121)">
<stop offset="0.223" stop-color="#FF5873"/>
<stop offset="1" stop-color="#FF5873" stop-opacity="0"/>
</radialGradient>
<radialGradient id="paint18_radial_5403_8577" cx="0" cy="0" r="1" gradientUnits="userSpaceOnUse" gradientTransform="translate(16.1904 36.4606) rotate(-104.281) scale(3.74268 3.58348)">
<stop stop-color="#F6196C"/>
<stop offset="1" stop-color="#E42047"/>
</radialGradient>
<radialGradient id="paint19_radial_5403_8577" cx="0" cy="0" r="1" gradientUnits="userSpaceOnUse" gradientTransform="translate(17.7404 34.1864) rotate(155.726) scale(1.84472 1.61582)">
<stop stop-color="#FE536F"/>
<stop offset="1" stop-color="#FE536F" stop-opacity="0"/>
</radialGradient>
<radialGradient id="paint20_radial_5403_8577" cx="0" cy="0" r="1" gradientUnits="userSpaceOnUse" gradientTransform="translate(5.30682 10.8268) rotate(135.198) scale(6.27354 6.52677)">
<stop offset="0.172" stop-color="#E7C04E"/>
<stop offset="1" stop-color="#D9972A"/>
</radialGradient>
<radialGradient id="paint21_radial_5403_8577" cx="0" cy="0" r="1" gradientUnits="userSpaceOnUse" gradientTransform="translate(2.27449 16.1494) rotate(-71.331) scale(3.50217 3.79366)">
<stop offset="0.065" stop-color="#DF8089"/>
<stop offset="1" stop-color="#DF8089" stop-opacity="0"/>
</radialGradient>
<radialGradient id="paint22_radial_5403_8577" cx="0" cy="0" r="1" gradientUnits="userSpaceOnUse" gradientTransform="translate(5.54155 10.962) rotate(141.017) scale(2.96926 1.53443)">
<stop stop-color="#FFDE71"/>
<stop offset="1" stop-color="#FFDE71" stop-opacity="0"/>
</radialGradient>
<radialGradient id="paint23_radial_5403_8577" cx="0" cy="0" r="1" gradientUnits="userSpaceOnUse" gradientTransform="translate(3.95674 13.0195) rotate(180) scale(3.95674 4.11231)">
<stop offset="0.488" stop-color="#E1AD3D" stop-opacity="0"/>
<stop offset="1" stop-color="#B9894B"/>
</radialGradient>
<radialGradient id="paint24_radial_5403_8577" cx="0" cy="0" r="1" gradientUnits="userSpaceOnUse" gradientTransform="translate(18.0657 8.79625) rotate(136.302) scale(6.15684 6.39889)">
<stop offset="0.172" stop-color="#E7C04E"/>
<stop offset="1" stop-color="#D9972A"/>
</radialGradient>
<radialGradient id="paint25_radial_5403_8577" cx="0" cy="0" r="1" gradientUnits="userSpaceOnUse" gradientTransform="translate(18.2964 8.92791) rotate(142.093) scale(2.92534 1.49857)">
<stop stop-color="#FFDE71"/>
<stop offset="1" stop-color="#FFDE71" stop-opacity="0"/>
</radialGradient>
<radialGradient id="paint26_radial_5403_8577" cx="0" cy="0" r="1" gradientUnits="userSpaceOnUse" gradientTransform="translate(15.6923 13.906) rotate(-76.7987) scale(2.74331 3.65877)">
<stop stop-color="#E4A122"/>
<stop offset="1" stop-color="#E4A122" stop-opacity="0"/>
</radialGradient>
<radialGradient id="paint27_radial_5403_8577" cx="0" cy="0" r="1" gradientUnits="userSpaceOnUse" gradientTransform="translate(16.7137 10.9052) rotate(180) scale(3.95674 3.95674)">
<stop offset="0.488" stop-color="#E1AD3D" stop-opacity="0"/>
<stop offset="1" stop-color="#B9894B"/>
</radialGradient>
<radialGradient id="paint28_radial_5403_8577" cx="0" cy="0" r="1" gradientUnits="userSpaceOnUse" gradientTransform="translate(45.006 9.75441) rotate(136.32) scale(5.06077 5.25975)">
<stop offset="0.172" stop-color="#F0C950"/>
<stop offset="1" stop-color="#C8861F"/>
</radialGradient>
<radialGradient id="paint29_radial_5403_8577" cx="0" cy="0" r="1" gradientUnits="userSpaceOnUse" gradientTransform="translate(45.4351 9.19267) rotate(147.14) scale(2.82625 1.4478)">
<stop offset="0.184" stop-color="#FFDE71"/>
<stop offset="1" stop-color="#FFDE71" stop-opacity="0"/>
</radialGradient>
<radialGradient id="paint30_radial_5403_8577" cx="0" cy="0" r="1" gradientUnits="userSpaceOnUse" gradientTransform="translate(31.6197 33.1626) rotate(138.155) scale(5.93109)">
<stop stop-color="#5FBFFF"/>
<stop offset="1" stop-color="#3E94FF"/>
</radialGradient>
<linearGradient id="paint31_linear_5403_8577" x1="29.6955" y1="6.98192" x2="43.083" y2="23.864" gradientUnits="userSpaceOnUse">
<stop stop-color="#FFD678"/>
<stop offset="1" stop-color="#FFD678" stop-opacity="0"/>
</linearGradient>
<radialGradient id="paint32_radial_5403_8577" cx="0" cy="0" r="1" gradientUnits="userSpaceOnUse" gradientTransform="translate(43.083 22.2159) rotate(-34.6679) scale(13.7109 3.67233)">
<stop offset="0.289" stop-color="#FFD175"/>
<stop offset="1" stop-color="#FFD175" stop-opacity="0"/>
</radialGradient>
<radialGradient id="paint33_radial_5403_8577" cx="0" cy="0" r="1" gradientUnits="userSpaceOnUse" gradientTransform="translate(32.2806 1.70697) rotate(125.606) scale(7.2492 6.15473)">
<stop offset="0.376" stop-color="#F3D154"/>
<stop offset="1" stop-color="#CC9848"/>
</radialGradient>
<radialGradient id="paint34_radial_5403_8577" cx="0" cy="0" r="1" gradientUnits="userSpaceOnUse" gradientTransform="translate(28.5186 7.60117) rotate(-79.3129) scale(3.8672 4.59701)">
<stop stop-color="#E78F5E"/>
<stop offset="1" stop-color="#E78F5E" stop-opacity="0"/>
</radialGradient>
<radialGradient id="paint35_radial_5403_8577" cx="0" cy="0" r="1" gradientUnits="userSpaceOnUse" gradientTransform="translate(30.8273 5.07096) rotate(-146.725) scale(7.57229 9.05682)">
<stop offset="0.557" stop-color="#E9C251" stop-opacity="0"/>
<stop offset="1" stop-color="#B49858"/>
</radialGradient>
<radialGradient id="paint36_radial_5403_8577" cx="0" cy="0" r="1" gradientUnits="userSpaceOnUse" gradientTransform="translate(33.598 2.10182) rotate(156.06) scale(4.18487 3.22044)">
<stop stop-color="#FFED77"/>
<stop offset="1" stop-color="#FFED77" stop-opacity="0"/>
</radialGradient>
<radialGradient id="paint37_radial_5403_8577" cx="0" cy="0" r="1" gradientUnits="userSpaceOnUse" gradientTransform="translate(58.0656 10.829) rotate(135.198) scale(6.27354 6.52677)">
<stop offset="0.172" stop-color="#F8CB54"/>
<stop offset="1" stop-color="#EAA34B"/>
</radialGradient>
<radialGradient id="paint38_radial_5403_8577" cx="0" cy="0" r="1" gradientUnits="userSpaceOnUse" gradientTransform="translate(55.0348 16.149) rotate(-71.3309) scale(3.50218 4.73388)">
<stop offset="0.16" stop-color="#F1907C"/>
<stop offset="1" stop-color="#F1907C" stop-opacity="0"/>
</radialGradient>
<radialGradient id="paint39_radial_5403_8577" cx="0" cy="0" r="1" gradientUnits="userSpaceOnUse" gradientTransform="translate(58.3015 10.9641) rotate(141.017) scale(2.96927 1.53443)">
<stop stop-color="#FFDE71"/>
<stop offset="1" stop-color="#FFDE71" stop-opacity="0"/>
</radialGradient>
<radialGradient id="paint40_radial_5403_8577" cx="0" cy="0" r="1" gradientUnits="userSpaceOnUse" gradientTransform="translate(56.7146 13.0195) rotate(180) scale(3.95674 4.11231)">
<stop offset="0.488" stop-color="#E0A444" stop-opacity="0"/>
<stop offset="1" stop-color="#C6924D"/>
</radialGradient>
</defs>
</svg>
