<svg width="24" height="24" viewBox="0 0 24 24" fill="none" xmlns="http://www.w3.org/2000/svg">
<path fill-rule="evenodd" clip-rule="evenodd" d="M7.97305 8.73202C7.76933 8.56236 7.50657 8.48053 7.24255 8.50454C6.97852 8.52854 6.73483 8.65641 6.56505 8.86002L4.48205 11.36C4.31978 11.5645 4.24392 11.8244 4.27068 12.0841C4.29743 12.3438 4.42467 12.5827 4.62522 12.7498C4.82578 12.9169 5.08373 12.999 5.34399 12.9785C5.60424 12.958 5.84615 12.8365 6.01805 12.64L8.10105 10.14C8.27071 9.93631 8.35254 9.67355 8.32853 9.40953C8.30453 9.1455 8.17666 8.90181 7.97305 8.73202Z" fill="white"/>
<path fill-rule="evenodd" clip-rule="evenodd" d="M7.97293 15.268C8.1767 15.0984 8.30475 14.8547 8.32894 14.5907C8.35313 14.3267 8.27148 14.0638 8.10193 13.86L6.01793 11.36C5.93505 11.2555 5.83212 11.1687 5.71519 11.1046C5.59825 11.0406 5.46969 11.0005 5.33705 10.9868C5.20441 10.9732 5.07037 10.9862 4.94283 11.0251C4.81529 11.064 4.69682 11.128 4.59438 11.2133C4.49195 11.2987 4.40762 11.4037 4.34635 11.5221C4.28509 11.6406 4.24814 11.7701 4.23766 11.903C4.22718 12.0359 4.24339 12.1696 4.28534 12.2962C4.32729 12.4227 4.39413 12.5396 4.48193 12.64L6.56493 15.14C6.73471 15.3436 6.9784 15.4715 7.24243 15.4955C7.50646 15.5195 7.76921 15.4377 7.97293 15.268Z" fill="white"/>
<path fill-rule="evenodd" clip-rule="evenodd" d="M5.5 12C5.5 12.2652 5.60536 12.5196 5.79289 12.7071C5.98043 12.8946 6.23478 13 6.5 13H13C13.2652 13 13.5196 12.8946 13.7071 12.7071C13.8946 12.5196 14 12.2652 14 12C14 11.7348 13.8946 11.4804 13.7071 11.2929C13.5196 11.1054 13.2652 11 13 11H6.5C6.23478 11 5.98043 11.1054 5.79289 11.2929C5.60536 11.4804 5.5 11.7348 5.5 12ZM20 5C20 4.73478 19.8946 4.48043 19.7071 4.29289C19.5196 4.10536 19.2652 4 19 4H10C9.73478 4 9.48043 4.10536 9.29289 4.29289C9.10536 4.48043 9 4.73478 9 5C9 5.26522 9.10536 5.51957 9.29289 5.70711C9.48043 5.89464 9.73478 6 10 6H19C19.2652 6 19.5196 5.89464 19.7071 5.70711C19.8946 5.51957 20 5.26522 20 5ZM20 19C20 18.7348 19.8946 18.4804 19.7071 18.2929C19.5196 18.1054 19.2652 18 19 18H10C9.73478 18 9.48043 18.1054 9.29289 18.2929C9.10536 18.4804 9 18.7348 9 19C9 19.2652 9.10536 19.5196 9.29289 19.7071C9.48043 19.8946 9.73478 20 10 20H19C19.2652 20 19.5196 19.8946 19.7071 19.7071C19.8946 19.5196 20 19.2652 20 19Z" fill="white"/>
<path fill-rule="evenodd" clip-rule="evenodd" d="M10 4C9.73478 4 9.48043 4.10536 9.29289 4.29289C9.10536 4.48043 9 4.73478 9 5V9C9 9.26522 9.10536 9.51957 9.29289 9.70711C9.48043 9.89464 9.73478 10 10 10C10.2652 10 10.5196 9.89464 10.7071 9.70711C10.8946 9.51957 11 9.26522 11 9V5C11 4.73478 10.8946 4.48043 10.7071 4.29289C10.5196 4.10536 10.2652 4 10 4ZM10 14C9.73478 14 9.48043 14.1054 9.29289 14.2929C9.10536 14.4804 9 14.7348 9 15V19C9 19.2652 9.10536 19.5196 9.29289 19.7071C9.48043 19.8946 9.73478 20 10 20C10.2652 20 10.5196 19.8946 10.7071 19.7071C10.8946 19.5196 11 19.2652 11 19V15C11 14.7348 10.8946 14.4804 10.7071 14.2929C10.5196 14.1054 10.2652 14 10 14ZM19 4C18.7348 4 18.4804 4.10536 18.2929 4.29289C18.1054 4.48043 18 4.73478 18 5V19C18 19.2652 18.1054 19.5196 18.2929 19.7071C18.4804 19.8946 18.7348 20 19 20C19.2652 20 19.5196 19.8946 19.7071 19.7071C19.8946 19.5196 20 19.2652 20 19V5C20 4.73478 19.8946 4.48043 19.7071 4.29289C19.5196 4.10536 19.2652 4 19 4Z" fill="white"/>
</svg>
