<svg width="60" height="60" viewBox="0 0 60 60" fill="none" xmlns="http://www.w3.org/2000/svg">
<path d="M13.5001 26.9982C13.1023 26.9982 12.7207 26.8402 12.4394 26.5589C12.158 26.2775 12 25.896 12 25.4981V13.5001C12 13.1023 12.158 12.7207 12.4394 12.4394C12.7207 12.158 13.1023 12 13.5001 12H25.5011C25.899 12 26.2805 12.158 26.5619 12.4394C26.8432 12.7207 27.0012 13.1023 27.0012 13.5001V25.4981C27.0012 25.896 26.8432 26.2775 26.5619 26.5589C26.2805 26.8402 25.899 26.9982 25.5011 26.9982H13.5001ZM34.5019 26.9982C34.104 26.9982 33.7225 26.8402 33.4411 26.5589C33.1598 26.2775 33.0017 25.896 33.0017 25.4981V13.5001C33.0017 13.1023 33.1598 12.7207 33.4411 12.4394C33.7225 12.158 34.104 12 34.5019 12H46.4999C46.8977 12 47.2793 12.158 47.5606 12.4394C47.8419 12.7207 48 13.1023 48 13.5001V25.4981C48 25.896 47.8419 26.2775 47.5606 26.5589C47.2793 26.8402 46.8977 26.9982 46.4999 26.9982H34.5019ZM13.5001 48C13.1023 48 12.7207 47.842 12.4394 47.5606C12.158 47.2793 12 46.8977 12 46.4999V34.4989C12 34.101 12.158 33.7195 12.4394 33.4381C12.7207 33.1568 13.1023 32.9987 13.5001 32.9987H25.5011C25.899 32.9987 26.2805 33.1568 26.5619 33.4381C26.8432 33.7195 27.0012 34.101 27.0012 34.4989V46.4999C27.0012 46.8977 26.8432 47.2793 26.5619 47.5606C26.2805 47.842 25.899 48 25.5011 48H13.5001ZM34.5019 48C34.104 48 33.7225 47.842 33.4411 47.5606C33.1598 47.2793 33.0017 46.8977 33.0017 46.4999V34.4989C33.0017 34.101 33.1598 33.7195 33.4411 33.4381C33.7225 33.1568 34.104 32.9987 34.5019 32.9987H46.4999C46.8977 32.9987 47.2793 33.1568 47.5606 33.4381C47.8419 33.7195 48 34.101 48 34.4989V46.4999C48 46.8977 47.8419 47.2793 47.5606 47.5606C47.2793 47.842 46.8977 48 46.4999 48H34.5019Z" fill="black"/>
</svg>
