<svg width="16" height="16" viewBox="0 0 16 16" fill="none" xmlns="http://www.w3.org/2000/svg">
<rect width="16" height="16" rx="8" fill="#9EA3E8"/>
<path d="M9.1692 3.83347C9.1692 3.19278 8.64673 2.6665 8.00223 2.6665C7.35773 2.6665 6.83145 3.19278 6.83527 3.83347V6.83478H3.83396C3.19327 6.83478 2.66699 7.35724 2.66699 8.00174C2.66699 8.64243 3.19327 9.16871 3.83396 9.16871H6.83527V12.1662C6.83527 12.8069 7.35773 13.3332 8.00223 13.3332C8.64292 13.3332 9.1692 12.8107 9.1692 12.1662V9.16871H12.1667C12.8074 9.16871 13.3337 8.64624 13.3337 8.00174C13.3337 7.36106 12.8112 6.83478 12.1667 6.83478H9.1692V3.83347Z" fill="#393D73"/>
</svg>
