<svg width="56" height="56" viewBox="0 0 56 56" fill="none" xmlns="http://www.w3.org/2000/svg">
<path fill-rule="evenodd" clip-rule="evenodd" d="M23.2 9H32.8C41.8504 9 46.3768 9 49.1872 11.8128C52 14.6232 52 19.1496 52 28.2C52 37.2504 52 41.7768 49.1872 44.5872C46.3768 47.4 41.8504 47.4 32.8 47.4H23.2C14.1496 47.4 9.6232 47.4 6.8128 44.5872C4 41.7768 4 37.2504 4 28.2C4 19.1496 4 14.6232 6.8128 11.8128C9.6232 9 14.1496 9 23.2 9ZM31 21C31 20.5226 31.1896 20.0648 31.5272 19.7272C31.8648 19.3896 32.3226 19.2 32.8 19.2H44.8C45.2774 19.2 45.7352 19.3896 46.0728 19.7272C46.4104 20.0648 46.6 20.5226 46.6 21C46.6 21.4774 46.4104 21.9352 46.0728 22.2728C45.7352 22.6104 45.2774 22.8 44.8 22.8H32.8C32.3226 22.8 31.8648 22.6104 31.5272 22.2728C31.1896 21.9352 31 21.4774 31 21ZM33.4 28.2C33.4 27.7226 33.5896 27.2648 33.9272 26.9272C34.2648 26.5896 34.7226 26.4 35.2 26.4H44.8C45.2774 26.4 45.7352 26.5896 46.0728 26.9272C46.4104 27.2648 46.6 27.7226 46.6 28.2C46.6 28.6774 46.4104 29.1352 46.0728 29.4728C45.7352 29.8104 45.2774 30 44.8 30H35.2C34.7226 30 34.2648 29.8104 33.9272 29.4728C33.5896 29.1352 33.4 28.6774 33.4 28.2ZM35.8 35.4C35.8 34.9226 35.9896 34.4648 36.3272 34.1272C36.6648 33.7896 37.1226 33.6 37.6 33.6H44.8C45.2774 33.6 45.7352 33.7896 46.0728 34.1272C46.4104 34.4648 46.6 34.9226 46.6 35.4C46.6 35.8774 46.4104 36.3352 46.0728 36.6728C45.7352 37.0104 45.2774 37.2 44.8 37.2H37.6C37.1226 37.2 36.6648 37.0104 36.3272 36.6728C35.9896 36.3352 35.8 35.8774 35.8 35.4ZM25.6 21C25.6 22.273 25.0943 23.4939 24.1941 24.3941C23.2939 25.2943 22.073 25.8 20.8 25.8C19.527 25.8 18.3061 25.2943 17.4059 24.3941C16.5057 23.4939 16 22.273 16 21C16 19.727 16.5057 18.5061 17.4059 17.6059C18.3061 16.7057 19.527 16.2 20.8 16.2C22.073 16.2 23.2939 16.7057 24.1941 17.6059C25.0943 18.5061 25.6 19.727 25.6 21ZM20.8 40.2C30.4 40.2 30.4 38.052 30.4 35.4C30.4 32.748 26.104 30.6 20.8 30.6C15.496 30.6 11.2 32.748 11.2 35.4C11.2 38.052 11.2 40.2 20.8 40.2Z" fill="white"/>
</svg>
