<svg width="60" height="60" viewBox="0 0 60 60" fill="none" xmlns="http://www.w3.org/2000/svg">
<path d="M29.7561 48C27.5678 48 25.5177 47.5839 23.606 46.7518C21.6942 45.9196 20.0311 44.7968 18.6165 43.3835C17.202 41.9677 16.0792 40.3046 15.2482 38.394C14.4172 36.4835 14.0012 34.4334 14 32.2439C14 31.7479 14.1681 31.3318 14.5042 30.9957C14.8403 30.6595 15.2558 30.4921 15.7507 30.4932C16.2467 30.4932 16.6628 30.6613 16.9989 30.9974C17.335 31.3335 17.5025 31.749 17.5014 32.2439C17.5014 35.6577 18.6906 38.5539 21.0692 40.9325C23.4478 43.3111 26.3434 44.4998 29.7561 44.4986C33.1699 44.4986 36.0661 43.3093 38.4447 40.9308C40.8233 38.5522 42.012 35.6565 42.0108 32.2439C42.0108 28.8301 40.8216 25.9339 38.443 23.5553C36.0644 21.1767 33.1688 19.988 29.7561 19.9892H29.4935L30.9816 21.4772C31.3317 21.8274 31.4998 22.2359 31.4858 22.7027C31.4718 23.1695 31.3037 23.578 30.9816 23.9282C30.6314 24.2783 30.2159 24.461 29.7351 24.4761C29.2542 24.4913 28.8382 24.3232 28.4869 23.9719L23.9789 19.4639C23.6287 19.1138 23.4537 18.7053 23.4537 18.2385C23.4537 17.7716 23.6287 17.3631 23.9789 17.013L28.4869 12.505C28.837 12.1549 29.2531 11.9868 29.7351 12.0008C30.2171 12.0148 30.6326 12.1975 30.9816 12.5488C31.3025 12.8989 31.4706 13.3074 31.4858 13.7742C31.5009 14.2411 31.3329 14.6496 30.9816 14.9997L29.4935 16.4878H29.7561C31.9444 16.4878 33.9945 16.9039 35.9062 17.736C37.818 18.5682 39.4811 19.6915 40.8957 21.1061C42.3102 22.5206 43.4336 24.1838 44.2657 26.0955C45.0979 28.0073 45.5134 30.0567 45.5122 32.2439C45.5122 34.4322 45.0961 36.4823 44.264 38.394C43.4318 40.3058 42.309 41.9689 40.8957 43.3835C39.4799 44.798 37.8168 45.9214 35.9062 46.7535C33.9957 47.5857 31.9456 48.0012 29.7561 48Z" fill="black"/>
</svg>
