<svg width="34" height="44" viewBox="0 0 34 44" fill="none" xmlns="http://www.w3.org/2000/svg">
<g filter="url(#filter0_d_5403_8628)">
<path d="M16.6 25.2006C23.5589 25.2006 29.2001 19.5594 29.2001 12.6005C29.2001 5.64172 23.5589 0.000488281 16.6 0.000488281C9.64123 0.000488281 4 5.64172 4 12.6005C4 19.5594 9.64123 25.2006 16.6 25.2006Z" fill="#E0E0E0"/>
<path d="M8.58333 22.3203L8.23233 23.4003L7.08573 27.5817C5.95533 31.7073 5.39012 33.7702 6.14433 34.8988C6.40893 35.2948 6.76353 35.6116 7.17573 35.8222C8.34933 36.4198 10.1637 35.4748 13.7908 33.5848C14.9968 32.9548 15.6016 32.6416 16.2424 32.5732C16.4818 32.548 16.7194 32.548 16.9588 32.5732C17.5996 32.6416 18.2026 32.9548 19.4104 33.5848C23.0374 35.4748 24.8518 36.4198 26.0254 35.8222C26.4376 35.6116 26.7922 35.2948 27.0568 34.8988C27.8128 33.7702 27.2458 31.7073 26.1154 27.5817L24.9688 23.4003L24.6178 22.3203C22.4398 24.1203 19.6462 25.2003 16.6006 25.2003C13.555 25.2003 10.7613 24.1203 8.58333 22.3203Z" fill="#808080"/>
<path d="M12.235 6.10449C13.787 5.27249 15.331 4.85649 16.867 4.85649C18.419 4.85649 19.595 5.24849 20.395 6.03249C21.195 6.81649 21.595 7.92849 21.595 9.36849C21.595 10.7925 21.339 11.9605 20.827 12.8725C20.331 13.7845 19.411 15.0165 18.067 16.5685H21.643V20.0005H12.835L12.643 17.5525C14.163 15.9365 15.243 14.7125 15.883 13.8805C16.523 13.0485 16.955 12.3605 17.179 11.8165C17.403 11.2725 17.515 10.7685 17.515 10.3045C17.515 9.82449 17.395 9.45649 17.155 9.20049C16.931 8.94449 16.635 8.81649 16.267 8.81649C15.899 8.81649 15.547 8.86449 15.211 8.96049C14.747 9.07249 14.011 9.36049 13.003 9.82449L12.235 6.10449Z" fill="#808080"/>
</g>
<defs>
<filter id="filter0_d_5403_8628" x="0" y="0.000488281" width="33.1992" height="44" filterUnits="userSpaceOnUse" color-interpolation-filters="sRGB">
<feFlood flood-opacity="0" result="BackgroundImageFix"/>
<feColorMatrix in="SourceAlpha" type="matrix" values="0 0 0 0 0 0 0 0 0 0 0 0 0 0 0 0 0 0 127 0" result="hardAlpha"/>
<feOffset dy="4"/>
<feGaussianBlur stdDeviation="2"/>
<feComposite in2="hardAlpha" operator="out"/>
<feColorMatrix type="matrix" values="0 0 0 0 0 0 0 0 0 0 0 0 0 0 0 0 0 0 0.25 0"/>
<feBlend mode="normal" in2="BackgroundImageFix" result="effect1_dropShadow_5403_8628"/>
<feBlend mode="normal" in="SourceGraphic" in2="effect1_dropShadow_5403_8628" result="shape"/>
</filter>
</defs>
</svg>
