<svg width="60" height="60" viewBox="0 0 60 60" fill="none" xmlns="http://www.w3.org/2000/svg">
<path fill-rule="evenodd" clip-rule="evenodd" d="M33.3028 12.2736C32.6368 12 31.7908 12 30.1006 12C28.4104 12 27.5644 12 26.8984 12.2736C26.0118 12.6376 25.3061 13.3388 24.9364 14.223C24.7672 14.6244 24.7024 15.0942 24.6754 15.7764C24.6634 16.2707 24.5255 16.7537 24.2748 17.1799C24.0241 17.606 23.6688 17.9612 23.2426 18.2118C22.8083 18.4532 22.3201 18.5811 21.8233 18.5836C21.3265 18.5861 20.8371 18.4632 20.4004 18.2262C19.792 17.9058 19.351 17.7294 18.9154 17.6718C17.9624 17.5467 16.9985 17.8028 16.2334 18.3846C15.661 18.8202 15.238 19.5474 14.3938 21C13.5478 22.4526 13.1266 23.178 13.0312 23.889C12.9052 24.8358 13.1644 25.7934 13.7512 26.5512C14.0176 26.8968 14.3938 27.1866 14.9752 27.5502C15.8338 28.0848 16.3846 28.9956 16.3846 30C16.3846 31.0044 15.8338 31.9152 14.977 32.448C14.3938 32.8134 14.0176 33.1032 13.7494 33.4488C13.4597 33.8231 13.2471 34.2511 13.1238 34.708C13.0006 35.165 12.9691 35.6418 13.0312 36.111C13.1266 36.8202 13.5478 37.5474 14.3938 39C15.2398 40.4526 15.661 41.178 16.2334 41.6154C16.9966 42.1968 17.9614 42.4524 18.9154 42.3282C19.351 42.2706 19.792 42.0942 20.4004 41.7738C20.8373 41.5365 21.327 41.4134 21.8242 41.4159C22.3214 41.4184 22.8099 41.5465 23.2444 41.7882C24.1192 42.2922 24.6376 43.2192 24.6754 44.2236C24.7024 44.9076 24.7672 45.3756 24.9364 45.777C25.3036 46.659 26.0092 47.361 26.8984 47.7264C27.5644 48 28.4104 48 30.1006 48C31.7908 48 32.6368 48 33.3028 47.7264C34.1894 47.3624 34.8951 46.6612 35.2648 45.777C35.434 45.3756 35.4988 44.9076 35.5258 44.2236C35.5618 43.2192 36.082 42.2904 36.9586 41.7882C37.3928 41.5468 37.881 41.4189 38.3778 41.4164C38.8747 41.4139 39.3641 41.5368 39.8008 41.7738C40.4092 42.0942 40.8502 42.2706 41.2858 42.3282C42.2398 42.4542 43.2046 42.1968 43.9678 41.6154C44.5402 41.1798 44.9632 40.4526 45.8074 39C46.6534 37.5474 47.0746 36.822 47.17 36.111C47.2318 35.6417 47.2 35.1648 47.0764 34.7078C46.9529 34.2509 46.7399 33.823 46.45 33.4488C46.1836 33.1032 45.8074 32.8134 45.226 32.4498C44.3674 31.9152 43.8166 31.0044 43.8166 30C43.8166 28.9956 44.3674 28.0848 45.2242 27.552C45.8074 27.1866 46.1836 26.8968 46.4518 26.5512C46.7414 26.1769 46.954 25.7489 47.0773 25.292C47.2006 24.835 47.2321 24.3582 47.17 23.889C47.0746 23.1798 46.6534 22.4526 45.8074 21C44.9614 19.5474 44.5402 18.822 43.9678 18.3846C43.2026 17.8028 42.2388 17.5467 41.2858 17.6718C40.8502 17.7294 40.4092 17.9058 39.8008 18.2262C39.3639 18.4635 38.8741 18.5866 38.3769 18.5841C37.8797 18.5816 37.3912 18.4535 36.9568 18.2118C36.5309 17.961 36.176 17.6057 35.9256 17.1796C35.6752 16.7535 35.5376 16.2705 35.5258 15.7764C35.4988 15.0924 35.434 14.6244 35.2648 14.223C35.0818 13.7851 34.8144 13.3876 34.4777 13.0531C34.1411 12.7186 33.7418 12.4537 33.3028 12.2736ZM30.1006 35.4C33.1066 35.4 35.542 32.9826 35.542 30C35.542 27.0174 33.1048 24.6 30.1006 24.6C27.0946 24.6 24.6592 27.0174 24.6592 30C24.6592 32.9826 27.0964 35.4 30.1006 35.4Z" fill="white"/>
</svg>
