<svg width="56" height="56" viewBox="0 0 56 56" fill="none" xmlns="http://www.w3.org/2000/svg">
<path fill-rule="evenodd" clip-rule="evenodd" d="M32.4943 3.38399C31.5596 3 30.3723 3 28.0001 3C25.628 3 24.4407 3 23.5059 3.38399C22.2617 3.89482 21.2712 4.87893 20.7523 6.11991C20.5149 6.68327 20.4239 7.34262 20.386 8.30007C20.3692 8.99378 20.1757 9.67174 19.8238 10.2698C19.4719 10.8679 18.9733 11.3664 18.3751 11.7181C17.7657 12.0569 17.0806 12.2363 16.3833 12.2399C15.686 12.2434 14.9991 12.0709 14.3862 11.7383C13.5323 11.2886 12.9134 11.041 12.302 10.9602C10.9645 10.7846 9.61177 11.1441 8.53794 11.9606C7.73459 12.5719 7.14092 13.5926 5.95611 15.6312C4.76878 17.6699 4.17763 18.688 4.04374 19.6859C3.86691 21.0147 4.23069 22.3586 5.05424 23.4222C5.42813 23.9072 5.95611 24.3139 6.77209 24.8242C7.97711 25.5745 8.75014 26.8528 8.75014 28.2625C8.75014 29.6721 7.97711 30.9504 6.77462 31.6982C5.95611 32.211 5.42813 32.6177 5.05172 33.1028C4.6452 33.6281 4.34682 34.2287 4.17381 34.87C4.0008 35.5113 3.95659 36.1806 4.04374 36.8391C4.17763 37.8344 4.76878 38.855 5.95611 40.8937C7.14345 42.9324 7.73459 43.9505 8.53794 44.5643C9.60906 45.3803 10.9631 45.739 12.302 45.5647C12.9134 45.4839 13.5323 45.2363 14.3862 44.7866C14.9994 44.4536 15.6867 44.2808 16.3845 44.2844C17.0823 44.2879 17.7679 44.4676 18.3777 44.8069C19.6054 45.5142 20.333 46.8152 20.386 48.2249C20.4239 49.1848 20.5149 49.8417 20.7523 50.405C21.2677 51.6429 22.258 52.6281 23.5059 53.1409C24.4407 53.5249 25.628 53.5249 28.0001 53.5249C30.3723 53.5249 31.5596 53.5249 32.4943 53.1409C33.7386 52.6301 34.7291 51.646 35.2479 50.405C35.4854 49.8417 35.5764 49.1848 35.6142 48.2249C35.6648 46.8152 36.3949 45.5117 37.6251 44.8069C38.2346 44.4681 38.9197 44.2886 39.617 44.2851C40.3143 44.2815 41.0012 44.4541 41.6141 44.7866C42.468 45.2363 43.0869 45.4839 43.6982 45.5647C45.0371 45.7416 46.3912 45.3803 47.4623 44.5643C48.2657 43.953 48.8594 42.9324 50.0442 40.8937C51.2315 38.855 51.8226 37.8369 51.9565 36.8391C52.0433 36.1804 51.9987 35.5111 51.8253 34.8698C51.6518 34.2285 51.353 33.6279 50.946 33.1028C50.5722 32.6177 50.0442 32.211 49.2282 31.7007C48.0232 30.9504 47.2501 29.6721 47.2501 28.2625C47.2501 26.8528 48.0232 25.5745 49.2257 24.8268C50.0442 24.3139 50.5721 23.9072 50.9486 23.4222C51.3551 22.8969 51.6535 22.2962 51.8265 21.6549C51.9995 21.0136 52.0437 20.3443 51.9565 19.6859C51.8226 18.6905 51.2315 17.6699 50.0442 15.6312C48.8568 13.5926 48.2657 12.5745 47.4623 11.9606C46.3885 11.1441 45.0357 10.7846 43.6982 10.9602C43.0869 11.041 42.468 11.2886 41.6141 11.7383C41.0009 12.0713 40.3135 12.2441 39.6158 12.2406C38.918 12.237 38.2324 12.0573 37.6226 11.7181C37.0249 11.3661 36.5268 10.8675 36.1754 10.2694C35.824 9.67133 35.6308 8.99354 35.6142 8.30007C35.5764 7.34009 35.4854 6.68327 35.2479 6.11991C34.9912 5.50537 34.6158 4.94744 34.1433 4.478C33.6709 4.00856 33.1105 3.63681 32.4943 3.38399ZM28.0001 35.8412C32.219 35.8412 35.637 32.4485 35.637 28.2625C35.637 24.0765 32.2164 20.6837 28.0001 20.6837C23.7813 20.6837 20.3633 24.0765 20.3633 28.2625C20.3633 32.4485 23.7838 35.8412 28.0001 35.8412Z" fill="black"/>
</svg>
