<svg width="60" height="60" viewBox="0 0 60 60" fill="none" xmlns="http://www.w3.org/2000/svg">
<path fill-rule="evenodd" clip-rule="evenodd" d="M34.0704 6.3648C33.1824 6 32.0544 6 29.8008 6C27.5472 6 26.4192 6 25.5312 6.3648C24.349 6.85011 23.4081 7.78504 22.9152 8.964C22.6896 9.4992 22.6032 10.1256 22.5672 11.0352C22.5512 11.6942 22.3673 12.3383 22.033 12.9065C21.6987 13.4747 21.2251 13.9483 20.6568 14.2824C20.0777 14.6042 19.4269 14.7747 18.7644 14.7781C18.102 14.7815 17.4494 14.6176 16.8672 14.3016C16.056 13.8744 15.468 13.6392 14.8872 13.5624C13.6165 13.3956 12.3313 13.7371 11.3112 14.5128C10.548 15.0936 9.98396 16.0632 8.85836 18C7.73036 19.9368 7.16876 20.904 7.04156 21.852C6.87356 23.1144 7.21916 24.3912 8.00156 25.4016C8.35676 25.8624 8.85836 26.2488 9.63356 26.7336C10.7784 27.4464 11.5128 28.6608 11.5128 30C11.5128 31.3392 10.7784 32.5536 9.63596 33.264C8.85836 33.7512 8.35676 34.1376 7.99916 34.5984C7.61296 35.0975 7.32948 35.6681 7.16512 36.2774C7.00076 36.8866 6.95876 37.5224 7.04156 38.148C7.16876 39.0936 7.73036 40.0632 8.85836 42C9.98636 43.9368 10.548 44.904 11.3112 45.4872C12.3288 46.2624 13.6152 46.6032 14.8872 46.4376C15.468 46.3608 16.056 46.1256 16.8672 45.6984C17.4497 45.382 18.1027 45.2179 18.7656 45.2212C19.4285 45.2246 20.0799 45.3953 20.6592 45.7176C21.8256 46.3896 22.5168 47.6256 22.5672 48.9648C22.6032 49.8768 22.6896 50.5008 22.9152 51.036C23.4048 52.212 24.3456 53.148 25.5312 53.6352C26.4192 54 27.5472 54 29.8008 54C32.0544 54 33.1824 54 34.0704 53.6352C35.2525 53.1499 36.1934 52.215 36.6864 51.036C36.912 50.5008 36.9984 49.8768 37.0344 48.9648C37.0824 47.6256 37.776 46.3872 38.9448 45.7176C39.5238 45.3958 40.1747 45.2253 40.8371 45.2219C41.4995 45.2185 42.1521 45.3824 42.7344 45.6984C43.5456 46.1256 44.1336 46.3608 44.7144 46.4376C45.9864 46.6056 47.2728 46.2624 48.2904 45.4872C49.0536 44.9064 49.6176 43.9368 50.7432 42C51.8712 40.0632 52.4328 39.096 52.56 38.148C52.6424 37.5223 52.6 36.8864 52.4353 36.2771C52.2705 35.6678 51.9866 35.0973 51.6 34.5984C51.2448 34.1376 50.7432 33.7512 49.968 33.2664C48.8232 32.5536 48.0888 31.3392 48.0888 30C48.0888 28.6608 48.8232 27.4464 49.9656 26.736C50.7432 26.2488 51.2448 25.8624 51.6024 25.4016C51.9886 24.9025 52.272 24.3319 52.4364 23.7226C52.6008 23.1134 52.6428 22.4776 52.56 21.852C52.4328 20.9064 51.8712 19.9368 50.7432 18C49.6152 16.0632 49.0536 15.096 48.2904 14.5128C47.2702 13.7371 45.985 13.3956 44.7144 13.5624C44.1336 13.6392 43.5456 13.8744 42.7344 14.3016C42.1518 14.618 41.4988 14.7821 40.8359 14.7788C40.173 14.7754 39.5217 14.6047 38.9424 14.2824C38.3745 13.948 37.9013 13.4743 37.5674 12.9061C37.2336 12.3379 37.0501 11.694 37.0344 11.0352C36.9984 10.1232 36.912 9.4992 36.6864 8.964C36.4424 8.38017 36.0858 7.85012 35.6369 7.40414C35.1881 6.95816 34.6558 6.60499 34.0704 6.3648ZM29.8008 37.2C33.8088 37.2 37.056 33.9768 37.056 30C37.056 26.0232 33.8064 22.8 29.8008 22.8C25.7928 22.8 22.5456 26.0232 22.5456 30C22.5456 33.9768 25.7952 37.2 29.8008 37.2Z" fill="white"/>
</svg>
