<svg width="24" height="24" viewBox="0 0 24 24" fill="none" xmlns="http://www.w3.org/2000/svg">
<path fill-rule="evenodd" clip-rule="evenodd" d="M13.92 4.00003H18.4C18.8243 4.00003 19.2313 4.1686 19.5313 4.46866C19.8314 4.76872 20 5.17568 20 5.60003V18.4C20 18.8244 19.8314 19.2313 19.5313 19.5314C19.2313 19.8315 18.8243 20 18.4 20H13.92C13.6654 20 13.4212 19.8989 13.2411 19.7189C13.0611 19.5388 12.96 19.2946 12.96 19.04C12.96 18.7854 13.0611 18.5412 13.2411 18.3612C13.4212 18.1812 13.6654 18.08 13.92 18.08H18.08V5.92003H13.92C13.6654 5.92003 13.4212 5.81889 13.2411 5.63885C13.0611 5.45882 12.96 5.21464 12.96 4.96003C12.96 4.70542 13.0611 4.46124 13.2411 4.28121C13.4212 4.10117 13.6654 4.00003 13.92 4.00003ZM11.3992 15.8792L14.5992 12.6792C14.6888 12.5901 14.7599 12.4842 14.8085 12.3676C14.8571 12.2509 14.8822 12.1259 14.8824 11.9995C14.8825 11.8732 14.8577 11.748 14.8094 11.6313C14.7611 11.5145 14.6902 11.4085 14.6008 11.3192L11.4008 8.11918C11.2205 7.93883 10.9758 7.83751 10.7208 7.83751C10.4658 7.83751 10.2211 7.93883 10.0408 8.11918C9.86045 8.29953 9.75913 8.54413 9.75913 8.79918C9.75913 8.92547 9.78401 9.05052 9.83234 9.16719C9.88067 9.28387 9.9515 9.38988 10.0408 9.47918L11.6 11.04H4.96C4.70539 11.04 4.46121 11.1411 4.28118 11.3212C4.10114 11.5012 4 11.7454 4 12C4 12.2546 4.10114 12.4988 4.28118 12.6788C4.46121 12.8588 4.70539 12.96 4.96 12.96H11.6L10.0392 14.5192C9.85885 14.6995 9.75753 14.9441 9.75753 15.1992C9.75753 15.4542 9.85885 15.6988 10.0392 15.8792C10.2195 16.0595 10.4642 16.1608 10.7192 16.1608C10.9742 16.1608 11.2189 16.0595 11.3992 15.8792Z" fill="white"/>
</svg>
