<svg width="60" height="60" viewBox="0 0 60 60" fill="none" xmlns="http://www.w3.org/2000/svg">
<path d="M32.993 13.4999C32.9929 13.2048 32.9059 12.9164 32.7429 12.6706C32.5798 12.4247 32.3478 12.2325 32.0761 12.1179C31.8043 12.0032 31.5048 11.9713 31.215 12.0261C30.9252 12.0809 30.658 12.2199 30.4468 12.4259L21.6688 20.9759H16.4985C15.3054 20.9759 14.1612 21.4501 13.3176 22.294C12.4739 23.1379 12 24.2825 12 25.476V34.4461C12 35.6396 12.4739 36.7842 13.3176 37.6281C14.1612 38.472 15.3054 38.9461 16.4985 38.9461H21.6658L30.4438 47.5712C30.6547 47.778 30.9219 47.9179 31.2119 47.9733C31.5019 48.0288 31.8019 47.9974 32.0741 47.883C32.3464 47.7686 32.5788 47.5764 32.7423 47.3304C32.9057 47.0844 32.9929 46.7956 32.993 46.5002V13.4999ZM36.3249 21.5669C36.4475 21.4126 36.5993 21.284 36.7716 21.1884C36.944 21.0928 37.1335 21.0321 37.3293 21.0098C37.5251 20.9875 37.7234 21.004 37.9128 21.0585C38.1022 21.1129 38.279 21.2041 38.4332 21.3269L38.4391 21.3299L38.4451 21.3359L38.4601 21.3479L38.5051 21.3869L38.6431 21.5069C38.751 21.609 38.898 21.747 39.0689 21.933C39.4078 22.302 39.8487 22.839 40.2835 23.553C41.1562 24.993 42.002 27.132 42.002 29.997C42.002 32.8591 41.1562 35.0011 40.2835 36.4411C39.9337 37.0212 39.5268 37.5649 39.0689 38.0641C38.8782 38.2714 38.676 38.4677 38.4631 38.6521L38.4391 38.6731H38.4361C38.4361 38.6731 37.0956 39.4021 36.3279 38.4391C36.081 38.1301 35.9661 37.7361 36.0082 37.3428C36.0504 36.9495 36.2461 36.5888 36.5528 36.3391L36.5588 36.3331L36.6128 36.2851C36.6667 36.2341 36.7567 36.1501 36.8677 36.0301C37.1888 35.6773 37.4741 35.2934 37.7194 34.8841C38.3492 33.8491 39.003 32.2381 39.003 29.994C39.003 27.753 38.3492 26.145 37.7194 25.113C37.411 24.6038 37.0403 24.1352 36.6158 23.718C36.4518 23.5986 36.3137 23.4472 36.2099 23.273C36.106 23.0987 36.0386 22.9052 36.0117 22.7041C35.9848 22.503 35.9989 22.2986 36.0533 22.1031C36.1076 21.9077 36.201 21.7253 36.3279 21.5669M41.4321 15.3269C41.2786 15.1998 41.1013 15.1046 40.9106 15.0468C40.7199 14.9891 40.5196 14.9699 40.3214 14.9905C40.1232 15.011 39.9311 15.0709 39.7563 15.1666C39.5815 15.2623 39.4275 15.3919 39.3033 15.5478C39.1791 15.7037 39.0873 15.8828 39.0331 16.0747C38.9789 16.2665 38.9635 16.4672 38.9878 16.665C39.012 16.8629 39.0754 17.0539 39.1743 17.227C39.2732 17.4 39.4056 17.5516 39.5638 17.6729L39.5968 17.7029L39.7527 17.8379C39.8937 17.9639 40.1006 18.1589 40.3555 18.4229C40.8653 18.9539 41.5551 19.7519 42.2449 20.8049C43.6244 22.908 45.004 26.004 45.004 30.012C45.0117 33.2823 44.0517 36.4817 42.2449 39.2071C41.5551 40.2571 40.8653 41.0491 40.3555 41.5772C40.1144 41.8282 39.8622 42.0685 39.5998 42.2972L39.5668 42.3272H39.5638C39.2611 42.5777 39.0689 42.9371 39.0283 43.328C38.9878 43.7189 39.1022 44.1101 39.347 44.4174C39.5918 44.7248 39.9474 44.9238 40.3373 44.9716C40.7273 45.0195 41.1204 44.9123 41.4321 44.6732L41.5311 44.5922L41.756 44.3972C41.945 44.2262 42.2059 43.9832 42.5148 43.6622C43.3461 42.7977 44.095 41.8576 44.752 40.8541C46.8788 37.6391 48.0087 33.8672 47.9999 30.012C48.0075 26.1533 46.8778 22.3779 44.752 19.1579C44.0952 18.1533 43.3473 17.2113 42.5178 16.3439C42.2043 16.018 41.8761 15.7067 41.5341 15.4109L41.4651 15.3539L41.4441 15.3359L41.4381 15.3299L41.4321 15.3269Z" fill="black"/>
</svg>
