<svg width="26" height="36" viewBox="0 0 26 36" fill="none" xmlns="http://www.w3.org/2000/svg">
<path d="M12.6 25.2006C19.5589 25.2006 25.2001 19.5594 25.2001 12.6005C25.2001 5.64172 19.5589 0.000488281 12.6 0.000488281C5.64123 0.000488281 0 5.64172 0 12.6005C0 19.5594 5.64123 25.2006 12.6 25.2006Z" fill="#F7D9CB"/>
<path d="M4.58333 22.3203L4.23233 23.4003L3.08573 27.5817C1.95533 31.7073 1.39012 33.7702 2.14433 34.8988C2.40893 35.2948 2.76353 35.6116 3.17573 35.8222C4.34933 36.4198 6.16374 35.4748 9.79076 33.5848C10.9968 32.9548 11.6016 32.6416 12.2424 32.5732C12.4818 32.548 12.7194 32.548 12.9588 32.5732C13.5996 32.6416 14.2026 32.9548 15.4104 33.5848C19.0374 35.4748 20.8518 36.4198 22.0254 35.8222C22.4376 35.6116 22.7922 35.2948 23.0568 34.8988C23.8128 33.7702 23.2458 31.7073 22.1154 27.5817L20.9688 23.4003L20.6178 22.3203C18.4398 24.1203 15.6462 25.2003 12.6006 25.2003C9.55495 25.2003 6.76134 24.1203 4.58333 22.3203Z" fill="#DC672E"/>
<path d="M12.5752 4.85649C15.5832 4.85649 17.0872 6.16049 17.0872 8.76849C17.0872 9.55249 16.9432 10.2005 16.6552 10.7125C16.3672 11.2245 15.8952 11.6885 15.2392 12.1045V12.2005C15.9752 12.5365 16.5032 12.9845 16.8232 13.5445C17.1432 14.0885 17.3032 14.8005 17.3032 15.6805C17.3032 17.1365 16.8872 18.2645 16.0552 19.0645C15.2232 19.8485 14.0152 20.2405 12.4312 20.2405C11.6472 20.2405 10.9752 20.1685 10.4152 20.0245C9.87119 19.8965 9.16719 19.6485 8.30319 19.2805L9.14319 15.9205C10.4712 16.4005 11.3912 16.6405 11.9032 16.6405C12.6552 16.6405 13.0312 16.2245 13.0312 15.3925C13.0312 14.4965 12.5272 14.0485 11.5192 14.0485H10.0312V10.9045H11.5432C11.9912 10.9045 12.3032 10.8085 12.4792 10.6165C12.6712 10.4085 12.7672 10.1045 12.7672 9.70449C12.7672 8.93649 12.3912 8.55249 11.6392 8.55249C11.1112 8.55249 10.1752 8.82449 8.83119 9.36849L7.89519 6.12849C8.77519 5.64849 9.55919 5.32049 10.2472 5.14449C10.9352 4.95249 11.7112 4.85649 12.5752 4.85649Z" fill="#DC672E"/>
</svg>
