<svg width="25" height="24" viewBox="0 0 25 24" fill="none" xmlns="http://www.w3.org/2000/svg">
<g id="typcn:user" clip-path="url(#clip0_4040_2778)">
<path id="Vector" d="M19.5294 7.05882C19.5294 5.10918 18.7388 3.34447 17.4626 2.06824C16.1849 0.790588 14.4202 0 12.4706 0C10.5209 0 8.75624 0.790588 7.47859 2.06824C6.20235 3.34447 5.41176 5.10918 5.41176 7.05882C5.41176 9.00847 6.20235 10.7732 7.47859 12.0494C8.75624 13.3271 10.5209 14.1176 12.4706 14.1176C14.4202 14.1176 16.1849 13.3271 17.4626 12.0494C18.1189 11.3947 18.6393 10.6168 18.994 9.76035C19.3487 8.9039 19.5306 7.98581 19.5294 7.05882ZM4 21.1765C4 22.5882 7.17647 24 12.4706 24C17.4372 24 20.9412 22.5882 20.9412 21.1765C20.9412 18.3529 17.6179 15.5294 12.4706 15.5294C7.17647 15.5294 4 18.3529 4 21.1765Z" fill="#757575"/>
</g>
<defs>
<clipPath id="clip0_4040_2778">
<rect width="24" height="24" fill="white" transform="translate(0.5)"/>
</clipPath>
</defs>
</svg>
