<svg width="24" height="24" viewBox="0 0 24 24" fill="none" xmlns="http://www.w3.org/2000/svg">
<path d="M12.2 12.8C14.1168 12.8 15.86 13.3552 17.1424 14.1376C17.7824 14.528 18.3296 14.9888 18.7248 15.4896C19.1136 15.9816 19.4 16.5704 19.4 17.2C19.4 17.876 19.0712 18.4088 18.5976 18.7888C18.1496 19.1488 17.5584 19.3872 16.9304 19.5536C15.668 19.8872 13.9832 20 12.2 20C10.4168 20 8.732 19.888 7.4696 19.5536C6.8416 19.3872 6.2504 19.1488 5.8024 18.7888C5.328 18.408 5 17.876 5 17.2C5 16.5704 5.2864 15.9816 5.6752 15.4888C6.0704 14.9888 6.6168 14.5288 7.2576 14.1368C8.54 13.356 10.284 12.8 12.2 12.8ZM12.2 4C13.2609 4 14.2783 4.42143 15.0284 5.17157C15.7786 5.92172 16.2 6.93913 16.2 8C16.2 9.06087 15.7786 10.0783 15.0284 10.8284C14.2783 11.5786 13.2609 12 12.2 12C11.1391 12 10.1217 11.5786 9.37157 10.8284C8.62143 10.0783 8.2 9.06087 8.2 8C8.2 6.93913 8.62143 5.92172 9.37157 5.17157C10.1217 4.42143 11.1391 4 12.2 4Z" fill="#262956"/>
</svg>
